<svg width="518" height="399" viewBox="0 0 518 399" fill="none" xmlns="http://www.w3.org/2000/svg">
<path d="M61.1886 69.5312H27.8136M61.1886 69.5312C67.3328 69.5312 72.3136 74.5121 72.3136 80.6562H16.6886C16.6886 74.5121 21.6694 69.5312 27.8136 69.5312M61.1886 69.5312V57.0156C61.1886 54.7116 59.3208 52.8438 57.0167 52.8438H53.7844M27.8136 69.5312V57.0156C27.8136 54.7116 29.6814 52.8438 31.9855 52.8438H35.2178M53.7844 52.8438H35.2178M53.7844 52.8438C51.7547 49.335 50.4696 45.3417 50.1449 41.0799M35.2178 52.8438C37.2475 49.335 38.5327 45.3417 38.8573 41.0799M19.4699 15.7098C15.8272 16.2395 12.2214 16.8831 8.65625 17.6369C10.3262 27.5288 18.524 35.2025 28.6652 36.0737M19.4699 15.7098V16.6875C19.4699 24.5039 23.0525 31.4834 28.6652 36.0737M19.4699 15.7098V10.09C27.6483 8.93897 36.0052 8.34375 44.5011 8.34375C52.997 8.34375 61.3539 8.93897 69.5324 10.09V15.7098M28.6652 36.0737C31.5858 38.4623 35.0561 40.2039 38.8573 41.0799M69.5324 15.7098V16.6875C69.5324 24.5039 65.9497 31.4834 60.337 36.0737M69.5324 15.7098C73.1751 16.2395 76.7809 16.8831 80.346 17.6369C78.6761 27.5288 70.4783 35.2025 60.337 36.0737M60.337 36.0737C57.4164 38.4623 53.9461 40.2039 50.1449 41.0799M50.1449 41.0799C48.3311 41.4979 46.4419 41.7188 44.5011 41.7188C42.5603 41.7188 40.6712 41.4979 38.8573 41.0799" stroke="white" stroke-width="1.5" stroke-linecap="round" stroke-linejoin="round"/>
<path d="M425.878 60.351C424.606 70.0765 423.834 79.9589 423.587 89.9718C437.102 95.6142 449.956 102.523 462.001 110.55C474.046 102.523 486.9 95.6142 500.415 89.9718C500.168 79.959 499.396 70.0766 498.124 60.3512M425.878 60.351C421.791 58.9774 417.655 57.7117 413.473 56.5573C428.618 45.9414 444.862 36.7869 462.001 29.2986C479.14 36.7869 495.385 45.9414 510.53 56.5573C506.347 57.7118 502.211 58.9775 498.124 60.3512M425.878 60.351C438.418 64.5662 450.492 69.7975 462.001 75.947C473.51 69.7975 485.584 64.5663 498.124 60.3512M437.501 83C439.434 83 441.001 81.433 441.001 79.5C441.001 77.567 439.434 76 437.501 76C435.568 76 434.001 77.567 434.001 79.5C434.001 81.433 435.568 83 437.501 83ZM437.501 83V65.8475C445.395 60.943 453.571 56.4511 462.001 52.402M429.3 106.299C434.767 100.832 437.501 93.6658 437.501 86.5V79.5" stroke="white" stroke-width="1.5" stroke-linecap="round" stroke-linejoin="round"/>
<path d="M257.609 355.127L257.732 355.448H289.732L264.197 371.178L263.844 371.396L263.992 371.782L273.791 397.352L248.011 381.471L247.749 381.31L247.486 381.471L221.706 397.351L231.505 371.782L231.653 371.396L231.301 371.178L205.766 355.448H237.765L237.888 355.127L247.748 329.397L257.609 355.127Z" stroke="white"/>
</svg>
