<svg width="32" height="27" viewBox="0 0 32 27" fill="none" xmlns="http://www.w3.org/2000/svg">
<path d="M15.9531 0.924072C16.1127 0.924092 16.1723 0.995899 16.1836 1.0188L19.8877 8.60181C20.1657 9.17101 20.7474 9.4922 21.3369 9.53247L30.9502 10.1887C31.0384 10.1947 31.0911 10.2204 31.1182 10.2395C31.1354 10.2517 31.143 10.2648 31.1484 10.2727C31.1422 10.2795 31.134 10.2902 31.1191 10.301L23.7939 15.6438C23.2922 16.01 23.0184 16.6376 23.1982 17.2795L25.4326 25.2571C25.4259 25.2656 25.4139 25.2818 25.3877 25.2981C25.2978 25.3537 25.1618 25.3702 25.04 25.3069L16.8096 21.0256C16.2781 20.7493 15.6271 20.7492 15.0957 21.0256L6.86523 25.3069C6.74358 25.3699 6.60829 25.3536 6.51855 25.2981C6.49182 25.2815 6.47929 25.2655 6.47266 25.2571L8.70801 17.2795C8.88781 16.6376 8.61401 16.01 8.1123 15.6438L0.787109 10.301C0.77191 10.2899 0.763106 10.2795 0.756836 10.2727C0.76221 10.2648 0.770463 10.2519 0.788086 10.2395C0.815112 10.2204 0.867858 10.1947 0.956055 10.1887L10.5693 9.53247C11.1588 9.49216 11.7406 9.17096 12.0186 8.60181L15.7227 1.0188C15.734 0.995837 15.7936 0.924072 15.9531 0.924072Z" fill="url(#paint0_linear_70_3454)" stroke="url(#paint1_linear_70_3454)" stroke-width="1.5" stroke-linecap="round" stroke-linejoin="round"/>
<defs>
<linearGradient id="paint0_linear_70_3454" x1="13" y1="28.6741" x2="1.90658e-07" y2="13.1358" gradientUnits="userSpaceOnUse">
<stop stop-color="#FFC348"/>
<stop offset="0.5" stop-color="#FAFAFA"/>
<stop offset="1" stop-color="#F813E1"/>
</linearGradient>
<linearGradient id="paint1_linear_70_3454" x1="11" y1="18.1741" x2="5.80639" y2="8.45253" gradientUnits="userSpaceOnUse">
<stop stop-color="#F813E1"/>
<stop offset="0.495192" stop-color="#FDFDFD"/>
<stop offset="0.990385" stop-color="#FB6B94"/>
</linearGradient>
</defs>
</svg>
