<svg width="41" height="36" viewBox="0 0 41 36" fill="none" xmlns="http://www.w3.org/2000/svg">
<path d="M6.28485 30.7461L6.1476 30.7566L0.982176 35.3453L0.96965 35.4662L1.10082 35.5L10.8833 31.7039L10.9413 31.6487L12.5948 27.5551L12.5691 27.4551L9.43947 24.674L9.32028 24.6539L4.96183 26.3435L4.90588 26.3932L0.632812 35.0836L0.670698 35.2007L0.807342 35.1893L5.97185 30.6009L5.98316 30.4787C5.64383 30.0496 5.68792 29.4548 6.11859 29.0716C6.60277 28.6428 7.38445 28.6428 7.86864 29.0716C8.35039 29.5017 8.35039 30.196 7.86864 30.6259C7.4373 31.0095 6.76788 31.0479 6.28485 30.7461Z" fill="url(#paint0_linear_40_2315)"/>
<path d="M17.1738 14.8528L23.872 20.8032C32.0297 13.333 41.5848 2.26569 39.8112 0.690637C38.0392 -0.884202 25.5823 7.60474 17.1738 14.8528Z" fill="url(#paint1_linear_40_2315)"/>
<path d="M11.5816 25.7717C13.1128 27.1325 14.0241 28.6178 19.0061 24.9093L12.5531 19.1755C8.37874 23.602 10.0505 24.4111 11.5816 25.7717Z" fill="#65309E"/>
<path d="M19.0077 24.9092C19.5689 24.4915 20.1821 24.0076 20.8528 23.4506L14.1965 17.5359C13.5693 18.1323 13.0239 18.6774 12.5547 19.1755L19.0077 24.9092Z" fill="#D01BCE"/>
<path d="M14.1953 17.5359L20.8515 23.4505C21.4384 22.9633 22.0654 22.4256 22.7471 21.8199C23.1179 21.4911 23.4936 21.1497 23.8723 20.8033L17.1742 14.8528C16.7844 15.1885 16.4005 15.5229 16.0294 15.8521C15.3486 16.4572 14.7431 17.0147 14.1953 17.5359Z" fill="#40388D"/>
<defs>
<linearGradient id="paint0_linear_40_2315" x1="6.61378" y1="24.6539" x2="6.61378" y2="35.5" gradientUnits="userSpaceOnUse">
<stop stop-color="#3F398C"/>
<stop offset="1" stop-color="#E616D9"/>
</linearGradient>
<linearGradient id="paint1_linear_40_2315" x1="28.5999" y1="0.5" x2="28.5999" y2="20.8032" gradientUnits="userSpaceOnUse">
<stop stop-color="#F813E1"/>
<stop offset="1" stop-color="#7E2CA9"/>
</linearGradient>
</defs>
</svg>
