<svg width="996" height="480" viewBox="0 0 996 480" fill="none" xmlns="http://www.w3.org/2000/svg">
<path d="M586.994 404.129C755.914 404.547 893.033 331.356 893.257 240.652C893.482 149.948 756.727 76.0794 587.808 75.6612C418.888 75.243 281.769 148.434 281.545 239.138C281.425 287.443 320.156 330.974 381.906 361.179C382.632 361.534 383.087 362.293 383.02 363.099C381.339 383.479 368.04 402.049 346.892 416.593C352.192 417.162 357.567 417.611 362.993 417.934C369.588 418.328 376.283 418.537 383.053 418.554C426.621 418.662 467.019 410.757 500.188 397.202C527.7 401.638 556.835 404.054 586.994 404.129Z" stroke="white" stroke-opacity="0.6" stroke-width="21" stroke-linecap="round" stroke-linejoin="round"/>
<ellipse cx="584.5" cy="239.5" rx="275.5" ry="140.5" fill="white" fill-opacity="0.6"/>
<circle cx="125" cy="244" r="125" fill="white" fill-opacity="0.6"/>
</svg>
