<svg
  xmlns="http://www.w3.org/2000/svg"
  width="32"
  height="27"
  viewBox="0 0 32 27"
  fill="none"
>
  <path
    d="M15.9531 1.11261C16.1127 1.11263 16.1723 1.18444 16.1836 1.20734L19.8877 8.79034C20.1657 9.35955 20.7474 9.68073 21.3369 9.72101L30.9502 10.3773C31.0384 10.3833 31.0911 10.409 31.1182 10.428C31.1354 10.4402 31.143 10.4533 31.1484 10.4612C31.1422 10.468 31.134 10.4787 31.1191 10.4896L23.7939 15.8323C23.2922 16.1985 23.0184 16.8261 23.1982 17.4681L25.4326 25.4456C25.4259 25.4541 25.4139 25.4704 25.3877 25.4866C25.2978 25.5422 25.1618 25.5588 25.04 25.4954L16.8096 21.2142C16.2781 20.9378 15.6271 20.9377 15.0957 21.2142L6.86523 25.4954C6.74358 25.5585 6.60829 25.5422 6.51855 25.4866C6.49182 25.4701 6.47929 25.454 6.47266 25.4456L8.70801 17.4681C8.88781 16.8262 8.61401 16.1985 8.1123 15.8323L0.787109 10.4896C0.77191 10.4785 0.763106 10.468 0.756836 10.4612C0.76221 10.4533 0.770463 10.4405 0.788086 10.428C0.815112 10.409 0.867858 10.3833 0.956055 10.3773L10.5693 9.72101C11.1588 9.68069 11.7406 9.3595 12.0186 8.79034L15.7227 1.20734C15.734 1.18437 15.7936 1.11261 15.9531 1.11261Z"
    stroke="url(#paint0_linear_62_2053)"
    stroke-width="1.5"
    stroke-linecap="round"
    stroke-linejoin="round"
  />
  <defs>
    <linearGradient
      id="paint0_linear_62_2053"
      x1="6.20996"
      y1="17.2064"
      x2="5.80639"
      y2="8.64106"
      gradientUnits="userSpaceOnUse"
    >
      <stop stop-color="#F813E1" />
      <stop offset="1" stop-color="#FFC348" />
    </linearGradient>
  </defs>
</svg>
