<svg width="333" height="102" viewBox="0 0 333 102" fill="none" xmlns="http://www.w3.org/2000/svg">
<rect width="333" height="102" rx="9" fill="white"/>
<path d="M101.452 64L105.362 35.94H96.668L97.542 29.73H121.922L121.048 35.94H112.492L108.582 64H101.452ZM115.848 64L132.224 29.73H141.7L148.508 64H141.01L139.722 57.008H127.21L123.944 64H115.848ZM130.062 50.798H138.572L135.628 34.698L137.514 34.928L130.062 50.798ZM165.961 64.552C163.569 64.552 161.392 64.1533 159.429 63.356C157.497 62.5587 155.872 61.424 154.553 59.952C153.235 58.48 152.33 56.7627 151.839 54.8L157.865 52.454C158.479 54.2633 159.506 55.7047 160.947 56.778C162.389 57.8207 164.014 58.342 165.823 58.342C166.866 58.342 167.771 58.1733 168.537 57.836C169.335 57.468 169.948 56.9773 170.377 56.364C170.837 55.7507 171.067 55.0607 171.067 54.294C171.067 53.558 170.837 52.9293 170.377 52.408C169.917 51.8867 169.166 51.4573 168.123 51.12L162.051 49.05C159.537 48.1913 157.666 47.0107 156.439 45.508C155.243 43.9747 154.645 42.104 154.645 39.896C154.645 37.872 155.182 36.0627 156.255 34.468C157.359 32.8427 158.831 31.5547 160.671 30.604C162.542 29.6533 164.643 29.178 166.973 29.178C169.151 29.178 171.113 29.546 172.861 30.282C174.64 30.9873 176.127 31.9993 177.323 33.318C178.519 34.6367 179.347 36.2007 179.807 38.01L173.827 40.356C173.337 38.792 172.463 37.5807 171.205 36.722C169.979 35.8327 168.507 35.388 166.789 35.388C165.777 35.388 164.888 35.5567 164.121 35.894C163.385 36.2007 162.803 36.6453 162.373 37.228C161.975 37.8107 161.775 38.5007 161.775 39.298C161.775 40.126 162.021 40.816 162.511 41.368C163.002 41.92 163.769 42.38 164.811 42.748L170.745 44.818C173.26 45.6767 175.131 46.842 176.357 48.314C177.615 49.786 178.243 51.6107 178.243 53.788C178.243 55.812 177.676 57.6367 176.541 59.262C175.437 60.8873 173.95 62.1753 172.079 63.126C170.239 64.0767 168.2 64.552 165.961 64.552ZM181.987 64L186.771 29.73H193.901L191.509 46.888L189.623 46.198L205.631 29.73H214.555L198.685 46.106L199.835 41.046L210.047 64H202.181L195.695 49.188L190.405 54.616L189.117 64H181.987ZM213.567 64L218.351 29.73H225.481L221.571 57.79H236.061L235.187 64H213.567ZM243.423 64L245.493 49.05L236.845 29.73H244.527L250.783 44.266H247.839L258.097 29.73H266.745L252.715 49.004L250.645 64H243.423Z" fill="url(#paint0_linear_40_2175)"/>
<path d="M56.2849 49.0181L56.1476 49.0269L50.9822 52.8705L50.9696 52.9717L51.1008 53L60.8833 49.8204L60.9413 49.7741L62.5948 46.3453L62.5691 46.2616L59.4395 43.9321L59.3203 43.9153L54.9618 45.3305L54.9059 45.3721L50.6328 52.6512L50.6707 52.7493L50.8073 52.7398L55.9719 48.8965L55.9832 48.7941C55.6438 48.4347 55.6879 47.9366 56.1186 47.6155C56.6028 47.2564 57.3845 47.2564 57.8686 47.6155C58.3504 47.9758 58.3504 48.5573 57.8686 48.9174C57.4373 49.2388 56.7679 49.271 56.2849 49.0181Z" fill="url(#paint1_linear_40_2175)"/>
<path d="M67.1738 35.7059L73.872 40.69C82.0297 34.4329 91.5848 25.1628 89.8112 23.8435C88.0392 22.5244 75.5823 29.6348 67.1738 35.7059Z" fill="url(#paint2_linear_40_2175)"/>
<path d="M61.5816 44.8517C63.1128 45.9915 64.0241 47.2356 69.0061 44.1293L62.5531 39.3267C58.3787 43.0343 60.0505 43.7121 61.5816 44.8517Z" fill="#65309E"/>
<path d="M69.0077 44.1291C69.5689 43.7792 70.1821 43.3739 70.8528 42.9073L64.1965 37.9531C63.5693 38.4527 63.0239 38.9092 62.5547 39.3265L69.0077 44.1291Z" fill="#D01BCE"/>
<path d="M64.1953 37.9531L70.8515 42.9073C71.4384 42.4992 72.0654 42.0488 72.7471 41.5415C73.1179 41.266 73.4936 40.9801 73.8723 40.6899L67.1742 35.7058C66.7844 35.987 66.4005 36.267 66.0294 36.5428C65.3486 37.0497 64.7431 37.5166 64.1953 37.9531Z" fill="#40388D"/>
<path d="M39.1756 78.8867C39.2537 78.9361 39.567 79.1172 39.7422 79.2038C39.9451 79.3078 40.1743 79.411 40.3171 79.4698C40.1323 79.4068 39.7926 79.2615 39.4173 79.0467C39.0465 78.8314 38.8399 78.6737 39.1756 78.8867ZM69.9899 78.0808C69.7359 78.1095 69.4831 78.138 69.2316 78.1661C69.9455 78.1097 70.9318 78.0178 71.607 77.9628C71.7088 77.9546 71.4466 77.9977 71.6875 77.9767C71.9288 77.9556 71.8795 77.9338 72.2317 77.8988C72.6221 77.8606 74.4617 77.706 75.1155 77.6415C77.5288 77.4064 80.1388 77.1237 82.4692 76.8882C80.0009 77.1672 82.4859 76.9265 83.1894 76.8428C83.3489 76.8234 83.2978 76.7818 85.8518 76.5181C87.4896 76.3476 85.9705 76.5844 88.7292 76.2464C86.5822 76.4331 88.7385 76.2005 90.2679 76.029C90.5369 75.9991 92.7562 75.7592 93.7566 75.6445C94.097 75.6056 94.615 75.5217 95.0706 75.4697C95.3842 75.434 95.6233 75.4211 96.0915 75.3676C98.3262 75.1124 100.341 74.8827 102.495 74.6435C101.251 74.8506 103.481 74.5599 103.585 74.5513C104.099 74.5111 101.784 74.7784 102.7 74.6858C103.978 74.539 105.268 74.3908 106.57 74.2417C105.5 74.3544 107.98 74.0268 108.448 73.9959C108.24 73.96 114.22 73.3989 115.165 73.2761C115.359 73.2507 114.086 73.3621 117.027 73.0507C117.347 73.017 117.228 73.0477 117.395 73.0277C117.496 73.0156 118.097 72.8935 118.752 72.8529C118.972 72.8403 117.535 73.0331 120.757 72.6678C119.455 72.7509 125.256 72.1512 126.355 72.0521C126.138 72.0673 125.921 72.0826 125.705 72.0978C126.775 72.0053 126.968 71.9659 127.209 71.9416C128.181 71.8437 129.536 71.7224 130.441 71.6274C131.48 71.5186 131.48 71.4831 132.699 71.3731C132.409 71.3947 132.119 71.4163 131.83 71.438C132.67 71.3542 133.512 71.2709 134.357 71.188C132.407 71.431 134.779 71.1477 134.937 71.1313C135.187 71.1046 134.829 71.1595 135.248 71.1153C135.291 71.1107 135.226 71.0989 135.873 71.0327C137.225 70.8948 137.015 70.9386 137.584 70.8825C137.636 70.8773 137.451 70.8789 138.437 70.7791C141.576 70.4637 138.421 70.7927 138.302 70.8069C138.146 70.8255 139.222 70.7872 136.565 71.0239C137.456 70.9438 137.55 70.965 137.65 70.9559C137.738 70.9476 139.287 70.793 139.374 70.7839C140.136 70.7002 139.462 70.7445 139.611 70.7266C139.729 70.7119 141.618 70.5584 142.039 70.4574C142.923 70.4314 141.541 70.5552 140.028 70.709C139.809 70.7415 141.463 70.5951 141.551 70.587C143.648 70.3894 142.482 70.4525 142.937 70.3797C143.175 70.3417 144.031 70.2941 143.24 70.3257C145.141 70.1449 143.99 70.2761 144.113 70.2682C144.299 70.2563 144.964 70.1831 145.048 70.177C145.171 70.1682 144.746 70.2216 145.23 70.1825C145.31 70.1759 146.087 70.0799 145.081 70.1598C146.424 70.0408 146.312 70.03 146.772 70.0315C147.692 69.8674 147.45 70.0189 147.816 69.9908C148.79 69.9163 148.502 69.8781 148.553 69.8704C148.904 69.8185 151.61 69.6055 152.284 69.5404C152.021 69.6081 150.135 69.7246 149.716 69.7705C148.319 69.9219 151.693 69.6219 150.681 69.7677C151.106 69.7151 151.532 69.6627 151.959 69.6105C152.746 69.5812 151.638 69.6901 153.744 69.5002C154.088 69.4392 152.254 69.6301 152.62 69.5741C152.839 69.5406 154.057 69.4358 154.077 69.4266C154.101 69.4149 153.006 69.5175 153.176 69.4889C153.558 69.424 157.536 69.1291 154.507 69.3938C155.352 69.3237 155.793 69.3501 156.526 69.2718C157.002 69.2217 154.317 69.3488 158.335 69.0457C158.423 69.0679 156.729 69.1812 156.686 69.1872C156.625 69.1954 156.936 69.2368 156.989 69.2358C157.174 69.2296 161.283 68.8756 162.161 68.8466C161.811 68.8329 165.288 68.6123 165.663 68.5764C165.762 68.5663 165.389 68.569 165.495 68.559C166.158 68.4974 167.96 68.4163 168.798 68.3628C169.734 68.3025 169.614 68.2905 169.667 68.287C170.079 68.2615 169.751 68.2964 170.003 68.2801C170.383 68.2544 173.005 68.0945 173.137 68.0847C173.176 68.0815 172.746 68.0843 173.318 68.0455C173.417 68.0391 173.355 68.0687 175.051 67.9584C177.096 67.827 173.63 68.0063 174.478 67.9289C175.793 67.8934 175.749 67.8563 176.105 67.8392C176.227 67.8335 177.153 67.8159 178.144 67.761C177.436 67.8043 176.714 67.8495 176 67.8953C176.704 67.8613 178.071 67.7797 178.645 67.7566C178.926 67.7452 178.696 67.7853 179.307 67.7529C179.437 67.7461 179.948 67.6499 178.349 67.7648C178.22 67.747 178.982 67.7227 179.335 67.6977C179.389 67.6938 179.597 67.6419 180.05 67.6445C180.159 67.6461 178.983 67.8216 182.026 67.5868C182.124 67.5794 181.782 67.5807 181.878 67.573C181.943 67.5677 182.722 67.537 182.808 67.531C182.895 67.5246 182.519 67.5258 182.623 67.5177C183.159 67.4761 183.867 67.5086 182.76 67.5547C183.13 67.5455 183.501 67.5366 183.871 67.528C183.473 67.4969 184.452 67.488 184.965 67.4646C188.25 67.317 186.049 67.3777 186.613 67.3376C187.521 67.2748 186.83 67.3854 188.179 67.308C188.304 67.3017 186.67 67.3252 189.858 67.2284C189.388 67.2465 188.917 67.2651 188.447 67.2842C188.72 67.3208 190.146 67.2188 190.255 67.2148C191.504 67.1659 190.66 67.21 192.515 67.1266C192.68 67.1193 193.042 67.1199 193.396 67.1036C194.865 67.0361 191.457 67.1472 191.363 67.1334C191.318 67.1229 194.984 67.0154 195.11 67.0193C195.645 67.0243 193.448 67.0737 193.868 67.0869C194.02 67.0858 199.246 66.9406 200.294 66.939C201.504 66.9295 202.049 66.987 202.056 66.9147C202.398 66.9806 202.7 66.9285 202.855 66.927C204.73 66.9118 204.733 66.9132 206.34 66.8958C206.694 66.8923 206.994 66.9124 207.119 66.9083C207.192 66.9058 207.056 66.8833 207.413 66.8749C207.91 66.861 210.893 66.8864 211.114 66.9023C211.336 66.9154 209.855 66.9039 210.12 66.9257C211.192 66.9299 212.219 66.9301 213.296 66.9416C213.744 66.9465 213.514 66.9591 213.707 66.9612C213.788 66.9615 215.339 66.9664 215.274 66.9607C215.11 66.9401 210.346 66.9144 211.601 66.8981C211.843 66.8942 212.7 66.9335 212.564 66.8917C216.83 66.9311 221.131 67.0297 225.379 67.1949C222.935 67.1353 220.175 67.0322 217.598 66.9889C217.245 66.9824 216.05 66.9596 216.195 66.9828C218.389 67.0199 221.109 67.072 223.202 67.1522C223.269 67.1548 223.023 67.1656 223.274 67.1764C223.743 67.1959 225.27 67.2189 225.526 67.2368C225.57 67.24 224.701 67.2332 224.964 67.2583C225.64 67.3226 225.815 67.2407 226.397 67.2644C226.847 67.2799 229.903 67.4571 230.66 67.4716C231.468 67.4818 228.415 67.346 228.641 67.3351C230.711 67.4043 232.797 67.541 234.737 67.6574C234.771 67.6595 234.475 67.6228 234.908 67.6469C235.662 67.6892 235.857 67.7286 236.223 67.7567C236.617 67.7862 238.011 67.8787 238.196 67.9021C238.219 67.9051 237.936 67.9109 237.893 67.9087C237.286 67.8767 237.072 67.8288 237.017 67.8245C236.81 67.8091 236.605 67.8084 236.415 67.795C236.103 67.7731 235.932 67.75 235.52 67.7226C235.235 67.7038 235.509 67.744 235.234 67.7257C235.134 67.7185 234.05 67.5998 233.945 67.6476C233.908 67.6365 242.812 68.2923 243.709 68.3899C242.946 68.316 242.181 68.2448 241.415 68.1762C242.971 68.3168 244.835 68.4442 244.96 68.5198C250.644 69.0487 256.476 69.7551 262.097 70.6359C263.125 70.8032 262.557 70.7513 264.245 71.0145C263.812 70.93 263.378 70.8466 262.943 70.7643C263.814 70.9032 267.62 71.5743 268.228 71.6854C268.307 71.6991 268.425 71.6815 269.368 71.8549C270.204 72.0098 270.332 72.0635 270.776 72.155C271.148 72.2319 271.568 72.3078 271.678 72.3314C271.763 72.3495 271.793 72.3726 271.996 72.4164C272.637 72.555 272.126 72.403 272.752 72.5862C272.597 72.5565 272.441 72.5269 272.285 72.4976C273.053 72.6606 274.128 72.9109 272.968 72.6826C272.772 72.6444 272.943 72.663 272.797 72.633C267.048 71.5006 271.63 72.4184 273.66 72.8212C274.187 72.9499 277.125 73.5826 277.218 73.6139C277.351 73.6515 276.847 73.556 277.498 73.7221C277.642 73.7486 281.512 74.6716 280.112 74.365C279.826 74.2992 277.969 73.8499 277.516 73.7495C278.568 74.0388 281.045 74.5695 281.317 74.6439C282.426 74.9308 279.172 74.1516 281.673 74.7858C283.589 75.2823 281.798 74.7865 282.539 74.9623C282.947 75.0555 285.127 75.6812 285.085 75.6225C285.843 75.8266 285.393 75.7291 285.486 75.7567C285.578 75.7824 287.064 76.1868 287.538 76.3378C287.596 76.3559 287.406 76.3271 287.465 76.3465C287.582 76.3824 288.999 76.7974 289.055 76.8138C289.091 76.8232 288.761 76.7007 288.901 76.7372C289.065 76.7784 290.416 77.1985 290.491 77.2168C290.601 77.2388 288.929 76.7325 289.214 76.7946C289.985 77.0333 291.238 77.4094 291.746 77.5531C291.621 77.5185 290.88 77.2837 290.623 77.2015C290.756 77.203 292.345 77.7121 291.793 77.5655C292.142 77.6619 291.91 77.5782 292.108 77.627C292.16 77.6398 292.649 77.7984 292.745 77.8235C292.758 77.8262 292.258 77.6485 292.361 77.6744C292.55 77.7196 294.024 78.2135 294.141 78.2592C294.476 78.3829 293.274 77.9894 293.168 77.9718C293.154 77.9686 294.165 78.3397 294.178 78.3482C294.23 78.3945 293.101 77.9938 293.222 78.0621C293.502 78.1608 293.781 78.2602 294.059 78.3603C292.974 78.0152 290.955 77.3535 290.419 77.2206C292.055 77.7189 293.732 78.2857 293.707 78.3477C293.697 78.3735 292.999 78.1578 293.024 78.1738C293.119 78.2311 294.087 78.5276 294.122 78.5415C294.15 78.5529 294.163 78.5588 294.163 78.5602V78.5602C294.159 78.573 292.786 78.1243 292.714 78.1096C292.595 78.0828 293.19 78.3321 293.186 78.3424C293.164 78.3368 292.182 78.0261 292.506 78.1529C292.835 78.2803 293.688 78.5661 293.717 78.5785C293.877 78.643 292.38 78.1558 292.331 78.1493C292.307 78.1445 293.104 78.4296 293.125 78.4436C293.144 78.4559 292.529 78.2665 292.282 78.2066C292.098 78.1615 292.618 78.3432 292.525 78.3153C292.46 78.2936 291.04 77.8354 290.967 77.8171C290.862 77.7876 291.191 77.9098 291.141 77.8986C291.07 77.8824 290.611 77.7311 290.669 77.7561C290.715 77.7727 292.475 78.401 292.457 78.4144C292.429 78.4321 290.568 77.7651 292.284 78.4331C292.296 78.4376 292.723 78.5698 292.734 78.5745C292.989 78.6797 291.623 78.2588 293.283 78.804C290.182 77.8189 292.888 78.7143 292.416 78.6072C292.235 78.5647 291.029 78.1841 291.022 78.1857C291.132 78.2441 291.521 78.3505 291.648 78.403C291.719 78.4312 290.633 78.1095 290.871 78.2016C290.995 78.2479 292.138 78.6132 292.184 78.6309C292.63 78.7921 292.073 78.6261 292.169 78.6683C292.233 78.6959 292.918 78.9225 292.935 78.93C292.963 78.9414 292.024 78.6611 291.826 78.608C291.676 78.5671 292.227 78.7587 292.123 78.7283C291.497 78.5434 290.182 78.0744 291.44 78.5491C291.517 78.578 292 78.7326 292.014 78.7382C292.305 78.8538 291.418 78.5672 291.253 78.5323C290.972 78.4712 292.254 78.8669 291.185 78.5444C291.977 78.8175 292.42 78.9609 293.345 79.2657C290.777 78.4285 289.838 78.2128 292.697 79.1389C291.792 78.8389 291.878 78.9123 291.607 78.8248C291.439 78.7693 290.126 78.3108 290.706 78.5902C290.779 78.6248 291.587 78.8681 291.328 78.8098C289.4 78.1906 291.284 78.8098 291.284 78.8144C291.255 78.8434 286.51 77.3509 285.661 77.1405C284.694 76.8758 283.818 76.6845 283.606 76.6279C282.928 76.4469 283.496 76.5762 283.347 76.5281C283.197 76.4772 281.253 76.0157 281.154 75.9913C280.78 75.8875 281.168 75.9592 281.129 75.9481C280.671 75.8108 278.037 75.1923 277.292 75.0203C277.312 75.0407 278.798 75.3903 277.864 75.1987C276.776 74.9773 276.728 74.8943 276.7 74.8842C271.646 73.7398 266.804 72.8378 261.688 72.0444C261.743 72.0866 265.062 72.5949 265.132 72.6177C265.569 72.7091 259.99 71.8139 259.333 71.7225C259.847 71.8054 260.359 71.8898 260.87 71.9757C259.99 71.8859 258.053 71.547 256.77 71.3956C256.356 71.3462 257.147 71.4703 257.13 71.4695C256.664 71.4232 255.92 71.3111 256.481 71.3623C255.342 71.2337 255.511 71.2316 254.637 71.1181C254.592 71.1124 254.966 71.1775 254.272 71.0977C253.949 71.059 252.213 70.8494 251.977 70.8391C251.881 70.8343 252.754 71.0077 252.87 70.9614C254.753 71.2203 253.476 71.0075 254.208 71.0993C254.32 71.1147 254.06 71.1112 255.898 71.3344C255.543 71.3464 253.429 71.0341 253.062 70.9994C252.31 70.9216 255.399 71.333 255.967 71.3653C255.697 71.3776 256.185 71.3997 256.868 71.4941C257.617 71.598 257.288 71.5676 257.693 71.6234C258.798 71.7782 258.345 71.6808 259.249 71.8409C258.378 71.6203 260.805 72.0542 261.506 72.1903C260.355 72.0178 259.2 71.8528 258.039 71.6952C258.105 71.7093 258.17 71.7234 258.236 71.7376C257.931 71.6939 257.625 71.6507 257.319 71.6081C257.369 71.6102 257.418 71.6123 257.468 71.6144C255.885 71.4285 255.5 71.348 255.371 71.3301C253.708 71.1101 251.765 70.8779 250.072 70.6919C249.82 70.6652 249.992 70.7102 248.162 70.4945C247.578 70.4268 248.133 70.4597 247.469 70.3957C246.631 70.3761 246.652 70.3274 246.404 70.3029C245.694 70.2337 245.257 70.2093 245.192 70.2032C244.312 70.123 243.021 70.0056 242.049 69.9272C242.031 69.9259 242.535 69.9879 241.904 69.9294C241.686 69.9085 239.689 69.6602 237.957 69.5662C238.403 69.6036 238.855 69.6424 239.309 69.6822C238.763 69.6276 235.081 69.4008 235.98 69.4845C236.534 69.5337 237.889 69.5732 238.033 69.6365C236.816 69.5156 229.985 69.1471 229.444 69.1248C229.37 69.1195 229.826 69.1243 229.724 69.1172C229.645 69.111 228.072 69.043 227.863 69.0283C227.739 69.0189 228.435 69.0389 228.379 69.0305C228.331 69.0228 226.357 68.9329 226.252 68.9514C226.728 68.9607 228.092 69.0259 227.377 69.0137C227.286 69.012 226.811 68.9788 226.7 68.9773C225.666 68.961 228.753 69.0813 229.228 69.1071C227.283 69.0414 224.318 68.896 222.085 68.8515C221.183 68.8077 223.423 68.8637 222.403 68.8189C220.286 68.7287 221.839 68.8273 221.773 68.8276C221.247 68.8296 219.455 68.6905 219.452 68.7641C218.683 68.7363 218.932 68.7318 217.845 68.7203C217.988 68.728 218.131 68.7358 218.274 68.7437C217.067 68.7598 214.51 68.6199 214.701 68.6151C215.218 68.5988 216.55 68.6523 216.663 68.6538C216.831 68.6559 217.299 68.5865 219.137 68.6915C219.892 68.6562 216.221 68.601 217.892 68.5989C216.761 68.5763 212.124 68.4918 211.462 68.5163C211.382 68.5189 211.752 68.5692 210.609 68.5401C210.066 68.5264 211.375 68.5301 211.127 68.5181C210.368 68.4538 199.944 68.5539 197.973 68.627C197.844 68.6298 197.891 68.6135 197.765 68.6164C197.378 68.6249 195.966 68.6811 195.273 68.6928C196.71 68.6837 193.921 68.7584 193.211 68.7783C192.135 68.8061 192.2 68.7777 191.735 68.7868C189.944 68.8212 187.161 68.9913 185.766 68.9913C185.845 69.0467 183.355 69.0656 182.226 69.1201C181.341 69.1615 180.061 69.2649 181.255 69.2299C179.726 69.3018 178.133 69.3965 176.69 69.4803C176.452 69.4941 176.779 69.4583 176.373 69.4825C176.336 69.4849 176.286 69.5048 175.938 69.5263C173.067 69.7063 174.463 69.5901 173.925 69.6105C173.624 69.6223 173.402 69.6326 173.239 69.6414C174.911 69.5368 176.844 69.4226 177.361 69.3942C176.917 69.3785 173.648 69.6109 172.693 69.6609C172.66 69.6626 172.774 69.6346 172.74 69.6365C172.739 69.6366 172.739 69.6366 172.738 69.6367C172.379 69.656 170.101 69.8073 170.572 69.8028C170.698 69.8015 171.746 69.7345 172.992 69.6568C172.655 69.682 172.908 69.6901 172.849 69.6948C172.128 69.7496 170.362 69.8378 169.737 69.8757C169.594 69.8843 169.605 69.8987 169.582 69.9002C169.013 69.9339 169.243 69.8757 168.664 69.9584C167.631 69.9726 170.591 69.824 170.381 69.8038C170.216 69.7809 163.658 70.2439 163.665 70.2918C163.642 70.2889 163.55 70.2899 163.363 70.2971C162.948 70.3125 161.111 70.4534 160.796 70.4856C160.743 70.4911 160.767 70.5303 160.701 70.5357C160.535 70.5487 158.294 70.6889 157.463 70.78C157.914 70.75 158.365 70.7203 158.816 70.6909C156.096 70.9049 156.519 70.8856 157.425 70.8252C157.47 70.8217 157.514 70.8197 157.557 70.8165C158.26 70.7697 159.162 70.7084 159.176 70.7106C159.225 70.7165 154.62 71.0921 155.503 70.9838C155.625 70.9681 157.758 70.814 156.7 70.8716C156.515 70.8814 155.149 71.0001 155.077 71.0032C154.595 71.022 157.578 70.7542 157.212 70.756C156.488 70.8406 155.557 70.9017 154.728 70.9769C154.351 71.0111 154.26 71.0393 154.214 71.0435C153.519 71.1065 153.907 71.0527 153.675 71.0725C153.55 71.0831 152.16 71.2462 152.419 71.1611C147.846 71.6011 151.156 71.3117 153.962 71.0746C153.086 71.1701 151.334 71.3078 150.558 71.3807C150.279 71.4069 150.446 71.4134 149.975 71.4587C148.999 71.5497 144.388 71.9413 143.202 72.0489C143.933 71.9733 143.717 71.9703 143.152 72.0246C142.587 72.079 143.064 72.0652 142.955 72.0787C142.85 72.0912 140.153 72.3321 139.703 72.3803C141.735 72.1745 141.273 72.1954 139.549 72.3586C139.797 72.328 140.046 72.2975 140.295 72.2671C139.283 72.3728 137.165 72.5445 136.587 72.6124C136.497 72.623 136.825 72.6099 136.774 72.6159C136.265 72.6739 134.54 72.8262 134.462 72.8409C134.394 72.8532 135.13 72.7958 134.858 72.8309C134.801 72.8383 134.091 72.8832 133.397 72.9598C133.14 72.9882 133.297 72.9906 133.232 72.9982C132.692 73.0617 133.007 72.9987 132.022 73.104C131.294 73.182 130.79 73.2637 129.753 73.361C133.059 73.0591 130.308 73.3251 128.889 73.4848C128.665 73.51 128.859 73.5226 127.52 73.6466C130.362 73.2895 126.702 73.6999 125.963 73.7783C125.922 73.7824 125.906 73.7622 125.541 73.8005C125.51 73.8038 125.556 73.8137 125.218 73.8508C122.019 74.2026 124.064 73.9679 123.455 74.0183C123.195 74.0398 121.652 74.227 121.238 74.2724C121.143 74.2828 121.185 74.2628 120.817 74.3034C120.162 74.3755 119.596 74.4537 119.149 74.5037C119.098 74.5095 119.092 74.4857 118.252 74.5856C118.017 74.6136 117.753 74.6512 118.089 74.6213C119.232 74.5186 121.241 74.2603 122.478 74.1501C123.598 74.0502 120.075 74.4324 119.899 74.4525C119.832 74.4599 120.514 74.3735 119.82 74.4468C119.24 74.508 118.097 74.6749 117.193 74.7653C117.124 74.7723 116.395 74.8171 116.428 74.8113C116.458 74.8065 117.572 74.6761 117.409 74.6837C117.389 74.6847 116.681 74.763 116.588 74.7656C116.474 74.7689 116.159 74.7121 116.008 74.7264C115.621 74.7636 115.875 74.7564 115.625 74.7826C115.087 74.8389 113.238 75.0176 113.183 75.0555C113.487 75.0235 113.792 74.9914 114.097 74.9594C112.402 75.1513 113.127 75.0842 112.888 75.1168C112.631 75.1519 112.7 75.1163 112.132 75.1771C112.005 75.1905 109.645 75.4611 109.691 75.4677C110.991 75.3031 110.513 75.3913 110.573 75.3852C110.801 75.3618 111.092 75.3099 111.399 75.2758C113.569 75.0362 111.384 75.3111 111.897 75.2615C112.074 75.2444 112.423 75.1888 112.499 75.1812C112.743 75.1567 112.749 75.1776 112.912 75.1577C113.291 75.1113 112.844 75.1306 112.874 75.1257C113.21 75.0689 114.549 74.9438 113.721 75.0692C114.222 75.0255 114.276 74.9791 114.674 74.951C115.468 74.8949 114.283 75.0181 113.965 75.0589C112.823 75.2053 112.48 75.2279 110.878 75.4128C110.301 75.4794 109.623 75.5752 109.358 75.6061C109.208 75.6235 107.555 75.7415 107.518 75.8527C106.878 75.9146 105.873 75.9577 105.223 76.0345C104.639 76.1035 104.829 76.1199 104.775 76.1275C104.691 76.1392 103.987 76.216 103.75 76.2481C103.473 76.2858 103.613 76.2844 103.174 76.3401C102.082 76.4784 102.108 76.4368 101.996 76.447C100.696 76.5653 101.271 76.5551 100.984 76.592C100.732 76.6248 96.9553 77.0311 96.1202 77.1389C96.4489 77.0941 96.7787 77.0492 97.1094 77.0041C96.5131 77.0473 95.8931 77.1565 95.8773 77.1151C95.7645 77.1976 94.5482 77.2878 94.1884 77.33C94.0461 77.3467 94.0585 77.3572 93.8806 77.3777C93.1835 77.4581 91.6318 77.6219 91.2638 77.6687C89.6615 77.8731 93.7733 77.4582 94.1163 77.4216C93.4465 77.4967 89.7901 77.9194 91.4751 77.7654C91.7354 77.7416 92.1943 77.6591 92.3412 77.6415C93.3358 77.5223 92.5559 77.6375 92.6342 77.6314C92.767 77.6208 93.4213 77.5206 93.5961 77.5042C93.6547 77.4986 93.282 77.5658 94.2403 77.4588C93.7647 77.5371 91.0972 77.8151 90.758 77.8581C90.6375 77.8734 91.4048 77.8414 89.1604 78.0385C89.1868 78.0404 89.2132 78.0424 89.2396 78.0444C87.9454 78.1892 86.6098 78.3372 85.324 78.4779C85.4631 78.4517 86.1873 78.3509 85.2732 78.4544C84.7483 78.5137 85.1395 78.4966 85.0916 78.5024C84.6297 78.5662 76.3265 79.4229 74.7141 79.5678C74.169 79.6215 72.6854 79.7802 72.5757 79.7902C71.9838 79.8487 69.3291 80.0698 68.8616 80.1098C68.5502 80.1377 68.8479 80.1336 68.5699 80.1559C68.312 80.1764 68.5774 80.1342 68.5008 80.1397C67.8195 80.1962 63.2448 80.57 61.9606 80.6202C62.3071 80.602 63.4165 80.5221 64.3731 80.4425C65.2675 80.368 66.0952 80.2905 66.0605 80.2861C66.0446 80.2856 65.2285 80.3317 65.0639 80.351C64.7941 80.3536 63.8406 80.4749 63.254 80.5034C63.1918 80.5061 63.434 80.4614 62.4418 80.5203C62.1007 80.5404 61.2161 80.619 60.3516 80.6402C59.2246 80.7531 52.3611 80.9092 52.0634 80.8923C52.0485 80.8947 52.9359 80.9052 52.3364 80.9186C51.5333 80.9334 52.2977 80.8798 51.3018 80.8661C51.1046 80.876 48.2871 80.7911 48.2349 80.7772C47.4173 80.7688 49.7765 80.8989 49.767 80.8926C49.6618 80.9063 47.6906 80.8185 47.633 80.8042C47.5592 80.7975 49.1086 80.8522 47.2549 80.7484C47.4627 80.7689 47.6736 80.7883 47.8874 80.8066C47.013 80.7609 46.9479 80.7196 46.7429 80.7018C46.0237 80.6341 45.1479 80.5952 44.0768 80.3667C43.7931 80.3052 44.2709 80.366 44.2362 80.3576C43.8923 80.2835 43.45 80.263 42.9795 80.1232C42.9612 80.1182 43.234 80.167 43.2671 80.1665C43.2836 80.1663 43.2379 80.1548 43.0674 80.1175C42.9823 80.0989 42.8663 80.0736 42.7142 80.0389C42.5483 80.0012 42.2742 79.9368 41.9838 79.8586C42.1458 79.9061 42.3116 79.9519 42.4811 79.996C42.0604 79.9558 39.888 79.2044 39.7115 79.0343C38.8021 78.503 39.5784 78.9671 38.7252 78.3697C38.9838 78.5816 38.4438 78.2413 38.0227 77.7384C37.6 77.2844 37.3093 76.4544 37.3705 76.5566C37.2653 76.3805 37.048 75.4245 37.2117 74.628C37.3266 73.8801 37.7019 73.0143 38.0226 72.4348C38.3553 71.792 39.05 70.7946 39.216 70.5915C39.383 70.3795 39.3488 70.4638 39.6694 70.0762C39.7165 70.0204 39.9702 69.6984 40.3716 69.2445C40.7152 68.856 41.0776 68.4711 41.4997 68.0606C41.6585 67.9056 42.0323 67.5999 41.7418 67.9077C41.2194 68.4546 40.4238 69.2737 40.3741 69.3783C40.4774 69.2921 41.5619 68.1017 41.9627 67.7239C43.6876 66.0773 42.7285 67.0559 42.7698 67.024C42.8922 66.9337 43.9186 65.9895 43.9758 65.9463C44.1648 65.788 43.4266 66.48 43.431 66.4983C43.4208 66.5282 44.4726 65.6277 44.2438 65.8424C43.8972 66.1576 42.9815 66.9667 42.9352 67.0163C42.2449 67.6988 43.231 66.8155 43.5385 66.5671C43.6279 66.4934 43.2962 66.8141 43.3682 66.7503C44.4813 65.7713 43.5477 66.4989 44.3061 65.8261C44.8668 65.3376 44.174 65.9874 44.1599 66.0036C44.2475 65.9258 44.8703 65.3798 44.9882 65.2927C45.0019 65.2826 44.9062 65.371 44.7598 65.5072C44.6036 65.6522 44.4527 65.7951 44.1755 66.0546C43.6783 66.522 43.2312 66.9689 43.2799 66.9402C43.895 66.3574 44.5871 65.7367 45.0824 65.3019C45.1146 65.2954 44.9282 65.4591 44.7299 65.6309C44.6307 65.7169 44.5283 65.805 44.4464 65.8759C44.3479 65.9614 44.2627 66.0363 44.2395 66.0582C44.0458 66.2398 44.609 65.7601 44.5677 65.8112C44.5962 65.7938 43.9578 66.3927 44.5336 65.8936C44.697 65.7541 45.0147 65.4413 45.6597 64.9232C43.5582 66.779 45.0355 65.5238 45.1008 65.4805C45.1686 65.4367 44.185 66.327 45.4014 65.2656C45.4971 65.2665 45.3844 65.305 45.0461 65.6134C44.8405 65.8017 44.9839 65.6881 44.9853 65.6933C44.9862 65.6958 44.951 65.7283 44.8212 65.8421C44.7534 65.9017 44.6782 65.9672 44.5413 66.0874C44.3886 66.2218 44.1982 66.3901 43.9667 66.598C43.9979 66.5796 44.1133 66.4817 44.2744 66.3424C44.4366 66.2019 44.646 66.0196 44.7938 65.892C45.1172 65.6118 45.4526 65.3243 45.4872 65.2961C45.5465 65.248 45.2742 65.5012 45.3778 65.4186C46.6223 64.4319 45.7753 65.1198 46.1528 64.8474C46.1791 64.8263 47.4014 63.8324 46.4825 64.6003C45.656 65.2951 45.1185 65.7549 44.7493 66.0831C44.3209 66.4643 44.0337 66.7432 43.9212 66.9068C44.657 66.259 45.2283 65.7567 45.7723 65.2795C46.3107 64.8077 46.7774 64.4043 46.9691 64.2461C47.5607 63.7601 46.9577 64.2769 47.0344 64.2208C47.0588 64.2022 47.5744 63.7806 47.5841 63.7752C47.9669 63.5421 45.3325 65.622 44.675 66.249C44.8922 66.0698 45.0769 65.9215 45.284 65.7551C45.0055 65.9978 44.7998 66.1783 44.4364 66.5046C45.8191 65.3084 44.5533 66.4026 44.151 66.8472C44.0736 66.9338 45.0571 66.0129 43.9467 67.0689C44.7614 66.3366 44.6063 66.495 45.1992 65.9524C45.2959 65.8879 43.545 67.4821 42.9954 68.0525C45.1767 66.0329 44.0817 66.941 45.8034 65.4899C46.1141 65.1878 45.2743 65.9151 45.3434 65.8513C45.5734 65.63 46.1599 65.1574 46.88 64.4895C46.9986 64.3801 46.4533 64.7907 47.2339 64.1515C47.3192 64.0813 47.8474 63.6855 47.8428 63.692C47.7841 63.7632 47.2755 64.1667 47.2617 64.1889C47.2453 64.2113 47.8047 63.7515 47.8101 63.7506C47.8413 63.7559 47.3441 64.1397 47.4202 64.0878C47.5805 63.9778 49.6547 62.3691 46.9984 64.5017C49.1722 62.7026 47.2225 64.2708 46.4432 64.9419C46.2421 65.114 46.1994 65.1684 45.9218 65.411C45.5647 65.7232 45.1588 66.0682 44.9875 66.2231C44.8949 66.3067 45.12 66.1206 45.1764 66.0815C45.2044 66.0621 45.1888 66.08 45.0698 66.187C45.0049 66.2453 44.9435 66.2999 44.7922 66.4341C44.6408 66.5688 44.4489 66.7397 44.2137 66.9523C45.2714 66.0311 46.5052 64.9409 47.4925 64.1699C49.3753 62.7092 46.2359 65.2601 46.0088 65.4857C45.9312 65.5534 46.2068 65.3446 46.1553 65.3899C46.0548 65.4691 44.525 66.7905 44.2673 67.0592C44.0897 67.2407 44.961 66.4311 45.0043 66.4188C45.0441 66.3793 42.9043 68.3853 44.0621 67.3221C44.9848 66.4728 46.1165 65.4514 46.4171 65.2637C45.8673 65.7296 45.3999 66.1354 44.8544 66.6236C44.228 67.1845 43.6501 67.7241 43.1199 68.2429C43.711 67.6933 44.3788 67.1013 45.0633 66.5205C43.6699 67.7637 42.6129 68.7647 41.7015 69.7936C44.1008 67.3753 41.0464 70.5081 40.8652 70.8331C40.8609 70.842 41.1189 70.5484 41.4357 70.2127C41.7238 69.9087 41.9568 69.6817 42.0427 69.5966C41.7351 69.9228 40.6528 71.1625 40.2193 71.8066C39.7611 72.4728 39.5839 72.7786 40.2027 71.9301C39.9433 72.253 39.5308 72.9905 39.5486 72.9768C39.584 72.9398 39.8229 72.5354 40.1029 72.14C40.3771 71.7475 40.6764 71.3732 40.5727 71.5252C40.3385 71.8742 39.9834 72.3022 39.7089 72.7579C38.8687 74.1898 38.9058 74.7109 38.8782 75.0975C38.908 75.6037 38.8106 76.0705 39.67 76.9C39.6341 76.8622 39.6002 76.8245 39.5683 76.7868C41.7649 78.6679 46.2662 78.8767 49.5071 79.0428C51.1331 79.0752 54.6049 79.0271 56.6749 78.9473C57.1538 78.9339 58.8486 78.8813 59.0059 78.8757C59.254 78.8717 57.8873 78.9382 58.5047 78.9235C58.6108 78.9276 61.7266 78.7658 61.5165 78.7505C61.1552 78.7705 60.0568 78.8442 59.8818 78.8473C58.6007 78.9121 68.294 78.2899 68.775 78.1965C68.557 78.2072 68.3399 78.2177 68.1238 78.2279C68.738 78.181 69.3601 78.1319 69.9899 78.0808ZM41.6956 79.8753C41.2749 79.7874 40.3448 79.4429 39.8709 79.2065C39.7836 79.1652 39.707 79.1295 39.5947 79.0733C39.4693 79.01 39.3429 78.9424 39.2212 78.8726C38.9775 78.7335 38.7538 78.5843 38.583 78.4542C38.2436 78.1916 38.0966 78.0275 38.369 78.2275C39.5123 79.1983 40.4816 79.5082 41.6956 79.8753ZM58.1393 80.8154C57.4344 80.8325 57.9748 80.76 58.5605 80.7543C58.6263 80.7534 59.1021 80.7893 58.1393 80.8154ZM50.2504 80.9035C50.2816 80.9043 50.972 80.9193 50.9983 80.9198C51.6175 80.9523 49.539 80.9059 50.2504 80.9035ZM87.8844 78.1544C87.0503 78.2479 87.6584 78.2278 88.177 78.1518C88.2096 78.1471 87.9393 78.1483 87.8844 78.1544ZM87.2911 78.2181C86.6389 78.248 85.3601 78.4706 86.3848 78.351C86.4836 78.3395 87.3207 78.217 87.2911 78.2181ZM55.4205 80.8909C55.5048 80.8734 56.3041 80.858 56.6546 80.849C56.6438 80.8643 55.7491 80.8814 55.4205 80.8909ZM74.8543 79.5343C74.8767 79.5209 72.2853 79.7652 72.1229 79.7949C72.516 79.7534 74.8186 79.5499 74.8543 79.5343ZM81.6836 78.8284C81.6169 78.8334 80.7275 78.9294 80.7553 78.9374C81.1888 78.907 81.9801 78.8071 81.6836 78.8284ZM95.1546 77.3544C95.2054 77.3459 94.5028 77.3549 96.1505 77.2155C96.3927 77.1949 95.5324 77.3102 95.6187 77.303C95.7986 77.2877 95.9408 77.274 96.055 77.2615C95.289 77.3537 94.501 77.445 94.4244 77.4493C94.0639 77.4697 95.1317 77.3582 95.1546 77.3544ZM102.229 76.5021C102.382 76.4734 103.372 76.3673 103.599 76.3463C103.638 76.3428 103.472 76.3917 103.92 76.3388C104.28 76.2962 103.738 76.3266 104.44 76.252C105.151 76.1765 104.205 76.3057 104.267 76.3002C104.35 76.2929 105.449 76.1546 105.417 76.1762C105.392 76.1922 104.212 76.3168 103.923 76.3524C103.553 76.398 104.005 76.3689 103.385 76.4344C102.995 76.4755 103.207 76.4127 103.124 76.42C103.054 76.4264 101.704 76.6018 102.232 76.502C102.231 76.5021 102.23 76.5021 102.229 76.5021ZM96.2622 77.2364C96.2046 77.2442 96.1369 77.2525 96.055 77.2615C96.1244 77.2531 96.1937 77.2447 96.2622 77.2364ZM43.878 80.3425C44.2527 80.4188 43.1286 80.2436 42.7529 80.1363C42.7393 80.1268 43.8076 80.335 43.878 80.3425ZM96.9717 77.1247C98.1199 77.0047 97.2746 77.1137 96.2622 77.2364C96.5832 77.1929 96.5872 77.1648 96.9717 77.1247ZM65.0639 80.351C65.1098 80.3505 65.1391 80.3529 65.1433 80.36C65.0225 80.3607 65.0116 80.3572 65.0639 80.351ZM67.6402 80.1651C68.5379 80.0698 66.7117 80.2184 66.7293 80.2322C66.7339 80.2382 67.603 80.1693 67.6402 80.1651ZM88.9609 78.0384C88.8707 78.0461 90.1603 77.8357 88.2784 78.0942C89.2997 77.9899 88.2235 78.1157 88.2405 78.1198C88.3036 78.1303 89.9447 77.9328 90.2973 77.901C90.5736 77.8396 89.2266 78.0165 88.9631 78.0381C88.9623 78.0382 88.9616 78.0383 88.9609 78.0384ZM114.985 75.084C114.761 75.1268 114.046 75.2005 113.566 75.2529C113.788 75.2101 114.502 75.1365 114.985 75.084ZM241.29 69.8847C237.97 69.64 237.541 69.5403 240.581 69.8002C240.64 69.8052 241.492 69.8935 241.29 69.8847ZM212.899 68.6656C212.587 68.6313 213.618 68.634 214.294 68.6548C214.446 68.6594 215.016 68.6982 214.366 68.6971C214.388 68.6586 213.388 68.6335 212.899 68.6656ZM97.6175 77.0312C97.9541 76.9718 98.975 76.8715 99.4822 76.8173C99.1748 76.8697 98.1076 76.9825 97.6175 77.0312ZM230.44 69.1395C230.091 69.1196 229.854 69.136 229.914 69.1412C230.183 69.1647 230.838 69.1752 230.44 69.1395ZM94.3256 77.3989C94.2768 77.3916 95.6174 77.2285 95.7163 77.2489C95.4267 77.2793 94.3588 77.4032 94.3256 77.3989ZM114.075 75.1755C113.867 75.1921 114.938 75.0615 115.264 75.0318C115.239 75.0481 114.21 75.1646 114.075 75.1755ZM224.817 68.9095C224.506 68.8958 223.728 68.869 223.641 68.8776C223.534 68.8878 224.675 68.9213 224.817 68.9095ZM282.309 76.4091C282.346 76.4232 281.181 76.1601 280.666 76.023C279.689 75.7596 282.273 76.3912 282.309 76.4091ZM233.741 69.3048C234.722 69.3895 233.633 69.299 233.674 69.3294C234.336 69.3684 235.976 69.4736 234.85 69.3755C234.63 69.3565 234.049 69.3246 233.741 69.3048ZM232.835 69.2432C232.729 69.2461 232.018 69.2351 232.631 69.2671C232.915 69.2819 233.373 69.2766 232.835 69.2432ZM275.045 74.688C274.185 74.4692 278.149 75.3696 278.254 75.4094C278.313 75.4257 278.352 75.4371 278.374 75.4441C278.52 75.4703 279.261 75.6466 279.342 75.6868C279.121 75.6312 278.514 75.488 278.443 75.4693C278.413 75.4612 278.391 75.455 278.375 75.4504C278.114 75.4 275.214 74.7241 275.045 74.688ZM268.494 73.3426C269.49 73.491 269.652 73.5865 269.567 73.5719C268.488 73.3934 269.197 73.4814 269.164 73.4729C269.09 73.455 268.321 73.3333 268.497 73.3432C268.496 73.343 268.495 73.3428 268.494 73.3426ZM273.691 74.387C273.732 74.3945 274.569 74.5751 274.603 74.5839C275.285 74.7507 272.917 74.2401 273.691 74.387ZM107.592 75.852C108.21 75.7884 107.606 75.8793 107.196 75.9174C107.163 75.9204 107.048 75.908 107.592 75.852ZM232.35 69.2223C232.212 69.206 228.604 69.0107 228.818 69.0583C229.128 69.0626 233.223 69.2945 232.35 69.2223ZM205.415 68.6205C206.051 68.6162 205.358 68.6533 205.018 68.6442C204.892 68.6408 205.254 68.6216 205.415 68.6205ZM92.53 77.5706C91.8805 77.6609 92.0083 77.5868 92.5757 77.5439C92.598 77.5423 92.5555 77.567 92.53 77.5706ZM210.494 68.6266C208.303 68.644 208.823 68.5372 211.67 68.583C211.581 68.5871 211.492 68.5912 211.403 68.5954C214.687 68.6316 211.628 68.6016 210.823 68.606C210.517 68.6071 210.774 68.625 210.497 68.6267C210.496 68.6266 210.495 68.6266 210.494 68.6266ZM202.067 68.6548C199.954 68.6128 203.988 68.6005 205.147 68.5859C204.025 68.625 202.563 68.637 204.551 68.6472C201.645 68.6838 202.854 68.6436 202.738 68.6417C202.601 68.6407 202.156 68.6566 202.067 68.6548ZM207.643 68.6062C207.765 68.6035 208.685 68.6163 209.016 68.614C208.553 68.6382 206.832 68.6232 207.643 68.6062ZM261.535 72.1804C261.612 72.1728 261.798 72.1862 262.522 72.3079C262.299 72.2824 261.826 72.2169 261.535 72.1804ZM40.9919 79.5449C40.471 79.3771 39.6106 78.9424 39.8688 79.0907C39.8784 79.1177 40.9689 79.565 40.9919 79.5449ZM221.888 68.7737C221.783 68.7662 219.035 68.697 219.984 68.7417C220.271 68.753 222.768 68.8192 221.888 68.7737ZM236.1 69.4351C235.872 69.4196 234.942 69.3643 234.922 69.3679C234.858 69.3795 235.999 69.4433 236.1 69.4351ZM38.5502 78.1965C38.5204 78.1708 38.1635 77.8586 37.9134 77.5153C37.661 77.1912 37.4695 76.7473 37.5134 76.8575C37.5515 76.9524 37.6306 77.1189 37.7455 77.2999C37.8485 77.4638 37.9804 77.6369 38.1152 77.7863C38.3835 78.0854 38.6525 78.2852 38.5502 78.1965ZM109.792 75.5584C109.916 75.5437 110.084 75.5461 110.127 75.5415C110.226 75.5305 112.526 75.2648 111.65 75.3902C111.491 75.4122 108.234 75.7677 107.745 75.8205C107.568 75.8112 109.04 75.6731 109.362 75.6339C109.422 75.6266 109.457 75.5982 109.791 75.5587C109.791 75.5586 109.791 75.5585 109.792 75.5584ZM265.291 72.7693C265.399 72.7648 268.104 73.232 268.066 73.2516C267.145 73.0856 266.22 72.9249 265.291 72.7693ZM263.909 72.5348C263.33 72.4263 264.693 72.6459 265.092 72.7205C265.094 72.7329 263.994 72.55 263.909 72.5348ZM230.912 69.0636C230.636 69.0539 231.483 69.1245 231.293 69.1199C231.171 69.1167 230.555 69.0751 230.358 69.0739C230.302 69.0737 230.93 69.1305 231.112 69.139C231.37 69.151 231.121 69.118 231.402 69.1326C232.338 69.1814 233.166 69.2423 234.04 69.2941C234.119 69.2988 233.508 69.2482 234.181 69.2886C234.285 69.2949 234.909 69.3532 235.713 69.402C237.491 69.4532 238.783 69.6064 241.062 69.7646C240.978 69.7506 239.279 69.6024 239.178 69.5954C237.288 69.4398 233.928 69.2228 231.941 69.119C231.432 69.0917 231.678 69.1186 231.459 69.1075C231.286 69.0988 231.493 69.084 230.912 69.0636ZM41.268 79.6231C41.0207 79.5227 40.1968 79.2341 39.7541 78.992C39.894 79.101 40.7156 79.4497 41.268 79.6231ZM251.711 70.8146C251.443 70.7842 250.613 70.6825 250.543 70.6827C250.454 70.6822 251.653 70.8246 251.711 70.8146ZM122.879 74.1226C122.905 74.1191 123.542 74.0521 123.566 74.0503C124.138 74.0094 122.226 74.2105 122.879 74.1226ZM138.218 72.5502C138.707 72.4995 139.2 72.4438 139.367 72.4484C139.054 72.4753 138.162 72.5701 138.218 72.5502ZM159.404 70.6865C159.301 70.6672 160.769 70.5722 161.047 70.554C160.945 70.5735 159.479 70.6999 159.404 70.6865ZM261.444 72.0809C262.324 72.2186 262.153 72.1511 262.716 72.2588C262.808 72.2769 263.095 72.4076 262.115 72.221C261.941 72.1883 262.627 72.2739 261.444 72.0809ZM212.134 68.5865C212.362 68.57 213.074 68.5803 213.556 68.5864C213.448 68.5984 212.477 68.587 212.134 68.5865ZM37.2287 75.1699C37.2524 74.8361 37.3309 74.321 37.5034 73.7945C37.6661 73.2892 37.8616 72.8826 37.7323 73.1416C37.7149 73.1784 37.5234 73.6162 37.4046 74.0645C37.2779 74.5269 37.2382 74.9304 37.2287 75.1699ZM99.8765 76.6938C100.655 76.5856 99.0387 76.7625 98.53 76.8396C98.7644 76.8118 99.8224 76.7012 99.8765 76.6938ZM154.331 71.0777C154.369 71.0737 155.211 71.0064 155.249 71.0044C155.94 70.9683 153.559 71.1589 154.331 71.0777ZM133.177 73.0184C133.476 72.9713 135.473 72.7842 135.925 72.7562C135.492 72.8223 132.802 73.0763 133.177 73.0184ZM257.816 71.5618C258.448 71.6488 259.045 71.7392 259.622 71.8306C259.499 71.8252 257.883 71.5801 257.816 71.5618ZM157.425 70.8252C157.47 70.8217 157.514 70.8197 157.557 70.8165C157.512 70.8195 157.468 70.8223 157.425 70.8252ZM243.581 69.9467C243.046 69.8942 243.155 69.9293 243.188 69.9328C243.59 69.976 244.186 70.0067 243.581 69.9467ZM40.6666 79.3705C40.4629 79.2673 39.7459 79.0046 39.1193 78.5763C39.1746 78.6274 39.5526 78.8676 39.8415 79.0093C40.1241 79.1536 40.4636 79.2942 40.6666 79.3705ZM199.805 68.6447C199.131 68.6316 201.874 68.5554 202.453 68.5656C202.495 68.5788 199.905 68.6447 199.805 68.6447ZM97.3976 76.9399C97.3397 76.9286 96.1731 77.0819 96.4225 77.0622C96.5795 77.0499 97.4312 76.9473 97.3976 76.9399ZM203.836 68.5594C204.094 68.5512 204.696 68.5631 204.485 68.5758C204.213 68.592 203.769 68.5617 203.836 68.5594ZM226.964 68.8663C226.845 68.858 225.34 68.8183 225.962 68.8604C226.394 68.8896 226.463 68.8668 226.565 68.8707C226.679 68.8742 229.123 69.0092 226.964 68.8663ZM184.43 69.1145C185.002 69.0824 185.694 69.0608 186.293 69.0356C186.049 69.0563 184.674 69.118 184.43 69.1145ZM101.793 76.4376C101.647 76.4469 97.9528 76.861 100.053 76.6454C100.173 76.6331 102.21 76.4123 101.793 76.4376ZM261.444 72.0809C261.334 72.0637 261.206 72.0433 261.058 72.019C261.205 72.0421 261.333 72.0629 261.444 72.0809ZM251.354 70.7291C251.563 70.7398 250.517 70.6171 250.212 70.5909C250.111 70.5951 251.326 70.7271 251.354 70.7291ZM186.338 69.0157C186.682 68.994 187.309 68.9767 187.737 68.9593C187.665 68.9739 186.487 69.0215 186.338 69.0157ZM162.129 70.4175C162.815 70.3737 163.66 70.3091 163.672 70.2935C163.687 70.2948 163.72 70.2948 163.776 70.2933C163.832 70.2916 164.568 70.2319 164.889 70.2143C166.802 70.1024 157.503 70.7741 162.887 70.3344C162.634 70.362 162.381 70.3897 162.129 70.4175ZM130.493 73.2576C130.099 73.2801 129 73.4166 129.287 73.394C129.486 73.378 130.887 73.2351 130.493 73.2576ZM145.37 71.796C145.254 71.8032 144.201 71.9127 144.175 71.9247C144.781 71.8785 145.897 71.7628 145.37 71.796ZM127.478 73.5501C127.233 73.5731 126.923 73.6347 126.952 73.6329C127.202 73.6172 127.891 73.5229 127.478 73.5501ZM259.634 71.7307C259.28 71.6697 258.137 71.5283 257.886 71.5132C257.84 71.5031 257.716 71.4809 257.488 71.4437C257.489 71.4438 257.49 71.4439 257.49 71.444C257.203 71.3643 247.868 70.2301 254.125 71.0233C254.32 71.0491 254.055 70.998 254.85 71.1018C254.902 71.1087 254.927 71.1259 255.089 71.1473C255.463 71.1948 257.44 71.4679 257.837 71.5138C257.84 71.5168 257.865 71.5228 257.919 71.5326C258.403 71.6191 259.91 71.7769 259.634 71.7307ZM147.466 71.6038C147.252 71.6176 146.578 71.6833 146.51 71.7019C146.844 71.6776 147.962 71.5715 147.466 71.6038ZM101.671 76.4004C101.24 76.4391 100.16 76.5805 100.488 76.5535C100.688 76.5372 102.168 76.3559 101.671 76.4004ZM140.724 72.2343C143.246 72.0094 141.325 72.1759 141.709 72.1212C141.38 72.1588 141.052 72.1965 140.724 72.2343ZM271.013 73.7238C270.627 73.6436 271.089 73.6977 271.511 73.8018C271.643 73.8345 271.229 73.7687 271.013 73.7238ZM288.467 78.0045C288.152 77.8754 289.731 78.3746 289.107 78.2075C289.079 78.1992 288.49 78.0124 288.467 78.0045ZM276.326 74.8202C276.056 74.7818 275.883 74.7448 275.136 74.5754C276.245 74.8136 275.222 74.5673 276.326 74.8202ZM163.665 70.2918C163.669 70.2923 163.673 70.2927 163.672 70.2935C163.667 70.2931 163.665 70.2925 163.665 70.2918ZM125.128 73.8039C124.814 73.8189 123.942 73.9132 124.204 73.9038C124.229 73.9028 125.001 73.8309 125.128 73.8039ZM257.886 71.5132C257.926 71.5221 257.905 71.5213 257.837 71.5138C257.834 71.5109 257.852 71.5111 257.886 71.5132ZM129.853 73.2933C129.829 73.3093 131.157 73.1778 131.205 73.1714C131.951 73.0712 130.428 73.2328 129.853 73.2933ZM92.8703 77.3742C92.8022 77.3832 93.246 77.369 93.5153 77.3249C93.7237 77.2908 93.1248 77.3403 92.8703 77.3742ZM278.849 75.3967C279.259 75.4944 279.833 75.6348 279.935 75.6772C279.663 75.6071 278.838 75.4062 278.849 75.3967ZM287.851 77.7967C287.367 77.673 286.268 77.3543 285.562 77.1538C285.557 77.1233 287.402 77.6668 287.851 77.7967ZM260.757 71.9071C260.723 71.9005 259.685 71.7386 259.825 71.777C260.029 71.8321 261.048 71.9604 260.757 71.9071ZM94.9244 77.1625C95.3988 77.0972 94.2994 77.184 93.8053 77.2678C93.5502 77.3111 94.8431 77.1737 94.9244 77.1625ZM122.408 74.0709C121.791 74.1474 123.325 74.0002 123.539 73.9592C123.253 73.9884 122.627 74.0437 122.408 74.0709ZM143.624 71.9098C141.672 72.0396 142.742 72.0354 143.086 71.9947C143.134 71.989 143.672 71.9065 143.624 71.9098ZM39.4906 70.5312C39.6627 70.293 38.9762 71.1492 38.9282 71.2636C38.8842 71.3392 39.3676 70.6879 39.4906 70.5312ZM173.239 69.6414C173.156 69.6466 173.074 69.6517 172.992 69.6568C173.053 69.6523 173.134 69.6471 173.239 69.6414ZM116.748 74.6177C118.154 74.5371 118.003 74.4968 118.124 74.4837C118.386 74.4557 119.009 74.4076 119.497 74.351C118.937 74.4205 118.361 74.4919 117.795 74.5624C118.276 74.5141 122.071 74.1286 122.151 74.1087C122.263 74.0795 121.068 74.2141 121.033 74.2164C120.983 74.2197 120.792 74.1928 120.681 74.2031C120.522 74.2168 117.272 74.5712 116.748 74.6177ZM139.509 72.3078C139.828 72.2827 139.92 72.2927 140.068 72.274C140.118 72.2676 140.124 72.249 140.296 72.2279C140.034 72.2545 139.771 72.2811 139.509 72.3078ZM114.267 74.9591C113.873 74.9809 115.632 74.794 115.69 74.7901C115.993 74.7715 114.588 74.9413 114.267 74.9591ZM129.178 73.3472C129.113 73.3526 127.751 73.4879 127.763 73.4989C128.123 73.4703 129.947 73.2834 129.178 73.3472ZM140.509 72.2063C140.987 72.1626 141.896 72.0947 141.789 72.0777C141.789 72.0778 141.788 72.0779 141.787 72.0779C141.361 72.1206 140.935 72.1634 140.509 72.2063ZM96.5542 76.9216C95.6586 76.9795 96.0854 76.9859 96.8779 76.9104C97.1156 76.8642 96.7012 76.9121 96.5542 76.9216ZM93.7197 77.2084C93.4695 77.229 90.9826 77.515 91.3662 77.495C91.4996 77.4884 92.929 77.3083 92.997 77.3021C93.098 77.2932 92.641 77.3696 93.409 77.2786C93.3629 77.2752 93.8034 77.2016 93.7197 77.2084ZM95.8143 76.9774C94.9287 77.0444 94.7395 77.1262 95.4006 77.0519C95.6594 77.0229 95.9408 76.9679 95.8143 76.9774ZM99.4101 76.5763C99.1059 76.605 98.2831 76.6898 97.6849 76.7775C98.4911 76.6881 99.228 76.6064 99.9858 76.5223C100.072 76.5012 99.6786 76.551 99.408 76.5765C99.4087 76.5765 99.4094 76.5764 99.4101 76.5763ZM292.878 79.2143C292.233 78.9815 293.733 79.4747 293.793 79.5017C293.976 79.5783 293.166 79.3177 292.878 79.2143ZM43.6954 66.8826C43.8553 66.7448 43.9694 66.6692 44.3178 66.3402C43.9469 66.6507 43.5916 66.9547 43.2516 67.2523C43.023 67.5201 43.5182 67.0341 43.6954 66.8826ZM45.0547 65.8493C45.0156 65.8853 45.2723 65.7358 44.7256 66.1658C44.3384 66.4642 46.2898 64.734 46.7405 64.4108C46.3059 64.7828 45.3962 65.538 45.0547 65.8493ZM49.0607 62.8765C49.0871 62.86 48.1805 63.5854 48.0818 63.6623C47.532 64.0801 48.8801 62.982 49.0607 62.8765ZM46.3022 65.0974C46.6832 64.7918 45.859 65.494 45.6259 65.6888C45.5929 65.7016 46.2397 65.1463 46.3022 65.0974ZM286.407 76.3395C285.88 76.1486 285.375 76.0956 286.208 76.3125C286.248 76.3229 286.43 76.3478 286.407 76.3395ZM48.2089 63.6254C47.7859 63.9492 48.7017 63.207 48.9985 62.9844C49.0286 62.9735 48.2694 63.5777 48.2089 63.6254ZM286.054 76.1414C285.345 75.9129 285.572 76.076 285.66 76.1046C286.026 76.2211 287.295 76.5456 287.554 76.6126C285.668 76.0824 286.386 76.2508 286.054 76.1414ZM282.746 75.3036C282.092 75.1433 283.748 75.5962 284.085 75.6616C283.748 75.5715 282.936 75.3495 282.746 75.3036ZM278.751 74.2776C278.395 74.1887 277.33 73.9333 277.146 73.9077C277.54 73.9939 278.597 74.2562 278.751 74.2776ZM277.951 74.0433C277.394 73.8933 277.246 73.9204 277.897 74.0528C277.922 74.0579 277.971 74.0492 277.951 74.0433ZM274.784 73.3121C274.417 73.2088 273.979 73.1747 274.583 73.3052C274.762 73.344 274.823 73.3233 274.784 73.3121ZM285.183 75.7919C284.659 75.6368 283.968 75.4915 285.093 75.804C284.696 75.7012 284.299 75.5997 283.9 75.4993C285.373 75.9207 285.276 75.8397 285.699 75.9587C286.287 76.1271 286.227 76.1601 286.105 76.1408C286.597 76.2468 288.637 76.8372 289.8 77.1932C288.782 76.8653 287.112 76.3518 286.085 76.0562C285.792 75.9713 285.503 75.9043 285.252 75.8334C284.85 75.72 285.213 75.8007 285.185 75.7925C285.185 75.7923 285.184 75.7921 285.183 75.7919ZM270.63 72.4604C269.554 72.2255 270.228 72.4135 270.839 72.5224C270.866 72.5267 270.657 72.4663 270.63 72.4604ZM49.5477 62.7939C48.2996 63.7488 49.0773 63.0593 46.7394 65.0418C47.693 64.2068 46.7755 64.9789 46.9576 64.8102C47.1009 64.6761 47.6968 64.201 47.3402 64.4639C47.7717 64.1293 49.8928 62.4509 50.021 62.3657C50.0201 62.3665 50.0191 62.3672 50.0182 62.3679C50.0802 62.3233 49.9607 62.4827 49.5477 62.7939ZM278.781 74.1291C278.437 73.9757 278.271 74.0503 277.574 73.8295C276.612 73.6907 280.181 74.4391 280.583 74.6219C276.759 73.6781 283.09 75.3133 280.449 74.5516C282.632 75.1371 281.171 74.7184 281.512 74.7897C281.878 74.866 283.106 75.2013 283.05 75.1603C283.049 75.1601 283.048 75.1599 283.048 75.1598C282.295 74.9641 281.539 74.7728 280.779 74.5857C281.508 74.8256 279.962 74.4223 279.442 74.2518C279.222 74.2105 279.002 74.1697 278.781 74.1291ZM283.061 75.2527C282.989 75.2303 281.346 74.8161 281.448 74.8554C281.669 74.9146 283.993 75.5138 283.061 75.2527ZM290.332 77.3218C289.748 77.139 288.841 76.8531 288.513 76.778C289.104 76.9536 290.008 77.2425 290.332 77.3218ZM259.457 70.5257C258.685 70.4306 261.052 70.7826 260.37 70.6617C260.337 70.6554 259.495 70.5301 259.457 70.5257ZM277.04 73.7356C276.265 73.5381 276.619 73.6877 277.2 73.8018C277.234 73.8084 277.076 73.7447 277.04 73.7356ZM48.5437 63.594C48.4919 63.65 46.8022 65.0068 46.5471 65.2301C46.6679 65.0977 48.559 63.5491 48.5437 63.594ZM291.378 77.5856C290.239 77.157 288.627 76.7445 288.452 76.692C288.279 76.6388 288.559 76.6948 288.52 76.6823C288.432 76.6516 286.571 76.1119 286.478 76.0903C286.413 76.0733 286.741 76.2049 286.352 76.1065C287.118 76.2908 290.491 77.3213 290.659 77.3792C290.794 77.4188 289.793 77.0614 291.376 77.5849C291.376 77.5852 291.377 77.5853 291.378 77.5856ZM288.017 76.5547C288.477 76.706 287.176 76.3252 286.86 76.2303C286.161 76.0159 287.96 76.5333 288.017 76.5547ZM284.872 75.6458C284.72 75.599 283.369 75.2328 283.258 75.2229C283.867 75.405 285.216 75.748 284.872 75.6458ZM269.805 72.1813C269.452 72.1157 268.48 71.9217 268.421 71.9267C268.777 71.9891 269.747 72.1852 269.805 72.1813ZM43.1381 68.4659C43.5682 68.0626 42.5938 69.0224 42.3482 69.2776C42.3183 69.289 43.0919 68.5045 43.1381 68.4659ZM276.94 73.565C276.743 73.5037 272.407 72.5849 271.839 72.4914C272.391 72.6008 276.685 73.5223 276.867 73.5695C276.923 73.5806 276.966 73.5717 276.94 73.565ZM286.09 75.8761C286.485 75.9643 286.731 76.0626 286.779 76.0768C287.259 76.2166 288.25 76.5028 288.026 76.4596C287.19 76.2006 285.303 75.7006 286.09 75.8761ZM269.52 72.0251C268.068 71.7598 270.849 72.3092 270.487 72.2185C270.464 72.2123 269.67 72.0522 269.52 72.0251ZM277.419 73.6676C277.751 73.713 281.981 74.7551 282.643 74.9415C282.033 74.8175 281.553 74.6686 280.739 74.4676C280.519 74.4136 280.574 74.4416 280.55 74.4357C280.169 74.3424 280.458 74.3972 280.223 74.3392C280.08 74.2968 276.966 73.585 277.419 73.6676ZM286.316 75.9239C286.561 75.974 289.191 76.7412 289.291 76.7809C290.074 77.0386 286.528 75.9777 286.316 75.9239ZM277.033 73.5494C277.504 73.614 279.611 74.1369 278.16 73.8156C278.021 73.7848 277.439 73.6326 277.033 73.5494ZM269.682 72.0184C269.612 72.0026 268.097 71.7137 268.067 71.7219C268.288 71.764 270.492 72.184 269.682 72.0184ZM270.472 72.1277C270.436 72.121 270.785 72.2121 270.078 72.0731C270.019 72.0618 269.915 72.0133 269.021 71.8559C268.839 71.824 268.555 71.7894 268.575 71.7942C269.501 72.0026 272.298 72.4702 270.472 72.1277ZM286.37 75.917C286.231 75.8658 286.584 75.9312 286.889 76.0363C287.02 76.0814 286.767 76.0291 286.37 75.917ZM264.854 71.1464C265.75 71.2745 262.948 70.8066 262.801 70.7927C262.891 70.8178 264.766 71.1317 264.854 71.1464ZM42.321 69.5137C42.3214 69.5132 42.3219 69.5128 42.3223 69.5123C41.859 69.9957 42.1321 69.6827 42.1094 69.7054C41.8585 69.9644 41.7248 70.1097 41.5883 70.2628C41.4445 70.4245 41.371 70.5138 41.3281 70.5685C41.2433 70.6777 41.2824 70.6483 41.196 70.7534C40.8407 71.1965 40.8385 71.1091 40.3302 71.8168C41.1974 70.6373 40.3848 71.7083 40.3555 71.7273C40.2829 71.7707 40.5588 71.3999 40.9857 70.9086C41.1929 70.6692 41.4658 70.3689 41.6747 70.1468C41.851 69.9602 42.0171 69.7867 42.1279 69.6638C42.1867 69.5966 41.7168 70.0724 41.8695 69.8984C42.3337 69.346 44.2475 67.592 42.321 69.5137ZM287.129 76.1021C287.478 76.1762 290.025 76.9617 289.344 76.7741C289.238 76.7389 286.625 75.9829 287.129 76.1021ZM163.799 68.7984C164.438 68.7353 162.954 68.8222 162.681 68.8559C162.545 68.8724 163.519 68.826 163.799 68.7984ZM153.474 69.5296C152.711 69.5967 151.915 69.7356 152.861 69.6446C152.962 69.6349 153.562 69.5321 153.474 69.5296ZM203.172 67.0179C202.379 67.0023 202.427 67.049 203.009 67.041C203.214 67.0383 203.197 67.0184 203.172 67.0179ZM172.97 68.1595C172.891 68.1625 171.977 68.2215 172.011 68.2303C172.349 68.2157 173.483 68.1399 172.97 68.1595ZM203.424 67.0083C202.954 67.0223 203.764 67.0467 204.338 67.008C204.046 67.0134 203.473 67.0068 203.424 67.0083ZM275.445 73.0886C275.053 73.0221 273.953 72.7803 273.316 72.6524C273.254 72.6123 274.995 72.9926 275.445 73.0886ZM156.663 69.2973C155.952 69.372 157.48 69.2643 157.338 69.2523C157.318 69.2526 156.691 69.2943 156.663 69.2973ZM228.727 67.3968C228.202 67.3877 229.864 67.4843 229.408 67.4369C229.385 67.4347 228.755 67.3971 228.727 67.3968ZM235.958 67.8025C235.565 67.7708 233.882 67.6696 234.536 67.7242C234.638 67.732 235.928 67.8137 235.958 67.8025ZM41.1788 70.8017C41.3333 70.6496 40.5165 71.6389 40.435 71.7601C40.3843 71.817 40.9446 71.0159 41.1788 70.8017ZM198.03 67.0997C197.62 67.1114 196.558 67.13 196.371 67.1483C196.872 67.1328 198.165 67.1235 198.03 67.0997ZM159.919 69.0421C159.293 69.0617 158.231 69.1476 158.496 69.1635C159.671 69.0698 158.348 69.1415 159.919 69.0421ZM206.066 66.9548C205.737 66.9547 205.485 66.9918 205.523 66.9931C205.879 67.0062 206.393 66.9665 206.066 66.9548ZM181.417 67.6842C181.397 67.6699 180.348 67.7286 180.488 67.7314C180.534 67.7322 181.433 67.6955 181.417 67.6842ZM261.836 70.5592C261.359 70.4715 262.825 70.685 263.261 70.7724C263.471 70.8285 261.887 70.5675 261.836 70.5592ZM215.174 66.9916C215.222 66.9692 213.575 66.9637 214.223 66.9892C214.383 66.9954 215.157 66.9986 215.174 66.9916ZM230.948 67.4581C229.843 67.4243 234.478 67.695 233.262 67.5958C233.176 67.5869 231.045 67.4593 230.948 67.4581ZM238.493 67.9387C238.307 67.9225 238.397 67.8531 239.191 67.9408C239.295 67.9522 238.806 67.936 238.891 67.9468C238.942 67.952 240.664 68.0938 240.743 68.0994C240.828 68.1042 240.73 68.0723 240.817 68.0764C240.915 68.0809 241.971 68.1872 242.524 68.2347C243.566 68.3237 243.679 68.3151 243.765 68.3223C244.013 68.3441 244.43 68.3955 244.932 68.4419C247.47 68.6701 251.303 69.0669 253.335 69.3612C251.54 69.1268 249.828 68.9544 248.068 68.7792C248.591 68.7887 245.46 68.5509 247.292 68.6845C246.463 68.5894 239.126 67.9729 238.495 67.9389C238.495 67.9388 238.494 67.9388 238.493 67.9387ZM150.469 69.764C150.932 69.6978 148.543 69.9117 148.345 69.9597C148.659 69.9355 150.41 69.7716 150.469 69.764ZM161.451 68.8141C161.672 68.7933 161.879 68.7271 163.046 68.6672C163.047 68.6671 163.048 68.667 163.049 68.667C163.391 68.6495 163.003 68.69 163.066 68.6898C163.089 68.6898 164.154 68.6376 163.271 68.7055C161.925 68.81 163.141 68.6776 162.424 68.7297C162.336 68.7359 160.982 68.864 161.061 68.8642C161.069 68.8642 161.477 68.8279 161.544 68.8254C161.8 68.8157 161.677 68.8405 161.713 68.8385C161.83 68.8311 163.976 68.6474 164.291 68.6489C164.392 68.6476 160.868 68.9234 160.733 68.9315C160.646 68.9356 160.679 68.8897 160.589 68.8922C160.542 68.8934 159.131 69.0177 158.948 69.0282C158.895 69.0312 158.854 69.0331 158.824 69.0344C159.039 69.031 157.762 69.1299 157.8 69.1119C157.822 69.1042 158.7 69.0387 158.732 69.0374C158.746 69.0368 158.758 69.0365 158.769 69.036C158.584 69.0329 161.567 68.8061 160.921 68.8311C161.786 68.7528 160.801 68.8759 161.451 68.8141ZM165.621 68.4858C165.532 68.4965 165.444 68.5073 165.354 68.5181C166.861 68.4012 168.6 68.3057 170.342 68.1943C170.784 68.1661 170.274 68.1706 170.854 68.1414C171.319 68.1181 171.835 68.1121 171.582 68.1335C171.521 68.1387 170.574 68.1812 170.101 68.2135C168.706 68.3087 169.061 68.3103 168.979 68.3161C168.889 68.3226 168.011 68.3638 167.532 68.397C166.327 68.4807 165.791 68.5319 164.125 68.6314C165.081 68.5475 164.556 68.5503 165.621 68.4858ZM222.14 67.0676C222.198 67.0539 223.19 67.0968 223.549 67.1065C223.492 67.1196 222.501 67.0754 222.14 67.0676ZM74.7396 77.6836C74.437 77.7383 76.7056 77.5233 76.106 77.5611C75.9714 77.5699 75.0206 77.657 74.7396 77.6836ZM84.9341 76.6519C85.2376 76.6124 84.01 76.7265 84.0157 76.745C84.0174 76.7511 84.8941 76.6572 84.9341 76.6519ZM185.187 67.3973C185.245 67.3939 186.086 67.364 186.112 67.3643C186.67 67.3666 183.903 67.4694 185.187 67.3973ZM97.3639 75.2418C96.2895 75.3795 99.5243 75.0208 98.5397 75.1114C98.5076 75.114 97.4121 75.2355 97.3639 75.2418ZM101.754 74.7402C101.502 74.7697 100.39 74.8876 100.377 74.8966C100.355 74.9113 101.628 74.7754 101.754 74.7402ZM206.288 66.8602C206.164 66.8327 207.662 66.8464 208.182 66.8425C208.306 66.8697 206.808 66.853 206.288 66.8602ZM196.839 66.9798C203.145 66.8301 201.756 66.9114 196.464 67.0023C196.456 66.9847 196.442 66.9906 196.839 66.9798ZM204.919 66.8528C204.69 66.8724 203.972 66.8739 203.487 66.878C203.575 66.8645 204.569 66.8587 204.919 66.8528ZM72.0994 77.8932C72.4698 77.8375 74.1703 77.7054 73.8703 77.7428C73.795 77.7527 71.9579 77.9193 72.0994 77.8932ZM185.714 67.3511C185.566 67.3297 187.461 67.2633 187.606 67.2644C188.192 67.2652 185.867 67.3376 185.714 67.3511ZM215.238 66.8665C215.574 66.8494 216.527 66.874 217.14 66.885C216.861 66.898 215.758 66.8732 215.238 66.8665ZM210.83 66.8142C210.869 66.8133 211.72 66.8189 211.758 66.8203C212.455 66.8441 210.047 66.8284 210.83 66.8142ZM43.1439 68.9647C43.1223 68.9856 42.6983 69.4127 42.6863 69.4256C42.2943 69.7935 43.5722 68.5089 43.1439 68.9647Z" fill="url(#paint3_linear_40_2175)"/>
<defs>
<linearGradient id="paint0_linear_40_2175" x1="206" y1="64" x2="94" y2="45" gradientUnits="userSpaceOnUse">
<stop stop-color="#F813E1"/>
<stop offset="1" stop-color="#283D82"/>
</linearGradient>
<linearGradient id="paint1_linear_40_2175" x1="56.6138" y1="43.9153" x2="56.6138" y2="53" gradientUnits="userSpaceOnUse">
<stop stop-color="#3F398C"/>
<stop offset="1" stop-color="#E616D9"/>
</linearGradient>
<linearGradient id="paint2_linear_40_2175" x1="78.5999" y1="23.6838" x2="78.5999" y2="40.69" gradientUnits="userSpaceOnUse">
<stop stop-color="#F813E1"/>
<stop offset="1" stop-color="#7E2CA9"/>
</linearGradient>
<linearGradient id="paint3_linear_40_2175" x1="38" y1="71" x2="294" y2="71" gradientUnits="userSpaceOnUse">
<stop stop-color="#3A3A8A" stop-opacity="0.68"/>
<stop offset="1" stop-color="#F814E1" stop-opacity="0.66"/>
</linearGradient>
</defs>
</svg>
