<svg width="258" height="65" viewBox="0 0 258 65" fill="none" xmlns="http://www.w3.org/2000/svg">
<path d="M2.17565 62.8867C2.25369 62.9361 2.56705 63.1172 2.74221 63.2038C2.94508 63.3078 3.17426 63.411 3.31708 63.4698C3.13232 63.4068 2.79259 63.2615 2.41732 63.0467C2.04647 62.8314 1.83989 62.6737 2.17565 62.8867ZM32.9899 62.0808C32.7359 62.1095 32.4831 62.138 32.2316 62.1661C32.9455 62.1097 33.9318 62.0178 34.607 61.9628C34.7088 61.9546 34.4466 61.9977 34.6875 61.9767C34.9288 61.9556 34.8795 61.9338 35.2317 61.8988C35.6221 61.8606 37.4617 61.706 38.1155 61.6415C40.5288 61.4064 43.1388 61.1237 45.4692 60.8882C43.0009 61.1672 45.4859 60.9265 46.1894 60.8428C46.3489 60.8234 46.2978 60.7818 48.8518 60.5181C50.4895 60.3477 48.9705 60.5843 51.7292 60.2464C49.5822 60.4331 51.7385 60.2005 53.2679 60.029C53.5369 59.9991 55.7562 59.7592 56.7566 59.6445C57.097 59.6056 57.615 59.5217 58.0706 59.4697C58.3842 59.434 58.6233 59.4211 59.0915 59.3676C61.3262 59.1124 63.3412 58.8827 65.4948 58.6435C64.2506 58.8506 66.4808 58.5599 66.5849 58.5513C67.0986 58.5111 64.7841 58.7784 65.7003 58.6858C66.9778 58.539 68.268 58.3908 69.5704 58.2417C68.5002 58.3544 70.9798 58.0268 71.4475 57.9959C71.2401 57.96 77.2196 57.3989 78.1652 57.2761C78.3594 57.2507 77.0859 57.3621 80.0273 57.0507C80.3468 57.017 80.228 57.0477 80.3954 57.0277C80.4956 57.0156 81.0973 56.8935 81.7516 56.8529C81.9723 56.8403 80.535 57.0331 83.7571 56.6678C82.4553 56.7509 88.2556 56.1512 89.355 56.0521C89.138 56.0673 88.9213 56.0826 88.7047 56.0978C89.7749 56.0053 89.9678 55.9659 90.2091 55.9416C91.1811 55.8437 92.5358 55.7224 93.4414 55.6274C94.4804 55.5186 94.4799 55.4831 95.6985 55.3731C95.4087 55.3947 95.1192 55.4163 94.8301 55.438C95.6696 55.3542 96.5121 55.2709 97.3573 55.188C95.4071 55.431 97.7787 55.1477 97.9368 55.1313C98.1871 55.1046 97.8291 55.1595 98.2478 55.1153C98.2912 55.1107 98.2264 55.0989 98.8729 55.0327C100.225 54.8948 100.015 54.9386 100.584 54.8825C100.636 54.8773 100.451 54.8789 101.437 54.7791C104.576 54.4637 101.421 54.7927 101.302 54.8069C101.146 54.8255 102.222 54.7872 99.5649 55.0239C100.456 54.9438 100.55 54.965 100.65 54.9559C100.738 54.9476 102.287 54.793 102.374 54.7839C103.136 54.7002 102.462 54.7445 102.611 54.7266C102.729 54.7119 104.618 54.5584 105.039 54.4574C105.923 54.4314 104.541 54.5552 103.028 54.709C102.809 54.7415 104.463 54.5951 104.551 54.587C106.648 54.3894 105.482 54.4525 105.937 54.3797C106.175 54.3417 107.031 54.2941 106.24 54.3257C108.141 54.1449 106.99 54.2761 107.113 54.2682C107.299 54.2563 107.964 54.1831 108.048 54.177C108.171 54.1682 107.746 54.2216 108.23 54.1825C108.31 54.1759 109.087 54.0799 108.081 54.1598C109.424 54.0408 109.312 54.03 109.772 54.0315C110.692 53.8674 110.45 54.0189 110.816 53.9908C111.79 53.9163 111.502 53.8781 111.553 53.8704C111.904 53.8185 114.61 53.6055 115.284 53.5404C115.021 53.6081 113.135 53.7246 112.716 53.7705C111.319 53.9219 114.693 53.6219 113.681 53.7677C114.106 53.7151 114.532 53.6627 114.959 53.6105C115.746 53.5812 114.638 53.6901 116.744 53.5002C117.088 53.4392 115.254 53.6301 115.62 53.5741C115.839 53.5406 117.057 53.4358 117.077 53.4266C117.101 53.4149 116.006 53.5175 116.176 53.4889C116.558 53.424 120.536 53.1291 117.507 53.3938C118.352 53.3237 118.793 53.3501 119.526 53.2718C120.002 53.2217 117.317 53.3488 121.335 53.0457C121.423 53.0679 119.729 53.1812 119.686 53.1872C119.625 53.1954 119.936 53.2368 119.989 53.2358C120.174 53.2296 124.283 52.8756 125.161 52.8466C124.811 52.8329 128.288 52.6123 128.663 52.5764C128.763 52.5663 128.389 52.569 128.495 52.559C129.158 52.4974 130.96 52.4163 131.798 52.3628C132.734 52.3025 132.614 52.2905 132.667 52.287C133.079 52.2615 132.751 52.2964 133.003 52.2801C133.383 52.2544 136.005 52.0945 136.137 52.0847C136.176 52.0815 135.746 52.0843 136.318 52.0455C136.417 52.0391 136.355 52.0687 138.051 51.9584C140.096 51.827 136.63 52.0063 137.478 51.9289C138.793 51.8934 138.749 51.8563 139.105 51.8392C139.227 51.8335 140.153 51.8159 141.144 51.761C140.436 51.8043 139.714 51.8495 139 51.8953C139.704 51.8613 141.071 51.7797 141.645 51.7566C141.926 51.7452 141.696 51.7853 142.307 51.7529C142.437 51.7461 142.948 51.6499 141.349 51.7648C141.22 51.747 141.982 51.7227 142.335 51.6977C142.389 51.6938 142.597 51.6419 143.05 51.6445C143.159 51.6461 141.983 51.8216 145.026 51.5868C145.124 51.5794 144.782 51.5807 144.878 51.573C144.943 51.5677 145.722 51.537 145.808 51.531C145.895 51.5246 145.519 51.5258 145.623 51.5177C146.159 51.4761 146.867 51.5086 145.76 51.5547C146.13 51.5455 146.501 51.5366 146.871 51.528C146.473 51.4969 147.452 51.488 147.965 51.4646C151.25 51.317 149.049 51.3777 149.613 51.3376C150.521 51.2748 149.83 51.3854 151.179 51.308C151.304 51.3017 149.67 51.3252 152.858 51.2284C152.388 51.2465 151.917 51.2651 151.447 51.2842C151.72 51.3208 153.146 51.2188 153.255 51.2148C154.504 51.1659 153.66 51.21 155.515 51.1266C155.68 51.1193 156.042 51.1199 156.396 51.1036C157.865 51.0361 154.457 51.1472 154.363 51.1334C154.318 51.1229 157.984 51.0154 158.11 51.0193C158.645 51.0243 156.448 51.0737 156.868 51.0869C157.02 51.0858 162.246 50.9406 163.294 50.939C164.504 50.9295 165.049 50.987 165.056 50.9147C165.398 50.9806 165.7 50.9285 165.855 50.927C167.73 50.9118 167.733 50.9132 169.34 50.8958C169.694 50.8923 169.994 50.9124 170.119 50.9083C170.192 50.9058 170.056 50.8833 170.413 50.8749C170.91 50.861 173.893 50.8864 174.114 50.9023C174.336 50.9154 172.855 50.9039 173.12 50.9257C174.192 50.9299 175.219 50.9301 176.296 50.9416C176.744 50.9465 176.514 50.9591 176.707 50.9612C176.788 50.9615 178.339 50.9664 178.274 50.9607C178.11 50.9401 173.346 50.9144 174.601 50.8981C174.843 50.8942 175.7 50.9335 175.564 50.8917C179.83 50.9311 184.131 51.0297 188.379 51.1949C185.935 51.1353 183.175 51.0322 180.598 50.9889C180.245 50.9824 179.05 50.9596 179.195 50.9828C181.389 51.0199 184.109 51.072 186.202 51.1522C186.269 51.1548 186.023 51.1656 186.274 51.1764C186.743 51.1959 188.27 51.2189 188.526 51.2368C188.57 51.24 187.701 51.2332 187.964 51.2583C188.64 51.3226 188.815 51.2407 189.397 51.2644C189.847 51.2799 192.903 51.4571 193.66 51.4716C194.468 51.4818 191.415 51.346 191.641 51.3351C193.711 51.4043 195.797 51.541 197.737 51.6574C197.771 51.6595 197.475 51.6228 197.908 51.6469C198.662 51.6892 198.857 51.7286 199.223 51.7567C199.617 51.7862 201.011 51.8787 201.196 51.9021C201.219 51.9051 200.936 51.9109 200.893 51.9087C200.286 51.8767 200.072 51.8288 200.017 51.8245C199.81 51.8091 199.605 51.8084 199.415 51.795C199.103 51.7732 198.932 51.75 198.52 51.7226C198.235 51.7038 198.509 51.744 198.234 51.7257C198.134 51.7185 197.05 51.5998 196.945 51.6476C196.908 51.6366 205.812 52.2923 206.709 52.3899C205.946 52.316 205.181 52.2448 204.415 52.1762C205.971 52.3168 207.835 52.4442 207.96 52.5198C213.644 53.0487 219.476 53.7551 225.097 54.6359C226.125 54.8032 225.557 54.7513 227.245 55.0145C226.812 54.93 226.378 54.8466 225.943 54.7643C226.814 54.9033 230.62 55.5743 231.228 55.6854C231.307 55.6991 231.425 55.6815 232.368 55.8549C233.204 56.0098 233.332 56.0635 233.776 56.155C234.148 56.2319 234.568 56.3078 234.678 56.3314C234.763 56.3495 234.793 56.3726 234.996 56.4164C235.637 56.555 235.126 56.403 235.752 56.5862C235.597 56.5565 235.441 56.5269 235.285 56.4976C236.053 56.6606 237.128 56.9109 235.968 56.6826C235.772 56.6444 235.943 56.663 235.797 56.633C230.048 55.5006 234.63 56.4184 236.66 56.8212C237.187 56.9499 240.125 57.5826 240.218 57.6139C240.351 57.6515 239.847 57.556 240.498 57.7221C240.642 57.7486 244.512 58.6716 243.112 58.365C242.826 58.2992 240.969 57.8499 240.516 57.7495C241.568 58.0388 244.045 58.5695 244.317 58.6439C245.426 58.9308 242.172 58.1516 244.673 58.7858C246.589 59.2823 244.798 58.7865 245.539 58.9623C245.947 59.0555 248.127 59.6812 248.085 59.6225C248.843 59.8266 248.393 59.7291 248.486 59.7567C248.578 59.7824 250.064 60.1868 250.538 60.3378C250.596 60.3559 250.406 60.3271 250.465 60.3465C250.582 60.3824 251.999 60.7974 252.055 60.8138C252.091 60.8232 251.761 60.7007 251.901 60.7372C252.065 60.7784 253.416 61.1985 253.491 61.2168C253.601 61.2388 251.929 60.7325 252.214 60.7946C252.985 61.0333 254.238 61.4094 254.746 61.5531C254.621 61.5185 253.88 61.2837 253.623 61.2015C253.756 61.203 255.345 61.7121 254.793 61.5655C255.142 61.6619 254.91 61.5782 255.108 61.627C255.16 61.6398 255.649 61.7984 255.745 61.8235C255.758 61.8262 255.258 61.6485 255.361 61.6744C255.55 61.7196 257.024 62.2135 257.141 62.2592C257.476 62.3829 256.274 61.9894 256.168 61.9718C256.154 61.9686 257.165 62.3397 257.178 62.3482C257.23 62.3945 256.101 61.9938 256.222 62.0621C256.502 62.1608 256.781 62.2602 257.059 62.3603C255.974 62.0152 253.955 61.3535 253.419 61.2206C255.055 61.7189 256.732 62.2857 256.707 62.3477C256.697 62.3735 255.999 62.1578 256.024 62.1738C256.119 62.2311 257.087 62.5276 257.122 62.5415C257.15 62.5529 257.163 62.5588 257.163 62.5602V62.5602C257.159 62.573 255.786 62.1243 255.714 62.1096C255.595 62.0828 256.19 62.3321 256.186 62.3424C256.164 62.3368 255.182 62.0261 255.506 62.1529C255.835 62.2803 256.688 62.5661 256.717 62.5785C256.877 62.643 255.38 62.1558 255.331 62.1493C255.307 62.1445 256.104 62.4296 256.125 62.4436C256.144 62.4559 255.529 62.2665 255.282 62.2066C255.098 62.1615 255.618 62.3432 255.525 62.3153C255.46 62.2936 254.04 61.8354 253.967 61.8171C253.862 61.7876 254.191 61.9098 254.141 61.8986C254.07 61.8824 253.611 61.7311 253.669 61.7561C253.715 61.7727 255.475 62.401 255.457 62.4144C255.429 62.4321 253.568 61.7651 255.284 62.4331C255.296 62.4376 255.723 62.5698 255.734 62.5745C255.989 62.6797 254.623 62.2588 256.283 62.804C253.182 61.8189 255.888 62.7143 255.416 62.6072C255.235 62.5647 254.029 62.1841 254.022 62.1857C254.132 62.2441 254.521 62.3505 254.648 62.403C254.719 62.4312 253.633 62.1095 253.871 62.2016C253.995 62.2479 255.138 62.6132 255.184 62.6309C255.63 62.7921 255.073 62.6261 255.169 62.6683C255.233 62.6959 255.918 62.9225 255.935 62.93C255.963 62.9414 255.024 62.6611 254.826 62.608C254.676 62.5671 255.227 62.7587 255.123 62.7283C254.497 62.5434 253.182 62.0744 254.44 62.5491C254.517 62.578 255 62.7326 255.014 62.7382C255.305 62.8538 254.418 62.5672 254.253 62.5323C253.972 62.4712 255.254 62.8669 254.185 62.5444C254.977 62.8175 255.42 62.9609 256.345 63.2657C253.777 62.4285 252.838 62.2127 255.697 63.1389C254.792 62.8389 254.878 62.9123 254.607 62.8248C254.439 62.7693 253.126 62.3108 253.706 62.5902C253.779 62.6248 254.587 62.8681 254.328 62.8098C252.4 62.1906 254.284 62.8098 254.284 62.8144C254.255 62.8434 249.51 61.3509 248.661 61.1405C247.694 60.8758 246.818 60.6845 246.606 60.6279C245.928 60.4469 246.496 60.5762 246.347 60.5281C246.197 60.4772 244.253 60.0157 244.154 59.9913C243.78 59.8875 244.168 59.9592 244.129 59.9481C243.671 59.8108 241.037 59.1924 240.292 59.0203C240.312 59.0407 241.798 59.3903 240.864 59.1987C239.776 58.9773 239.728 58.8943 239.7 58.8842C234.646 57.7398 229.804 56.8378 224.688 56.0444C224.743 56.0866 228.062 56.5949 228.132 56.6177C228.569 56.7091 222.99 55.8138 222.333 55.7225C222.847 55.8054 223.359 55.8898 223.87 55.9757C222.99 55.8859 221.053 55.547 219.77 55.3956C219.356 55.3462 220.147 55.4703 220.13 55.4695C219.664 55.4232 218.92 55.3111 219.481 55.3623C218.342 55.2337 218.511 55.2316 217.637 55.1181C217.592 55.1124 217.966 55.1775 217.272 55.0977C216.949 55.059 215.213 54.8494 214.977 54.8391C214.881 54.8343 215.754 55.0077 215.87 54.9614C217.753 55.2203 216.476 55.0075 217.208 55.0993C217.32 55.1147 217.06 55.1112 218.898 55.3344C218.543 55.3464 216.429 55.0341 216.062 54.9994C215.31 54.9216 218.399 55.333 218.967 55.3653C218.697 55.3776 219.185 55.3997 219.868 55.4941C220.617 55.598 220.289 55.5676 220.693 55.6234C221.798 55.7782 221.345 55.6808 222.249 55.8409C221.378 55.6203 223.805 56.0542 224.506 56.1903C223.355 56.0178 222.2 55.8528 221.039 55.6952C221.105 55.7093 221.17 55.7234 221.236 55.7376C220.931 55.6939 220.625 55.6507 220.319 55.6081C220.369 55.6102 220.418 55.6123 220.468 55.6144C218.885 55.4285 218.5 55.348 218.371 55.3301C216.708 55.1101 214.765 54.8779 213.072 54.6919C212.82 54.6652 212.992 54.7101 211.162 54.4945C210.578 54.4267 211.133 54.4597 210.469 54.3957C209.631 54.3761 209.652 54.3274 209.404 54.3029C208.694 54.2337 208.257 54.2093 208.192 54.2032C207.312 54.123 206.021 54.0056 205.049 53.9272C205.031 53.9259 205.535 53.9879 204.904 53.9294C204.686 53.9085 202.689 53.6602 200.957 53.5662C201.403 53.6036 201.855 53.6424 202.309 53.6822C201.763 53.6276 198.081 53.4008 198.98 53.4845C199.534 53.5337 200.889 53.5732 201.033 53.6365C199.816 53.5156 192.985 53.1471 192.444 53.1248C192.37 53.1195 192.826 53.1243 192.724 53.1172C192.645 53.111 191.072 53.043 190.863 53.0283C190.739 53.0189 191.435 53.0389 191.379 53.0305C191.331 53.0228 189.357 52.9329 189.252 52.9514C189.728 52.9607 191.092 53.0259 190.377 53.0137C190.286 53.012 189.811 52.9788 189.7 52.9773C188.666 52.961 191.753 53.0813 192.228 53.1071C190.283 53.0414 187.318 52.896 185.085 52.8515C184.183 52.8077 186.423 52.8637 185.403 52.8189C183.286 52.7287 184.839 52.8273 184.773 52.8276C184.247 52.8296 182.455 52.6905 182.452 52.7641C181.683 52.7363 181.932 52.7318 180.845 52.7203C180.988 52.728 181.131 52.7358 181.274 52.7437C180.067 52.7598 177.51 52.6199 177.701 52.6151C178.218 52.5988 179.55 52.6523 179.663 52.6538C179.831 52.6559 180.299 52.5865 182.137 52.6915C182.892 52.6562 179.221 52.601 180.892 52.5989C179.761 52.5763 175.124 52.4918 174.462 52.5163C174.382 52.5189 174.752 52.5692 173.609 52.5401C173.066 52.5264 174.375 52.5301 174.127 52.5181C173.368 52.4538 162.944 52.5539 160.973 52.627C160.844 52.6298 160.891 52.6135 160.765 52.6164C160.378 52.6249 158.966 52.6811 158.273 52.6928C159.71 52.6837 156.921 52.7584 156.211 52.7783C155.135 52.8061 155.2 52.7777 154.735 52.7868C152.944 52.8212 150.161 52.9913 148.766 52.9913C148.845 53.0467 146.355 53.0656 145.226 53.1201C144.341 53.1615 143.061 53.2649 144.255 53.2299C142.726 53.3018 141.133 53.3965 139.69 53.4803C139.452 53.4941 139.778 53.4583 139.373 53.4825C139.336 53.4849 139.286 53.5048 138.938 53.5263C136.067 53.7063 137.463 53.5901 136.925 53.6105C136.624 53.6223 136.402 53.6326 136.239 53.6414C137.911 53.5368 139.844 53.4226 140.361 53.3942C139.917 53.3785 136.648 53.6109 135.693 53.6609C135.66 53.6626 135.774 53.6346 135.74 53.6365C135.739 53.6366 135.739 53.6366 135.738 53.6367C135.379 53.656 133.101 53.8073 133.572 53.8028C133.698 53.8015 134.746 53.7345 135.992 53.6568C135.655 53.682 135.908 53.6901 135.849 53.6948C135.128 53.7496 133.362 53.8378 132.737 53.8757C132.594 53.8843 132.605 53.8987 132.582 53.9002C132.013 53.9339 132.243 53.8757 131.664 53.9584C130.631 53.9726 133.591 53.824 133.381 53.8038C133.216 53.7809 126.658 54.2439 126.665 54.2918C126.642 54.2889 126.55 54.2899 126.363 54.2971C125.948 54.3125 124.111 54.4534 123.796 54.4856C123.743 54.4911 123.767 54.5303 123.701 54.5357C123.535 54.5487 121.294 54.6889 120.463 54.78C120.914 54.75 121.365 54.7203 121.816 54.6909C119.096 54.9049 119.519 54.8856 120.425 54.8252C120.47 54.8217 120.514 54.8197 120.557 54.8165C121.26 54.7697 122.162 54.7084 122.176 54.7106C122.225 54.7165 117.62 55.0921 118.503 54.9838C118.625 54.9681 120.758 54.814 119.7 54.8716C119.515 54.8814 118.149 55.0001 118.077 55.0032C117.595 55.022 120.578 54.7542 120.212 54.756C119.488 54.8406 118.557 54.9017 117.728 54.9769C117.351 55.0111 117.26 55.0393 117.214 55.0435C116.519 55.1065 116.907 55.0527 116.675 55.0725C116.55 55.0831 115.16 55.2462 115.419 55.1611C110.846 55.6011 114.156 55.3117 116.962 55.0746C116.086 55.1701 114.334 55.3078 113.558 55.3807C113.279 55.4069 113.446 55.4134 112.975 55.4587C111.999 55.5497 107.388 55.9413 106.202 56.0489C106.933 55.9733 106.717 55.9703 106.152 56.0246C105.587 56.079 106.064 56.0652 105.955 56.0787C105.85 56.0912 103.153 56.3321 102.703 56.3803C104.735 56.1745 104.273 56.1954 102.549 56.3586C102.797 56.328 103.046 56.2975 103.295 56.2671C102.283 56.3728 100.165 56.5445 99.5873 56.6124C99.4966 56.623 99.8251 56.6099 99.7741 56.6159C99.2654 56.6739 97.5401 56.8262 97.4616 56.8409C97.3941 56.8532 98.1299 56.7958 97.8582 56.8309C97.8015 56.8383 97.0909 56.8832 96.3971 56.9598C96.1397 56.9882 96.2967 56.9906 96.2319 56.9982C95.6924 57.0617 96.0075 56.9987 95.0221 57.104C94.2941 57.182 93.7905 57.2637 92.7531 57.361C96.0594 57.0591 93.3084 57.3251 91.8886 57.4848C91.6649 57.51 91.8586 57.5226 90.5201 57.6466C93.3618 57.2895 89.7022 57.6999 88.9628 57.7783C88.922 57.7824 88.9056 57.7622 88.5412 57.8005C88.5104 57.8038 88.5561 57.8137 88.218 57.8508C85.0195 58.2026 87.0639 57.9679 86.4549 58.0183C86.1952 58.0398 84.6516 58.227 84.2383 58.2724C84.143 58.2828 84.185 58.2628 83.8167 58.3034C83.1623 58.3755 82.5955 58.4537 82.1494 58.5037C82.0977 58.5095 82.0919 58.4857 81.2525 58.5856C81.0166 58.6136 80.7528 58.6512 81.0886 58.6213C82.2321 58.5186 84.2405 58.2603 85.4782 58.1501C86.5975 58.0502 83.0755 58.4324 82.8989 58.4525C82.8321 58.4599 83.5141 58.3735 82.8197 58.4468C82.2397 58.508 81.0973 58.6749 80.1934 58.7653C80.1238 58.7723 79.3948 58.8171 79.4282 58.8113C79.4578 58.8065 80.5718 58.6761 80.4089 58.6837C80.3893 58.6847 79.6807 58.763 79.5878 58.7656C79.4737 58.7689 79.1591 58.7121 79.0081 58.7264C78.6209 58.7636 78.8748 58.7564 78.6247 58.7826C78.0866 58.8389 76.2375 59.0176 76.1826 59.0555C76.4868 59.0235 76.7915 58.9914 77.0968 58.9594C75.4024 59.1513 76.1274 59.0842 75.8879 59.1168C75.6311 59.1519 75.7 59.1163 75.1319 59.1771C75.0053 59.1905 72.6447 59.4611 72.6915 59.4677C73.9906 59.3031 73.5129 59.3913 73.5727 59.3852C73.8015 59.3618 74.0916 59.3099 74.3994 59.2758C76.5687 59.0362 74.384 59.3111 74.8971 59.2615C75.0736 59.2444 75.4235 59.1888 75.4986 59.1812C75.7426 59.1567 75.749 59.1776 75.9116 59.1577C76.2912 59.1113 75.8441 59.1306 75.8741 59.1257C76.2104 59.0689 77.549 58.9438 76.7212 59.0692C77.2215 59.0255 77.2758 58.9791 77.6744 58.951C78.4678 58.8949 77.2833 59.0181 76.965 59.0589C75.8226 59.2053 75.4804 59.2279 73.8775 59.4128C73.3008 59.4794 72.6232 59.5752 72.3577 59.6061C72.2083 59.6235 70.5551 59.7415 70.5182 59.8527C69.8777 59.9146 68.8727 59.9577 68.2225 60.0345C67.6387 60.1035 67.8289 60.1199 67.7745 60.1275C67.6911 60.1392 66.9868 60.216 66.7504 60.2481C66.4732 60.2858 66.6133 60.2844 66.1738 60.3401C65.0818 60.4784 65.1084 60.4368 64.9958 60.447C63.6962 60.5653 64.2706 60.5551 63.9839 60.592C63.7315 60.6248 59.9553 61.0311 59.1202 61.1389C59.4489 61.0941 59.7787 61.0492 60.1094 61.0041C59.5131 61.0473 58.8931 61.1565 58.8773 61.1151C58.7645 61.1976 57.5482 61.2878 57.1884 61.33C57.0461 61.3467 57.0585 61.3572 56.8806 61.3777C56.1835 61.4581 54.6318 61.6219 54.2638 61.6687C52.6615 61.8731 56.7733 61.4582 57.1163 61.4216C56.4466 61.4967 52.7901 61.9194 54.4751 61.7654C54.7354 61.7416 55.1943 61.6591 55.3412 61.6415C56.3358 61.5223 55.5559 61.6375 55.6342 61.6314C55.767 61.6208 56.4214 61.5206 56.5961 61.5042C56.6547 61.4986 56.282 61.5658 57.2403 61.4588C56.7647 61.5371 54.0972 61.8151 53.758 61.8581C53.6375 61.8734 54.4048 61.8414 52.1604 62.0385C52.1868 62.0404 52.2132 62.0424 52.2396 62.0444C50.9454 62.1892 49.6098 62.3372 48.324 62.4779C48.4631 62.4517 49.1873 62.3509 48.2732 62.4544C47.7484 62.5137 48.1395 62.4966 48.0916 62.5024C47.6297 62.5662 39.3265 63.4229 37.7141 63.5678C37.169 63.6215 35.6854 63.7802 35.5758 63.7902C34.9839 63.8487 32.3291 64.0698 31.8616 64.1098C31.5502 64.1377 31.8479 64.1336 31.5699 64.1559C31.312 64.1764 31.5774 64.1342 31.5008 64.1397C30.8195 64.1962 26.2448 64.57 24.9606 64.6202C25.3071 64.602 26.4165 64.5221 27.3731 64.4425C28.2675 64.368 29.0952 64.2905 29.0605 64.2861C29.0446 64.2856 28.2285 64.3317 28.0639 64.351C27.7941 64.3536 26.8406 64.4749 26.254 64.5034C26.1918 64.5061 26.434 64.4614 25.4418 64.5203C25.1007 64.5404 24.2161 64.619 23.3516 64.6402C22.2246 64.7531 15.3611 64.9092 15.0634 64.8923C15.0485 64.8947 15.9359 64.9052 15.3364 64.9186C14.5333 64.9334 15.2977 64.8798 14.3018 64.8661C14.1046 64.876 11.2871 64.7911 11.2349 64.7772C10.4173 64.7688 12.7765 64.8989 12.767 64.8926C12.6618 64.9063 10.6906 64.8185 10.633 64.8042C10.5592 64.7975 12.1086 64.8522 10.2549 64.7484C10.4627 64.7689 10.6736 64.7883 10.8874 64.8066C10.013 64.7609 9.94792 64.7196 9.7429 64.7018C9.02372 64.6341 8.1479 64.5952 7.07678 64.3667C6.79315 64.3052 7.27093 64.366 7.23625 64.3576C6.89226 64.2835 6.45005 64.263 5.97946 64.1232C5.96121 64.1182 6.23395 64.167 6.26714 64.1665C6.28358 64.1663 6.23787 64.1548 6.06738 64.1175C5.98233 64.0989 5.86632 64.0736 5.71415 64.0389C5.54826 64.0012 5.2742 63.9368 4.98377 63.8586C5.14577 63.9061 5.31156 63.9519 5.48114 63.996C5.06043 63.9558 2.888 63.2044 2.71153 63.0343C1.80215 62.503 2.57836 62.9671 1.72516 62.3697C1.98382 62.5816 1.44378 62.2413 1.02272 61.7384C0.599953 61.2844 0.309297 60.4544 0.370548 60.5566C0.265288 60.3805 0.0480074 59.4245 0.211671 58.628C0.326554 57.8801 0.701943 57.0143 1.02258 56.4348C1.35527 55.792 2.05 54.7946 2.21605 54.5915C2.38297 54.3795 2.34884 54.4638 2.66943 54.0762C2.71652 54.0204 2.97019 53.6984 3.37162 53.2445C3.71523 52.856 4.07756 52.4711 4.49967 52.0606C4.65852 51.9056 5.03232 51.5999 4.74178 51.9077C4.21943 52.4546 3.42379 53.2737 3.37414 53.3783C3.47739 53.2921 4.56185 52.1017 4.96267 51.7239C6.68763 50.0773 5.72847 51.0559 5.76979 51.024C5.89224 50.9337 6.9186 49.9895 6.97579 49.9463C7.16479 49.788 6.42663 50.48 6.43098 50.4983C6.42077 50.5282 7.47257 49.6277 7.24384 49.8424C6.8972 50.1576 5.98148 50.9667 5.93515 51.0163C5.24493 51.6988 6.23102 50.8155 6.53847 50.5671C6.62792 50.4934 6.29622 50.8141 6.36822 50.7503C7.48127 49.7713 6.54774 50.4989 7.30608 49.8261C7.86681 49.3376 7.17398 49.9874 7.15995 50.0036C7.24751 49.9258 7.87031 49.3798 7.98818 49.2927C8.00188 49.2826 7.90615 49.371 7.75982 49.5072C7.60356 49.6522 7.45274 49.7951 7.17548 50.0546C6.67832 50.522 6.23121 50.9689 6.27993 50.9402C6.89499 50.3574 7.58707 49.7367 8.08243 49.3019C8.11462 49.2954 7.92817 49.4591 7.72993 49.6309C7.63067 49.7169 7.52829 49.805 7.44638 49.8759C7.34792 49.9614 7.26273 50.0363 7.23953 50.0582C7.04582 50.2398 7.60903 49.7601 7.56773 49.8112C7.5962 49.7938 6.9578 50.3927 7.53363 49.8936C7.69703 49.7541 8.01471 49.4413 8.65971 48.9232C6.55823 50.779 8.03549 49.5238 8.10083 49.4805C8.16859 49.4367 7.18498 50.327 8.40139 49.2656C8.49709 49.2665 8.38441 49.305 8.04612 49.6134C7.84049 49.8017 7.98386 49.6881 7.9853 49.6933C7.98617 49.6958 7.95101 49.7283 7.82122 49.8421C7.7534 49.9017 7.67821 49.9672 7.54133 50.0874C7.38857 50.2218 7.19817 50.3901 6.96675 50.598C6.99792 50.5796 7.11335 50.4817 7.27444 50.3424C7.43664 50.2019 7.64595 50.0196 7.79378 49.892C8.1172 49.6118 8.45258 49.3243 8.48724 49.2961C8.54647 49.248 8.27422 49.5012 8.37776 49.4186C9.62229 48.4319 8.77532 49.1198 9.15281 48.8474C9.17912 48.8263 10.4014 47.8324 9.48246 48.6003C8.65601 49.2951 8.11852 49.7549 7.74934 50.0831C7.32087 50.4643 7.03372 50.7432 6.92116 50.9068C7.65699 50.259 8.22833 49.7567 8.77226 49.2795C9.31066 48.8077 9.7774 48.4043 9.96914 48.2461C10.5607 47.7601 9.95769 48.2769 10.0344 48.2208C10.0588 48.2022 10.5744 47.7806 10.5841 47.7752C10.9669 47.5421 8.33249 49.622 7.67503 50.249C7.89223 50.0698 8.07686 49.9215 8.28401 49.7551C8.00549 49.9978 7.79984 50.1783 7.43644 50.5046C8.81912 49.3084 7.55327 50.4026 7.151 50.8472C7.07365 50.9338 8.05713 50.0129 6.94665 51.0689C7.76138 50.3366 7.60628 50.495 8.19917 49.9524C8.29586 49.8879 6.54496 51.4821 5.9954 52.0525C8.17673 50.0329 7.08167 50.941 8.80343 49.4899C9.11407 49.1878 8.27433 49.9151 8.34336 49.8513C8.57344 49.63 9.15987 49.1574 9.88001 48.4895C9.99859 48.3801 9.45334 48.7907 10.2339 48.1515C10.3192 48.0813 10.8474 47.6855 10.8428 47.692C10.7841 47.7632 10.2755 48.1667 10.2617 48.1889C10.2453 48.2113 10.8047 47.7515 10.8101 47.7506C10.8413 47.7559 10.3441 48.1397 10.4202 48.0878C10.5805 47.9778 12.6547 46.3691 9.99845 48.5017C12.1722 46.7026 10.2225 48.2708 9.44319 48.9419C9.2421 49.114 9.1994 49.1684 8.92175 49.411C8.56471 49.7232 8.15885 50.0682 7.98747 50.2231C7.89485 50.3067 8.11999 50.1206 8.17637 50.0815C8.20442 50.0621 8.18882 50.08 8.06978 50.187C8.00492 50.2453 7.94345 50.2999 7.79224 50.4341C7.64076 50.5688 7.44886 50.7397 7.2137 50.9523C8.27143 50.0311 9.50516 48.9409 10.4925 48.1699C12.3753 46.7092 9.2359 49.2601 9.00877 49.4857C8.93115 49.5534 9.20678 49.3446 9.15532 49.3899C9.05483 49.4691 7.52504 50.7905 7.2673 51.0592C7.08966 51.2407 7.96097 50.4311 8.00434 50.4188C8.04412 50.3793 5.90431 52.3853 7.06208 51.3221C7.9848 50.4728 9.11645 49.4514 9.4171 49.2637C8.86733 49.7296 8.39987 50.1354 7.85441 50.6236C7.22805 51.1845 6.65014 51.7241 6.11987 52.2429C6.71095 51.6933 7.37875 51.1013 8.06329 50.5205C6.66989 51.7637 5.61291 52.7647 4.70149 53.7936C7.10078 51.3753 4.04638 54.5081 3.86523 54.8331C3.86086 54.842 4.11893 54.5484 4.43575 54.2127C4.72379 53.9087 4.95682 53.6817 5.04272 53.5966C4.73507 53.9228 3.65283 55.1625 3.21935 55.8066C2.76108 56.4728 2.58389 56.7786 3.20266 55.9301C2.94327 56.253 2.53081 56.9905 2.54855 56.9768C2.58403 56.9398 2.82288 56.5354 3.10286 56.14C3.37714 55.7475 3.67636 55.3732 3.57267 55.5252C3.33849 55.8742 2.98337 56.3022 2.70894 56.7579C1.86869 58.1898 1.90578 58.7109 1.87817 59.0975C1.90801 59.6037 1.81061 60.0705 2.66996 60.9C2.63409 60.8622 2.60023 60.8245 2.56834 60.7868C4.76492 62.6679 9.26621 62.8767 12.5071 63.0428C14.1331 63.0752 17.6049 63.0271 19.6749 62.9473C20.1537 62.9339 21.8486 62.8813 22.0059 62.8757C22.254 62.8717 20.8873 62.9382 21.5047 62.9235C21.6108 62.9276 24.7266 62.7658 24.5165 62.7505C24.1552 62.7705 23.0568 62.8442 22.8818 62.8473C21.6007 62.9121 31.294 62.2899 31.775 62.1965C31.557 62.2072 31.3399 62.2177 31.1238 62.2279C31.738 62.181 32.3601 62.1319 32.9899 62.0808ZM4.69556 63.8753C4.27489 63.7874 3.34481 63.4429 2.87093 63.2065C2.78362 63.1652 2.70698 63.1295 2.59471 63.0733C2.46931 63.01 2.34289 62.9424 2.22118 62.8726C1.97746 62.7335 1.75381 62.5843 1.58304 62.4542C1.24359 62.1916 1.0966 62.0275 1.369 62.2275C2.51231 63.1983 3.48165 63.5082 4.69556 63.8753ZM21.1393 64.8154C20.4344 64.8325 20.9748 64.76 21.5605 64.7543C21.6263 64.7534 22.1021 64.7893 21.1393 64.8154ZM13.2504 64.9035C13.2816 64.9043 13.972 64.9193 13.9983 64.9198C14.6175 64.9523 12.539 64.9059 13.2504 64.9035ZM50.8844 62.1544C50.0503 62.2479 50.6584 62.2278 51.177 62.1518C51.2096 62.1471 50.9393 62.1483 50.8844 62.1544ZM50.2911 62.2181C49.6389 62.248 48.3601 62.4706 49.3848 62.351C49.4836 62.3395 50.3207 62.217 50.2911 62.2181ZM18.4205 64.8909C18.5048 64.8734 19.3041 64.858 19.6546 64.849C19.6438 64.8643 18.7491 64.8814 18.4205 64.8909ZM37.8543 63.5343C37.8767 63.5209 35.2853 63.7652 35.1229 63.7949C35.516 63.7534 37.8186 63.5499 37.8543 63.5343ZM44.6836 62.8284C44.6169 62.8334 43.7275 62.9294 43.7553 62.9374C44.1888 62.907 44.9801 62.8071 44.6836 62.8284ZM58.1546 61.3544C58.2054 61.3459 57.5028 61.3549 59.1505 61.2155C59.3927 61.1949 58.5324 61.3102 58.6187 61.303C58.7985 61.2877 58.9408 61.2739 59.055 61.2615C58.289 61.3537 57.501 61.445 57.4244 61.4493C57.0639 61.4697 58.1317 61.3582 58.1546 61.3544ZM65.2295 60.5021C65.382 60.4734 66.3722 60.3673 66.5994 60.3463C66.6384 60.3428 66.4723 60.3917 66.9198 60.3388C67.2795 60.2962 66.738 60.3266 67.4403 60.252C68.1512 60.1765 67.2046 60.3057 67.2671 60.3002C67.3496 60.2929 68.4487 60.1546 68.417 60.1762C68.3922 60.1922 67.2123 60.3168 66.9235 60.3524C66.5526 60.398 67.0048 60.3689 66.3846 60.4344C65.9953 60.4755 66.2066 60.4127 66.1243 60.42C66.0542 60.4264 64.7039 60.6018 65.2316 60.502C65.2309 60.5021 65.2302 60.5021 65.2295 60.5021ZM59.2622 61.2364C59.2046 61.2442 59.1369 61.2525 59.055 61.2615C59.1244 61.2531 59.1937 61.2447 59.2622 61.2364ZM6.87797 64.3425C7.25268 64.4188 6.12865 64.2436 5.75285 64.1363C5.7393 64.1268 6.80756 64.335 6.87797 64.3425ZM59.9717 61.1247C61.1199 61.0047 60.2746 61.1137 59.2622 61.2364C59.5832 61.1929 59.5872 61.1648 59.9717 61.1247ZM28.0639 64.351C28.1098 64.3505 28.1391 64.3529 28.1433 64.36C28.0225 64.3607 28.0116 64.3572 28.0639 64.351ZM30.6402 64.1651C31.5379 64.0698 29.7117 64.2184 29.7293 64.2322C29.7339 64.2382 30.603 64.1693 30.6402 64.1651ZM51.9609 62.0384C51.8707 62.0461 53.1603 61.8357 51.2784 62.0942C52.2997 61.9899 51.2235 62.1157 51.2405 62.1198C51.3036 62.1303 52.9447 61.9328 53.2973 61.901C53.5736 61.8396 52.2266 62.0165 51.9631 62.0381C51.9623 62.0382 51.9616 62.0383 51.9609 62.0384ZM77.9854 59.084C77.7615 59.1268 77.0463 59.2005 76.5661 59.2529C76.7883 59.2101 77.5019 59.1365 77.9854 59.084ZM204.29 53.8847C200.97 53.64 200.541 53.5403 203.581 53.8002C203.64 53.8052 204.492 53.8935 204.29 53.8847ZM175.899 52.6656C175.587 52.6313 176.618 52.634 177.294 52.6548C177.446 52.6594 178.016 52.6982 177.366 52.6971C177.388 52.6586 176.388 52.6335 175.899 52.6656ZM60.6175 61.0312C60.9541 60.9718 61.975 60.8715 62.4822 60.8173C62.1748 60.8697 61.1076 60.9825 60.6175 61.0312ZM193.44 53.1395C193.091 53.1196 192.854 53.136 192.914 53.1412C193.183 53.1647 193.838 53.1752 193.44 53.1395ZM57.3256 61.3989C57.2768 61.3916 58.6174 61.2285 58.7163 61.2489C58.4267 61.2793 57.3588 61.4032 57.3256 61.3989ZM77.075 59.1755C76.8673 59.1921 77.9376 59.0615 78.2643 59.0318C78.2392 59.0481 77.2104 59.1646 77.075 59.1755ZM187.817 52.9095C187.506 52.8958 186.728 52.869 186.641 52.8776C186.534 52.8878 187.675 52.9213 187.817 52.9095ZM245.309 60.4091C245.346 60.4232 244.181 60.1601 243.666 60.023C242.689 59.7596 245.273 60.3912 245.309 60.4091ZM196.741 53.3048C197.722 53.3895 196.633 53.299 196.674 53.3294C197.336 53.3684 198.976 53.4736 197.85 53.3755C197.63 53.3565 197.049 53.3246 196.741 53.3048ZM195.835 53.2432C195.729 53.2461 195.018 53.2351 195.632 53.2671C195.915 53.2819 196.373 53.2766 195.835 53.2432ZM238.045 58.688C237.185 58.4692 241.149 59.3696 241.254 59.4094C241.313 59.4257 241.352 59.4371 241.374 59.4441C241.52 59.4703 242.261 59.6466 242.342 59.6868C242.121 59.6312 241.514 59.488 241.443 59.4693C241.413 59.4612 241.391 59.455 241.375 59.4504C241.114 59.4 238.214 58.7241 238.045 58.688ZM231.494 57.3426C232.49 57.491 232.652 57.5865 232.567 57.5719C231.488 57.3934 232.197 57.4814 232.164 57.4729C232.09 57.455 231.321 57.3333 231.497 57.3432C231.496 57.343 231.495 57.3428 231.494 57.3426ZM236.691 58.387C236.732 58.3945 237.569 58.5751 237.603 58.5839C238.285 58.7507 235.917 58.2401 236.691 58.387ZM70.592 59.852C71.2101 59.7885 70.6065 59.8793 70.1965 59.9174C70.1629 59.9204 70.0475 59.908 70.592 59.852ZM195.35 53.2223C195.212 53.206 191.604 53.0107 191.818 53.0583C192.128 53.0626 196.223 53.2945 195.35 53.2223ZM168.415 52.6205C169.051 52.6162 168.358 52.6533 168.018 52.6442C167.892 52.6408 168.254 52.6216 168.415 52.6205ZM55.53 61.5706C54.8805 61.6609 55.0083 61.5868 55.5757 61.5439C55.598 61.5423 55.5555 61.567 55.53 61.5706ZM173.494 52.6266C171.303 52.644 171.823 52.5372 174.67 52.583C174.581 52.5871 174.492 52.5912 174.403 52.5954C177.687 52.6316 174.628 52.6016 173.823 52.606C173.517 52.6071 173.774 52.625 173.497 52.6267C173.496 52.6266 173.495 52.6266 173.494 52.6266ZM165.067 52.6548C162.954 52.6128 166.988 52.6005 168.147 52.5859C167.025 52.625 165.563 52.637 167.551 52.6472C164.645 52.6838 165.854 52.6436 165.738 52.6417C165.601 52.6407 165.156 52.6566 165.067 52.6548ZM170.643 52.6062C170.765 52.6035 171.685 52.6163 172.016 52.614C171.553 52.6382 169.832 52.6232 170.643 52.6062ZM224.535 56.1804C224.612 56.1728 224.798 56.1862 225.522 56.3079C225.299 56.2824 224.826 56.2169 224.535 56.1804ZM3.99192 63.5449C3.47099 63.3771 2.61058 62.9424 2.86879 63.0907C2.87838 63.1177 3.96891 63.565 3.99192 63.5449ZM184.888 52.7737C184.783 52.7662 182.035 52.697 182.984 52.7417C183.271 52.753 185.768 52.8192 184.888 52.7737ZM199.1 53.4351C198.872 53.4196 197.942 53.3643 197.922 53.3679C197.858 53.3795 198.999 53.4433 199.1 53.4351ZM1.55024 62.1965C1.52043 62.1708 1.16345 61.8586 0.913425 61.5153C0.660961 61.1912 0.469499 60.7473 0.513403 60.8575C0.551478 60.9524 0.630638 61.1189 0.745459 61.2999C0.848534 61.4638 0.980428 61.6369 1.11519 61.7863C1.38353 62.0854 1.65247 62.2852 1.55024 62.1965ZM72.7917 59.5584C72.9164 59.5437 73.084 59.5461 73.1273 59.5415C73.2261 59.5305 75.5257 59.2648 74.6496 59.3902C74.4906 59.4122 71.2345 59.7677 70.7451 59.8205C70.5683 59.8112 72.0399 59.6731 72.3619 59.6339C72.4219 59.6266 72.4575 59.5982 72.7907 59.5587C72.7911 59.5586 72.7914 59.5585 72.7917 59.5584ZM228.291 56.7693C228.399 56.7648 231.104 57.232 231.066 57.2516C230.145 57.0856 229.22 56.9249 228.291 56.7693ZM226.909 56.5348C226.33 56.4263 227.693 56.6459 228.092 56.7205C228.094 56.7329 226.994 56.55 226.909 56.5348ZM193.912 53.0636C193.636 53.0539 194.483 53.1245 194.293 53.1199C194.171 53.1167 193.555 53.0751 193.358 53.0739C193.302 53.0737 193.93 53.1305 194.112 53.139C194.37 53.151 194.121 53.118 194.403 53.1326C195.338 53.1814 196.166 53.2423 197.04 53.2941C197.119 53.2988 196.508 53.2482 197.181 53.2886C197.285 53.2949 197.909 53.3532 198.713 53.402C200.491 53.4532 201.783 53.6064 204.062 53.7646C203.978 53.7506 202.279 53.6024 202.178 53.5954C200.288 53.4398 196.928 53.2228 194.941 53.119C194.432 53.0917 194.678 53.1186 194.459 53.1075C194.286 53.0988 194.493 53.084 193.912 53.0636ZM4.26796 63.6231C4.02067 63.5227 3.19682 63.2341 2.75406 62.992C2.89402 63.101 3.71564 63.4497 4.26796 63.6231ZM214.711 54.8146C214.443 54.7842 213.613 54.6825 213.543 54.6827C213.454 54.6822 214.653 54.8246 214.711 54.8146ZM85.8792 58.1226C85.9045 58.1191 86.5421 58.0521 86.5665 58.0503C87.1382 58.0094 85.2261 58.2105 85.8792 58.1226ZM101.218 56.5502C101.707 56.4995 102.2 56.4438 102.367 56.4484C102.054 56.4753 101.162 56.5701 101.218 56.5502ZM122.404 54.6865C122.301 54.6672 123.769 54.5722 124.047 54.554C123.945 54.5735 122.479 54.6999 122.404 54.6865ZM224.444 56.0809C225.324 56.2186 225.153 56.1511 225.716 56.2588C225.808 56.2769 226.095 56.4076 225.115 56.221C224.941 56.1883 225.627 56.2739 224.444 56.0809ZM175.134 52.5865C175.362 52.57 176.074 52.5803 176.556 52.5864C176.448 52.5984 175.477 52.587 175.134 52.5865ZM0.228666 59.1699C0.252393 58.8361 0.330925 58.321 0.503366 57.7945C0.666109 57.2892 0.861598 56.8826 0.73229 57.1416C0.714926 57.1784 0.52343 57.6162 0.404627 58.0645C0.277876 58.5269 0.238171 58.9304 0.228666 59.1699ZM62.8765 60.6938C63.6552 60.5856 62.0387 60.7625 61.53 60.8396C61.7644 60.8118 62.8224 60.7012 62.8765 60.6938ZM117.331 55.0777C117.369 55.0737 118.211 55.0064 118.249 55.0044C118.94 54.9683 116.559 55.1589 117.331 55.0777ZM96.1769 57.0184C96.4764 56.9713 98.4727 56.7842 98.9246 56.7562C98.4925 56.8223 95.802 57.0763 96.1769 57.0184ZM220.816 55.5618C221.448 55.6488 222.045 55.7392 222.622 55.8306C222.499 55.8252 220.883 55.5801 220.816 55.5618ZM120.425 54.8252C120.47 54.8217 120.514 54.8197 120.557 54.8165C120.512 54.8195 120.468 54.8223 120.425 54.8252ZM206.581 53.9467C206.046 53.8942 206.155 53.9293 206.188 53.9328C206.59 53.976 207.186 54.0067 206.581 53.9467ZM3.66659 63.3705C3.4629 63.2673 2.74585 63.0046 2.11926 62.5763C2.17459 62.6274 2.55263 62.8676 2.84154 63.0093C3.12407 63.1536 3.46362 63.2942 3.66659 63.3705ZM162.805 52.6447C162.131 52.6316 164.874 52.5554 165.453 52.5656C165.495 52.5788 162.904 52.6447 162.805 52.6447ZM60.3976 60.9399C60.3397 60.9286 59.1731 61.0819 59.4225 61.0622C59.5795 61.0499 60.4312 60.9473 60.3976 60.9399ZM166.836 52.5594C167.094 52.5512 167.696 52.5631 167.485 52.5758C167.213 52.592 166.769 52.5617 166.836 52.5594ZM189.964 52.8663C189.846 52.858 188.34 52.8183 188.962 52.8604C189.394 52.8896 189.463 52.8668 189.565 52.8707C189.679 52.8742 192.123 53.0092 189.964 52.8663ZM147.43 53.1145C148.002 53.0824 148.694 53.0608 149.293 53.0356C149.049 53.0563 147.674 53.118 147.43 53.1145ZM64.7928 60.4376C64.6469 60.4469 60.9528 60.861 63.0531 60.6454C63.1729 60.6331 65.2097 60.4123 64.7928 60.4376ZM224.444 56.0809C224.334 56.0637 224.206 56.0433 224.058 56.019C224.205 56.0421 224.333 56.0629 224.444 56.0809ZM214.354 54.7291C214.563 54.7398 213.517 54.6171 213.212 54.5909C213.111 54.5951 214.326 54.7271 214.354 54.7291ZM149.338 53.0157C149.682 52.994 150.309 52.9767 150.737 52.9593C150.665 52.9739 149.487 53.0215 149.338 53.0157ZM125.129 54.4175C125.815 54.3737 126.66 54.3091 126.672 54.2935C126.687 54.2948 126.72 54.2948 126.776 54.2933C126.832 54.2916 127.568 54.2319 127.889 54.2143C129.802 54.1024 120.503 54.7741 125.887 54.3344C125.634 54.362 125.381 54.3897 125.129 54.4175ZM93.4928 57.2576C93.0992 57.2801 92.0003 57.4166 92.2868 57.394C92.486 57.378 93.8874 57.2351 93.4928 57.2576ZM108.37 55.796C108.254 55.8032 107.201 55.9127 107.175 55.9247C107.781 55.8785 108.897 55.7628 108.37 55.796ZM90.4778 57.5501C90.2325 57.5731 89.9235 57.6347 89.9523 57.6329C90.2018 57.6172 90.8911 57.5229 90.4778 57.5501ZM222.634 55.7307C222.28 55.6697 221.137 55.5283 220.886 55.5132C220.84 55.5031 220.716 55.4809 220.488 55.4437C220.489 55.4438 220.49 55.4439 220.49 55.444C220.203 55.3643 210.868 54.2301 217.125 55.0233C217.32 55.0491 217.055 54.998 217.85 55.1018C217.902 55.1087 217.927 55.1259 218.089 55.1473C218.463 55.1948 220.44 55.4679 220.837 55.5138C220.84 55.5168 220.865 55.5228 220.919 55.5326C221.403 55.6191 222.91 55.7769 222.634 55.7307ZM110.466 55.6038C110.252 55.6176 109.578 55.6833 109.51 55.7019C109.844 55.6776 110.962 55.5715 110.466 55.6038ZM64.6714 60.4004C64.2397 60.4391 63.1597 60.5805 63.488 60.5535C63.6876 60.5372 65.1677 60.3559 64.6714 60.4004ZM103.724 56.2343C106.246 56.0094 104.325 56.1759 104.709 56.1212C104.38 56.1588 104.052 56.1965 103.724 56.2343ZM234.013 57.7238C233.627 57.6436 234.089 57.6977 234.511 57.8018C234.643 57.8345 234.229 57.7687 234.013 57.7238ZM251.467 62.0045C251.152 61.8754 252.731 62.3746 252.107 62.2075C252.079 62.1992 251.49 62.0124 251.467 62.0045ZM239.326 58.8202C239.056 58.7818 238.883 58.7448 238.136 58.5754C239.245 58.8136 238.222 58.5673 239.326 58.8202ZM126.665 54.2918C126.669 54.2923 126.673 54.2927 126.672 54.2935C126.667 54.2931 126.665 54.2925 126.665 54.2918ZM88.1277 57.8039C87.8136 57.8189 86.9422 57.9132 87.2038 57.9038C87.2288 57.9028 88.0011 57.8309 88.1277 57.8039ZM220.886 55.5132C220.926 55.5221 220.905 55.5213 220.837 55.5138C220.834 55.5109 220.852 55.5111 220.886 55.5132ZM92.853 57.2933C92.8288 57.3093 94.1571 57.1778 94.2052 57.1714C94.9512 57.0712 93.4278 57.2328 92.853 57.2933ZM55.8703 61.3742C55.8022 61.3832 56.246 61.369 56.5153 61.3249C56.7237 61.2908 56.1248 61.3403 55.8703 61.3742ZM241.849 59.3967C242.259 59.4944 242.833 59.6348 242.935 59.6772C242.663 59.6071 241.838 59.4062 241.849 59.3967ZM250.851 61.7967C250.367 61.673 249.268 61.3543 248.562 61.1538C248.557 61.1233 250.402 61.6668 250.851 61.7967ZM223.757 55.9071C223.723 55.9005 222.685 55.7386 222.825 55.777C223.029 55.8321 224.048 55.9604 223.757 55.9071ZM57.9244 61.1625C58.3988 61.0972 57.2994 61.184 56.8053 61.2678C56.5502 61.3111 57.8431 61.1737 57.9244 61.1625ZM85.4083 58.0709C84.7914 58.1474 86.3249 58.0002 86.5387 57.9592C86.2527 57.9884 85.6273 58.0437 85.4083 58.0709ZM106.624 55.9098C104.672 56.0396 105.742 56.0354 106.086 55.9947C106.134 55.989 106.672 55.9065 106.624 55.9098ZM2.4906 54.5312C2.66271 54.293 1.97616 55.1492 1.92816 55.2636C1.88422 55.3392 2.36756 54.6879 2.4906 54.5312ZM136.239 53.6414C136.156 53.6466 136.074 53.6517 135.992 53.6568C136.053 53.6523 136.134 53.6471 136.239 53.6414ZM79.7481 58.6177C81.1538 58.5371 81.003 58.4968 81.1244 58.4837C81.3862 58.4557 82.009 58.4076 82.4973 58.351C81.9372 58.4205 81.3609 58.4919 80.7954 58.5624C81.2758 58.5141 85.0711 58.1286 85.1515 58.1087C85.2635 58.0795 84.0677 58.2141 84.0333 58.2164C83.983 58.2197 83.7915 58.1928 83.6807 58.2031C83.5221 58.2168 80.2719 58.5712 79.7481 58.6177ZM102.509 56.3078C102.828 56.2827 102.92 56.2927 103.068 56.274C103.118 56.2676 103.124 56.249 103.296 56.2279C103.034 56.2545 102.771 56.2811 102.509 56.3078ZM77.2674 58.9591C76.8728 58.9809 78.6315 58.794 78.6899 58.7901C78.9929 58.7715 77.5881 58.9413 77.2674 58.9591ZM92.1784 57.3472C92.1127 57.3526 90.7506 57.4879 90.7635 57.4989C91.1225 57.4703 92.947 57.2834 92.1784 57.3472ZM103.509 56.2063C103.987 56.1626 104.896 56.0947 104.789 56.0777C104.789 56.0778 104.788 56.0779 104.787 56.0779C104.36 56.1206 103.935 56.1634 103.509 56.2063ZM59.5542 60.9216C58.6586 60.9795 59.0854 60.9859 59.8779 60.9104C60.1156 60.8642 59.7012 60.9121 59.5542 60.9216ZM56.7197 61.2084C56.4695 61.229 53.9826 61.515 54.3662 61.495C54.4996 61.4884 55.929 61.3083 55.997 61.3021C56.098 61.2932 55.641 61.3696 56.409 61.2786C56.3629 61.2752 56.8034 61.2016 56.7197 61.2084ZM58.8143 60.9774C57.9287 61.0444 57.7395 61.1262 58.4006 61.0519C58.6594 61.0229 58.9408 60.9679 58.8143 60.9774ZM62.4101 60.5763C62.1059 60.605 61.2831 60.6898 60.6849 60.7775C61.4911 60.6881 62.228 60.6064 62.9858 60.5223C63.0716 60.5012 62.6786 60.551 62.408 60.5765C62.4087 60.5765 62.4094 60.5764 62.4101 60.5763ZM255.878 63.2143C255.233 62.9815 256.733 63.4747 256.793 63.5017C256.976 63.5783 256.166 63.3177 255.878 63.2143ZM6.6954 50.8826C6.85533 50.7448 6.96939 50.6692 7.31782 50.3402C6.94694 50.6507 6.59161 50.9547 6.25161 51.2523C6.02299 51.5201 6.5182 51.0341 6.6954 50.8826ZM8.05474 49.8493C8.01562 49.8853 8.27232 49.7358 7.72565 50.1658C7.33837 50.4642 9.28983 48.734 9.7405 48.4108C9.30594 48.7828 8.39619 49.538 8.05474 49.8493ZM12.0607 46.8765C12.0871 46.86 11.1805 47.5854 11.0818 47.6623C10.532 48.0801 11.8801 46.982 12.0607 46.8765ZM9.30221 49.0974C9.6832 48.7918 8.85903 49.494 8.62591 49.6888C8.59288 49.7016 9.23969 49.1463 9.30221 49.0974ZM249.407 60.3395C248.88 60.1486 248.375 60.0956 249.208 60.3125C249.248 60.3229 249.43 60.3478 249.407 60.3395ZM11.2089 47.6254C10.7859 47.9492 11.7017 47.207 11.9985 46.9844C12.0286 46.9735 11.2694 47.5777 11.2089 47.6254ZM249.054 60.1414C248.345 59.9129 248.572 60.076 248.66 60.1046C249.026 60.2211 250.295 60.5456 250.554 60.6126C248.668 60.0824 249.386 60.2508 249.054 60.1414ZM245.746 59.3036C245.092 59.1433 246.748 59.5962 247.085 59.6616C246.748 59.5715 245.936 59.3495 245.746 59.3036ZM241.751 58.2776C241.395 58.1887 240.33 57.9333 240.146 57.9077C240.54 57.9939 241.597 58.2562 241.751 58.2776ZM240.951 58.0433C240.394 57.8933 240.246 57.9204 240.897 58.0528C240.922 58.0579 240.971 58.0492 240.951 58.0433ZM237.784 57.3121C237.417 57.2088 236.979 57.1747 237.583 57.3052C237.762 57.344 237.823 57.3233 237.784 57.3121ZM248.183 59.7919C247.659 59.6368 246.968 59.4915 248.093 59.804C247.696 59.7012 247.299 59.5997 246.9 59.4993C248.373 59.9207 248.276 59.8397 248.699 59.9587C249.287 60.1271 249.227 60.1601 249.105 60.1408C249.597 60.2468 251.637 60.8372 252.8 61.1932C251.782 60.8653 250.112 60.3518 249.085 60.0562C248.792 59.9713 248.503 59.9043 248.252 59.8334C247.85 59.72 248.213 59.8007 248.185 59.7925C248.185 59.7923 248.184 59.7921 248.183 59.7919ZM233.63 56.4604C232.554 56.2255 233.228 56.4135 233.839 56.5224C233.866 56.5267 233.657 56.4663 233.63 56.4604ZM12.5477 46.7939C11.2996 47.7488 12.0773 47.0593 9.73944 49.0418C10.693 48.2068 9.77554 48.9789 9.95758 48.8102C10.1009 48.6761 10.6968 48.201 10.3402 48.4639C10.7717 48.1293 12.8928 46.4509 13.021 46.3657C13.0201 46.3665 13.0191 46.3672 13.0182 46.3679C13.0802 46.3233 12.9607 46.4827 12.5477 46.7939ZM241.781 58.1291C241.437 57.9757 241.271 58.0503 240.574 57.8295C239.612 57.6907 243.181 58.4391 243.583 58.6219C239.759 57.6781 246.09 59.3133 243.449 58.5516C245.632 59.1371 244.171 58.7184 244.512 58.7897C244.878 58.866 246.106 59.2013 246.05 59.1603C246.049 59.1601 246.048 59.1599 246.048 59.1598C245.295 58.9641 244.539 58.7728 243.779 58.5857C244.508 58.8256 242.962 58.4223 242.442 58.2518C242.222 58.2105 242.002 58.1696 241.781 58.1291ZM246.061 59.2527C245.989 59.2303 244.346 58.8161 244.448 58.8554C244.669 58.9146 246.993 59.5138 246.061 59.2527ZM253.332 61.3218C252.748 61.139 251.841 60.8531 251.513 60.778C252.104 60.9536 253.008 61.2425 253.332 61.3218ZM222.457 54.5257C221.685 54.4306 224.051 54.7826 223.37 54.6617C223.337 54.6554 222.495 54.5301 222.457 54.5257ZM240.04 57.7356C239.265 57.5381 239.619 57.6877 240.2 57.8018C240.234 57.8084 240.076 57.7447 240.04 57.7356ZM11.5437 47.594C11.4919 47.65 9.8022 49.0068 9.54709 49.2301C9.66786 49.0977 11.559 47.5491 11.5437 47.594ZM254.378 61.5856C253.239 61.157 251.627 60.7445 251.452 60.692C251.279 60.6388 251.559 60.6948 251.52 60.6823C251.432 60.6516 249.571 60.1119 249.478 60.0903C249.413 60.0733 249.741 60.205 249.352 60.1065C250.118 60.2908 253.491 61.3213 253.659 61.3792C253.794 61.4188 252.793 61.0614 254.376 61.5849C254.376 61.5852 254.377 61.5853 254.378 61.5856ZM251.017 60.5547C251.477 60.706 250.176 60.3252 249.86 60.2303C249.161 60.0159 250.96 60.5333 251.017 60.5547ZM247.872 59.6458C247.72 59.599 246.369 59.2328 246.258 59.2229C246.867 59.405 248.216 59.748 247.872 59.6458ZM232.805 56.1813C232.452 56.1157 231.48 55.9217 231.421 55.9267C231.777 55.9891 232.747 56.1852 232.805 56.1813ZM6.13813 52.4659C6.56823 52.0626 5.59383 53.0224 5.34823 53.2776C5.31828 53.289 6.09186 52.5045 6.13813 52.4659ZM239.94 57.565C239.743 57.5037 235.407 56.5849 234.839 56.4914C235.391 56.6008 239.685 57.5223 239.867 57.5695C239.923 57.5806 239.966 57.5717 239.94 57.565ZM249.09 59.8761C249.485 59.9643 249.731 60.0626 249.779 60.0768C250.259 60.2166 251.25 60.5028 251.026 60.4596C250.19 60.2006 248.303 59.7006 249.09 59.8761ZM232.52 56.0251C231.068 55.7598 233.849 56.3092 233.487 56.2185C233.464 56.2123 232.67 56.0522 232.52 56.0251ZM240.419 57.6676C240.751 57.713 244.981 58.7551 245.643 58.9415C245.033 58.8175 244.553 58.6686 243.739 58.4676C243.519 58.4136 243.574 58.4416 243.55 58.4357C243.169 58.3424 243.458 58.3972 243.223 58.3392C243.08 58.2968 239.966 57.585 240.419 57.6676ZM249.316 59.9239C249.561 59.974 252.191 60.7412 252.291 60.7809C253.074 61.0386 249.528 59.9777 249.316 59.9239ZM240.033 57.5494C240.504 57.614 242.611 58.1369 241.16 57.8156C241.021 57.7848 240.439 57.6326 240.033 57.5494ZM232.682 56.0184C232.612 56.0026 231.097 55.7137 231.067 55.7219C231.288 55.764 233.492 56.184 232.682 56.0184ZM233.472 56.1277C233.436 56.121 233.785 56.2121 233.078 56.0731C233.019 56.0618 232.915 56.0133 232.021 55.8559C231.839 55.824 231.555 55.7894 231.575 55.7942C232.501 56.0026 235.298 56.4702 233.472 56.1277ZM249.37 59.917C249.231 59.8658 249.584 59.9312 249.889 60.0363C250.02 60.0814 249.767 60.0291 249.37 59.917ZM227.854 55.1464C228.75 55.2745 225.948 54.8066 225.801 54.7927C225.891 54.8178 227.766 55.1317 227.854 55.1464ZM5.32098 53.5137C5.32142 53.5132 5.32186 53.5128 5.3223 53.5123C4.85903 53.9957 5.13211 53.6827 5.10944 53.7054C4.85853 53.9644 4.72481 54.1097 4.58826 54.2628C4.44451 54.4245 4.37098 54.5138 4.32814 54.5685C4.24334 54.6777 4.28243 54.6483 4.19596 54.7534C3.84072 55.1965 3.83853 55.1091 3.33021 55.8168C4.19739 54.6373 3.38482 55.7083 3.3555 55.7273C3.28292 55.7707 3.55882 55.3999 3.98567 54.9086C4.19295 54.6692 4.4658 54.3689 4.67471 54.1468C4.85103 53.9602 5.01712 53.7867 5.12794 53.6638C5.18672 53.5966 4.71685 54.0724 4.86952 53.8984C5.33369 53.346 7.24747 51.592 5.32098 53.5137ZM250.129 60.1021C250.478 60.1762 253.025 60.9617 252.344 60.7741C252.238 60.7389 249.625 59.9829 250.129 60.1021ZM126.799 52.7984C127.438 52.7353 125.954 52.8222 125.681 52.8559C125.545 52.8724 126.519 52.826 126.799 52.7984ZM116.474 53.5296C115.711 53.5967 114.915 53.7356 115.861 53.6446C115.962 53.6349 116.562 53.5321 116.474 53.5296ZM166.172 51.0179C165.379 51.0023 165.427 51.049 166.009 51.041C166.214 51.0383 166.197 51.0184 166.172 51.0179ZM135.97 52.1595C135.891 52.1625 134.977 52.2215 135.011 52.2303C135.349 52.2157 136.483 52.1399 135.97 52.1595ZM166.424 51.0083C165.954 51.0223 166.764 51.0467 167.338 51.008C167.046 51.0134 166.473 51.0068 166.424 51.0083ZM238.445 57.0886C238.053 57.0221 236.953 56.7803 236.316 56.6524C236.254 56.6123 237.995 56.9926 238.445 57.0886ZM119.663 53.2973C118.952 53.372 120.48 53.2643 120.338 53.2523C120.318 53.2526 119.691 53.2943 119.663 53.2973ZM191.727 51.3968C191.202 51.3877 192.864 51.4843 192.408 51.4369C192.385 51.4347 191.755 51.3971 191.727 51.3968ZM198.958 51.8025C198.565 51.7708 196.882 51.6696 197.536 51.7242C197.638 51.732 198.928 51.8137 198.958 51.8025ZM4.17878 54.8017C4.33329 54.6496 3.51654 55.6389 3.43501 55.7601C3.38431 55.817 3.94458 55.0159 4.17878 54.8017ZM161.03 51.0997C160.62 51.1114 159.558 51.13 159.371 51.1483C159.872 51.1328 161.165 51.1235 161.03 51.0997ZM122.919 53.0421C122.293 53.0617 121.231 53.1476 121.496 53.1635C122.671 53.0698 121.348 53.1415 122.919 53.0421ZM169.066 50.9548C168.737 50.9547 168.485 50.9918 168.523 50.9931C168.879 51.0062 169.393 50.9665 169.066 50.9548ZM144.417 51.6842C144.397 51.6699 143.348 51.7286 143.488 51.7314C143.534 51.7322 144.433 51.6955 144.417 51.6842ZM224.836 54.5592C224.359 54.4715 225.825 54.685 226.261 54.7724C226.471 54.8285 224.887 54.5675 224.836 54.5592ZM178.174 50.9916C178.222 50.9692 176.575 50.9637 177.223 50.9892C177.383 50.9954 178.157 50.9986 178.174 50.9916ZM193.948 51.4581C192.843 51.4243 197.478 51.695 196.262 51.5958C196.176 51.5869 194.045 51.4593 193.948 51.4581ZM201.493 51.9387C201.307 51.9225 201.397 51.8531 202.191 51.9408C202.295 51.9522 201.806 51.936 201.891 51.9468C201.942 51.952 203.664 52.0938 203.743 52.0994C203.828 52.1042 203.73 52.0723 203.817 52.0764C203.915 52.0809 204.971 52.1872 205.524 52.2347C206.566 52.3237 206.679 52.3151 206.765 52.3223C207.013 52.3441 207.43 52.3955 207.932 52.4419C210.47 52.6701 214.303 53.0669 216.335 53.3612C214.54 53.1268 212.828 52.9544 211.068 52.7792C211.591 52.7887 208.46 52.5509 210.292 52.6845C209.463 52.5894 202.126 51.9729 201.495 51.9389C201.495 51.9388 201.494 51.9388 201.493 51.9387ZM113.469 53.764C113.932 53.6978 111.543 53.9117 111.345 53.9597C111.659 53.9355 113.41 53.7716 113.469 53.764ZM124.451 52.8141C124.672 52.7933 124.879 52.7271 126.046 52.6672C126.047 52.6671 126.048 52.667 126.049 52.667C126.391 52.6495 126.003 52.69 126.066 52.6898C126.089 52.6898 127.154 52.6376 126.271 52.7055C124.925 52.81 126.141 52.6776 125.424 52.7297C125.336 52.7359 123.982 52.864 124.061 52.8642C124.069 52.8642 124.477 52.8279 124.544 52.8254C124.8 52.8157 124.677 52.8405 124.713 52.8385C124.83 52.8311 126.976 52.6474 127.291 52.6489C127.392 52.6476 123.868 52.9234 123.733 52.9315C123.646 52.9356 123.679 52.8897 123.589 52.8922C123.542 52.8934 122.131 53.0177 121.948 53.0282C121.895 53.0312 121.854 53.0331 121.824 53.0344C122.039 53.031 120.762 53.1299 120.8 53.1119C120.822 53.1042 121.7 53.0387 121.732 53.0374C121.746 53.0368 121.758 53.0365 121.769 53.036C121.584 53.0329 124.567 52.8061 123.921 52.8311C124.786 52.7528 123.801 52.8759 124.451 52.8141ZM128.621 52.4858C128.532 52.4965 128.444 52.5073 128.354 52.5181C129.861 52.4012 131.6 52.3057 133.342 52.1943C133.784 52.1661 133.274 52.1706 133.854 52.1414C134.319 52.1181 134.835 52.1121 134.582 52.1335C134.521 52.1387 133.574 52.1812 133.101 52.2135C131.706 52.3087 132.061 52.3103 131.979 52.3161C131.889 52.3226 131.011 52.3638 130.532 52.397C129.327 52.4807 128.791 52.5319 127.125 52.6314C128.081 52.5475 127.556 52.5503 128.621 52.4858ZM185.14 51.0676C185.198 51.0539 186.19 51.0968 186.549 51.1065C186.492 51.1196 185.501 51.0754 185.14 51.0676ZM37.7396 61.6836C37.437 61.7383 39.7056 61.5233 39.106 61.5611C38.9714 61.5699 38.0206 61.657 37.7396 61.6836ZM47.9341 60.6519C48.2376 60.6124 47.01 60.7265 47.0157 60.745C47.0174 60.7511 47.8941 60.6572 47.9341 60.6519ZM148.187 51.3973C148.245 51.3939 149.086 51.364 149.112 51.3643C149.67 51.3666 146.903 51.4694 148.187 51.3973ZM60.3639 59.2418C59.2895 59.3795 62.5243 59.0208 61.5397 59.1114C61.5076 59.114 60.4121 59.2355 60.3639 59.2418ZM64.7537 58.7402C64.5015 58.7697 63.3898 58.8876 63.3768 58.8966C63.3551 58.9113 64.6281 58.7754 64.7537 58.7402ZM169.288 50.8602C169.164 50.8327 170.662 50.8464 171.182 50.8425C171.306 50.8697 169.808 50.853 169.288 50.8602ZM159.839 50.9798C166.145 50.8301 164.756 50.9114 159.464 51.0023C159.456 50.9847 159.442 50.9906 159.839 50.9798ZM167.919 50.8528C167.69 50.8724 166.972 50.8739 166.487 50.878C166.575 50.8645 167.569 50.8587 167.919 50.8528ZM35.0994 61.8932C35.4698 61.8375 37.1703 61.7054 36.8703 61.7428C36.795 61.7527 34.9579 61.9193 35.0994 61.8932ZM148.714 51.3511C148.566 51.3297 150.461 51.2633 150.606 51.2644C151.192 51.2652 148.867 51.3376 148.714 51.3511ZM178.238 50.8665C178.574 50.8494 179.527 50.874 180.14 50.885C179.861 50.898 178.758 50.8732 178.238 50.8665ZM173.83 50.8142C173.869 50.8133 174.72 50.8189 174.758 50.8203C175.455 50.8441 173.047 50.8284 173.83 50.8142ZM6.14392 52.9647C6.12227 52.9856 5.69828 53.4127 5.68631 53.4256C5.29432 53.7935 6.57219 52.5089 6.14392 52.9647Z" fill="url(#paint0_linear_89_189)"/>
<path d="M64.452 48L68.362 19.94H59.668L60.542 13.73H84.922L84.048 19.94H75.492L71.582 48H64.452ZM78.8478 48L95.2238 13.73H104.7L111.508 48H104.01L102.722 41.008H90.2098L86.9438 48H78.8478ZM93.0618 34.798H101.572L98.6278 18.698L100.514 18.928L93.0618 34.798ZM128.961 48.552C126.569 48.552 124.392 48.1533 122.429 47.356C120.497 46.5587 118.872 45.424 117.553 43.952C116.235 42.48 115.33 40.7627 114.839 38.8L120.865 36.454C121.479 38.2633 122.506 39.7047 123.947 40.778C125.389 41.8207 127.014 42.342 128.823 42.342C129.866 42.342 130.771 42.1733 131.537 41.836C132.335 41.468 132.948 40.9773 133.377 40.364C133.837 39.7507 134.067 39.0607 134.067 38.294C134.067 37.558 133.837 36.9293 133.377 36.408C132.917 35.8867 132.166 35.4573 131.123 35.12L125.051 33.05C122.537 32.1913 120.666 31.0107 119.439 29.508C118.243 27.9747 117.645 26.104 117.645 23.896C117.645 21.872 118.182 20.0627 119.255 18.468C120.359 16.8427 121.831 15.5547 123.671 14.604C125.542 13.6533 127.643 13.178 129.973 13.178C132.151 13.178 134.113 13.546 135.861 14.282C137.64 14.9873 139.127 15.9993 140.323 17.318C141.519 18.6367 142.347 20.2007 142.807 22.01L136.827 24.356C136.337 22.792 135.463 21.5807 134.205 20.722C132.979 19.8327 131.507 19.388 129.789 19.388C128.777 19.388 127.888 19.5567 127.121 19.894C126.385 20.2007 125.803 20.6453 125.373 21.228C124.975 21.8107 124.775 22.5007 124.775 23.298C124.775 24.126 125.021 24.816 125.511 25.368C126.002 25.92 126.769 26.38 127.811 26.748L133.745 28.818C136.26 29.6767 138.131 30.842 139.357 32.314C140.615 33.786 141.243 35.6107 141.243 37.788C141.243 39.812 140.676 41.6367 139.541 43.262C138.437 44.8873 136.95 46.1753 135.079 47.126C133.239 48.0767 131.2 48.552 128.961 48.552ZM144.987 48L149.771 13.73H156.901L154.509 30.888L152.623 30.198L168.631 13.73H177.555L161.685 30.106L162.835 25.046L173.047 48H165.181L158.695 33.188L153.405 38.616L152.117 48H144.987ZM176.567 48L181.351 13.73H188.481L184.571 41.79H199.061L198.187 48H176.567ZM206.423 48L208.493 33.05L199.845 13.73H207.527L213.783 28.266H210.839L221.097 13.73H229.745L215.715 33.004L213.645 48H206.423Z" fill="url(#paint1_linear_89_189)"/>
<path d="M19.2849 37.1984L19.1476 37.208L13.9822 41.4084L13.9696 41.5191L14.1008 41.55L23.8833 38.0751L23.9413 38.0246L25.5948 34.2774L25.5691 34.1859L22.4395 31.6401L22.3203 31.6217L17.9618 33.1683L17.9059 33.2138L13.6328 41.1689L13.6707 41.276L13.8073 41.2656L18.9719 37.0655L18.9832 36.9536C18.6438 36.5608 18.6879 36.0164 19.1186 35.6655C19.6028 35.2731 20.3845 35.2731 20.8686 35.6655C21.3504 36.0593 21.3504 36.6948 20.8686 37.0883C20.4373 37.4395 19.7679 37.4747 19.2849 37.1984Z" fill="url(#paint2_linear_89_189)"/>
<path d="M30.1738 22.6499L36.872 28.0968C45.0297 21.2587 54.5848 11.1278 52.8112 9.68604C51.0392 8.24446 38.5823 16.0151 30.1738 22.6499Z" fill="url(#paint3_linear_89_189)"/>
<path d="M24.5816 32.6449C26.1128 33.8905 27.0241 35.2501 32.0061 31.8554L25.5531 26.6068C21.3787 30.6588 23.0505 31.3994 24.5816 32.6449Z" fill="#65309E"/>
<path d="M32.0077 31.8553C32.5689 31.473 33.1821 31.03 33.8528 30.5201L27.1965 25.1059C26.5693 25.6519 26.0239 26.1508 25.5547 26.6068L32.0077 31.8553Z" fill="#D01BCE"/>
<path d="M27.1953 25.1059L33.8515 30.5201C34.4384 30.0741 35.0654 29.5818 35.7471 29.0275C36.1179 28.7264 36.4936 28.4139 36.8723 28.0968L30.1742 22.6499C29.7844 22.9572 29.4005 23.2632 29.0294 23.5646C28.3486 24.1185 27.7431 24.6288 27.1953 25.1059Z" fill="#40388D"/>
<defs>
<linearGradient id="paint0_linear_89_189" x1="1" y1="55" x2="257" y2="55" gradientUnits="userSpaceOnUse">
<stop stop-color="#3A3A8A" stop-opacity="0.68"/>
<stop offset="1" stop-color="#F814E1" stop-opacity="0.66"/>
</linearGradient>
<linearGradient id="paint1_linear_89_189" x1="169" y1="48" x2="57" y2="29" gradientUnits="userSpaceOnUse">
<stop stop-color="#F813E1"/>
<stop offset="1" stop-color="#283D82"/>
</linearGradient>
<linearGradient id="paint2_linear_89_189" x1="19.6138" y1="31.6217" x2="19.6138" y2="41.55" gradientUnits="userSpaceOnUse">
<stop stop-color="#3F398C"/>
<stop offset="1" stop-color="#E616D9"/>
</linearGradient>
<linearGradient id="paint3_linear_89_189" x1="41.5999" y1="9.51154" x2="41.5999" y2="28.0968" gradientUnits="userSpaceOnUse">
<stop stop-color="#F813E1"/>
<stop offset="1" stop-color="#7E2CA9"/>
</linearGradient>
</defs>
</svg>
