<svg width="38" height="40" viewBox="0 0 38 40" fill="none" xmlns="http://www.w3.org/2000/svg">
<path fill-rule="evenodd" clip-rule="evenodd" d="M16.625 10C16.625 8.61929 17.6883 7.5 19 7.5C20.3117 7.5 21.375 8.61929 21.375 10C21.375 11.3807 20.3117 12.5 19 12.5C17.6883 12.5 16.625 11.3807 16.625 10ZM16.625 20C16.625 18.6193 17.6883 17.5 19 17.5C20.3117 17.5 21.375 18.6193 21.375 20C21.375 21.3807 20.3117 22.5 19 22.5C17.6883 22.5 16.625 21.3807 16.625 20ZM16.625 30C16.625 28.6193 17.6883 27.5 19 27.5C20.3117 27.5 21.375 28.6193 21.375 30C21.375 31.3807 20.3117 32.5 19 32.5C17.6883 32.5 16.625 31.3807 16.625 30Z" fill="white"/>
</svg>
