<svg width="48" height="43" viewBox="0 0 48 43" fill="none" xmlns="http://www.w3.org/2000/svg">
<path d="M0.516009 36.2342C0.508698 36.2736 0.450558 36.421 0.433843 36.4861C0.402712 36.3983 0.541407 36.092 0.516009 36.2342ZM4.48076 39.0717C4.44892 39.085 4.4178 39.098 4.38741 39.1106C4.4722 39.1212 4.59985 39.1098 4.69646 39.118C4.71223 39.1195 4.67309 39.1596 4.7104 39.1597C4.74814 39.1597 4.73805 39.1077 4.79336 39.099C4.84715 39.0917 5.17915 39.0997 5.26686 39.087C5.63158 39.0428 6.10951 38.9314 6.5035 38.8738C6.08592 38.9949 6.51892 38.9517 6.64095 38.9087C6.66956 38.898 6.63569 38.8088 7.10076 38.7306C7.39571 38.6789 7.1774 38.8739 7.62169 38.6963C7.2437 38.6861 7.59035 38.6119 7.87803 38.5367C7.92603 38.5246 8.33727 38.4354 8.52442 38.3812C8.58629 38.3634 8.6772 38.2864 8.75361 38.2646C8.80765 38.2492 8.85602 38.2652 8.93713 38.2418C9.31561 38.133 9.70254 38.023 10.1127 37.9163C9.90973 38.1104 10.3182 37.9161 10.3303 37.919C10.4358 37.9261 10.0086 38.0583 10.1861 38.031C10.4223 37.9596 10.6449 37.8914 10.8799 37.8192C10.683 37.8594 11.104 37.6393 11.2007 37.6558C11.1307 37.5557 12.32 37.4343 12.4716 37.3492C12.5052 37.3309 12.2557 37.3442 12.8024 37.2114C12.8619 37.197 12.8495 37.2371 12.8794 37.2249C12.8973 37.2177 12.9779 37.0781 13.1152 37.102C13.1661 37.1106 12.9031 37.2634 13.5153 37.0541C13.2452 37.0147 14.3363 36.7512 14.5483 36.7204C14.5039 36.7174 14.4595 36.7143 14.4152 36.7112C14.6252 36.6935 14.651 36.6461 14.6965 36.6352C14.8802 36.5912 15.1424 36.5568 15.3132 36.5048C15.5142 36.4436 15.4929 36.3764 15.7288 36.3386C15.6704 36.3389 15.6122 36.3391 15.554 36.3393C15.7121 36.2987 15.871 36.2581 16.0308 36.2175C15.6889 36.4096 16.1109 36.1997 16.1403 36.1896C16.1865 36.1733 16.129 36.2288 16.2066 36.2024C16.2145 36.1994 16.193 36.168 16.3137 36.1305C16.5664 36.0522 16.5383 36.107 16.6456 36.077C16.6555 36.0741 16.6122 36.0523 16.7965 35.9942C17.3845 35.8097 16.7996 36.0189 16.7785 36.0294C16.7506 36.0433 16.9876 36.1185 16.4745 36.2093C16.6463 36.1779 16.6792 36.2311 16.6985 36.2274C16.7154 36.2239 17.0057 36.1363 17.0216 36.1299C17.1606 36.0713 17.0229 36.0661 17.0491 36.0514C17.0695 36.0397 17.4423 35.9949 17.4893 35.8552C17.6844 35.921 17.422 35.9794 17.1394 36.0736C17.1038 36.1073 17.4226 36.0452 17.4393 36.0408C17.8339 35.9358 17.5916 35.9035 17.6628 35.8229C17.7003 35.7807 17.8785 35.7998 17.7077 35.7581C18.0664 35.6548 17.8598 35.7592 17.8849 35.76C17.9228 35.761 18.0434 35.7048 18.0601 35.7037C18.0846 35.7023 18.0109 35.7514 18.1053 35.7374C18.1209 35.7349 18.2567 35.6482 18.0596 35.6746C18.3167 35.6153 18.2855 35.5797 18.3936 35.6404C18.5303 35.438 18.5457 35.7005 18.6175 35.6916C18.8089 35.6679 18.724 35.558 18.7322 35.5495C18.7894 35.4936 19.3187 35.4071 19.4421 35.3586C19.4145 35.4595 19.0311 35.4606 18.9556 35.498C18.7022 35.6222 19.3444 35.4486 19.1775 35.6089C19.2515 35.5579 19.3257 35.507 19.4002 35.4562C19.5662 35.4921 19.3635 35.5743 19.7549 35.4519C19.805 35.374 19.4761 35.5296 19.5337 35.4639C19.5675 35.4252 19.797 35.3634 19.798 35.3472C19.7982 35.3278 19.5945 35.3997 19.6207 35.3637C19.6772 35.2852 20.4565 35.1619 19.8819 35.3329C20.0439 35.2932 20.156 35.3941 20.2883 35.3236C20.3745 35.2781 19.8196 35.2306 20.6008 35.0823C20.6302 35.1355 20.295 35.1704 20.2877 35.1768C20.2773 35.1859 20.366 35.3008 20.3776 35.3048C20.4173 35.3166 21.1942 35.0681 21.3781 35.0973C21.297 35.0362 21.9736 34.9554 22.0418 34.9185C22.0599 34.9082 21.9781 34.8774 21.9978 34.8683C22.1206 34.8124 22.487 34.823 22.6502 34.7933C22.8328 34.7598 22.8021 34.7249 22.8123 34.7229C22.893 34.7095 22.834 34.7488 22.8831 34.7393C22.9569 34.7242 23.4694 34.6337 23.4944 34.6238C23.5016 34.6207 23.4095 34.5907 23.5198 34.5616C23.5388 34.5568 23.5369 34.6119 23.8621 34.5302C24.2547 34.4324 23.5743 34.512 23.7294 34.4265C23.9991 34.4614 23.9769 34.3837 24.0474 34.3779C24.0719 34.376 24.2624 34.4128 24.4564 34.3764C24.3184 34.4105 24.1807 34.4451 24.0434 34.4802C24.1822 34.4682 24.4462 34.4088 24.5617 34.4038C24.618 34.4014 24.5816 34.4644 24.7013 34.4435C24.7267 34.4389 24.8059 34.2864 24.5012 34.3987C24.4681 34.3543 24.6229 34.3613 24.6902 34.3365C24.7004 34.3327 24.7289 34.245 24.8259 34.2812C24.8494 34.2906 24.6536 34.5619 25.2266 34.2989C25.2451 34.2905 25.1734 34.271 25.1914 34.262C25.2037 34.2558 25.3589 34.2449 25.3753 34.2382C25.392 34.2312 25.313 34.2098 25.3327 34.2004C25.434 34.1518 25.5916 34.26 25.3719 34.2822C25.4472 34.2873 25.5224 34.2925 25.5977 34.2979C25.5056 34.2124 25.7086 34.2542 25.8091 34.2373C26.4541 34.1304 26.0122 34.1262 26.1192 34.0785C26.2922 34.0027 26.1764 34.1861 26.4367 34.1024C26.4609 34.095 26.1288 34.0634 26.7648 34.0265C26.6719 34.0402 26.5791 34.0543 26.4864 34.0686C26.5516 34.1556 26.8217 34.0214 26.8436 34.0177C27.0904 33.9764 26.926 34.0287 27.29 33.9402C27.3226 33.9323 27.3969 33.9479 27.4663 33.9291C27.7543 33.8512 27.077 33.9402 27.0544 33.9054C27.0432 33.8864 27.7751 33.8152 27.8014 33.8232C27.9118 33.8521 27.4712 33.8728 27.5597 33.9135C27.5908 33.925 28.633 33.7966 28.8456 33.8047C29.0902 33.8101 29.207 33.932 29.1999 33.788C29.2769 33.925 29.3316 33.8253 29.3628 33.8245C29.7392 33.8172 29.7398 33.819 30.0619 33.7923C30.1331 33.7867 30.1949 33.8275 30.2199 33.8194C30.2345 33.8145 30.2054 33.7695 30.2772 33.753C30.377 33.729 30.982 33.7637 31.0269 33.7898C31.072 33.8145 30.7724 33.8044 30.8268 33.8454C31.0433 33.846 31.2509 33.8339 31.469 33.8386C31.5596 33.8408 31.5129 33.8699 31.552 33.8706C31.5686 33.8706 31.8815 33.8478 31.8685 33.8372C31.8377 33.8083 30.8712 33.8278 31.1253 33.7761C31.1744 33.7657 31.3483 33.8323 31.3204 33.7506C32.1839 33.7666 33.0541 33.8153 33.9207 33.9026C33.4178 33.9238 32.8601 33.8393 32.3371 33.8309C32.2659 33.8293 32.0251 33.8164 32.0536 33.8585C32.4934 33.8768 33.0493 33.8782 33.473 33.9331C33.4866 33.9349 33.4342 33.9688 33.4848 33.9779C33.5792 33.9946 33.894 33.9577 33.945 33.9778C33.9536 33.9819 33.7734 34.0171 33.8247 34.0523C33.9558 34.1426 34.0048 33.9691 34.1234 33.9814C34.2154 33.9893 34.8218 34.1358 34.9819 34.1021C35.1523 34.0632 34.5302 34.0177 34.5808 33.977C35.0058 33.9728 35.4252 34.0766 35.821 34.1296C35.828 34.1305 35.7728 34.0849 35.862 34.093C36.0171 34.1073 36.0493 34.1657 36.1225 34.1859C36.2016 34.2071 36.4871 34.2481 36.5217 34.274C36.526 34.2773 36.4596 34.3184 36.4507 34.3183C36.3237 34.318 36.291 34.2444 36.2799 34.2416C36.238 34.232 36.1922 34.2506 36.1539 34.2429C36.0908 34.2301 36.0596 34.2009 35.9759 34.1857C35.9182 34.1752 35.9671 34.2292 35.9117 34.2186C35.8916 34.2143 35.6853 34.0779 35.6495 34.1811C35.6408 34.1993 37.4304 34.5587 37.6131 34.5901C37.4625 34.5432 37.3114 34.4977 37.1598 34.4536C37.4661 34.5473 37.8598 34.5512 37.8573 34.6808C39.008 34.9624 40.1389 35.3298 41.2401 35.7944C41.4315 35.8858 41.2932 35.9144 41.622 36.0306C41.5499 35.9708 41.4773 35.9116 41.4043 35.8527C41.5634 35.9349 42.2715 36.296 42.3938 36.341C42.4098 36.3465 42.4629 36.2897 42.6454 36.3734C42.8072 36.4483 42.8075 36.5108 42.8872 36.5637C42.9541 36.6082 43.0403 36.6373 43.0599 36.6512C43.0749 36.6619 43.0655 36.695 43.1013 36.7208C43.2126 36.8011 43.1608 36.6654 43.2272 36.8252C43.1965 36.8132 43.1658 36.8013 43.135 36.7895C43.2714 36.8806 43.4418 37.0321 43.2201 36.9376C43.182 36.9216 43.2286 36.9099 43.2016 36.8953C42.1174 36.3329 42.9621 36.8383 43.3497 36.9983C43.4217 37.0906 43.9625 37.3728 43.9745 37.3937C43.9915 37.4201 43.8823 37.399 43.982 37.4985C44.004 37.5155 44.7091 37.9351 44.4258 37.8294C44.3678 37.8065 44.0441 37.5861 43.9624 37.5397C44.0978 37.7397 44.6138 37.8992 44.6614 37.9371C44.8503 38.0818 44.2326 37.7593 44.6711 38.0646C45.0065 38.3032 44.7252 38.0293 44.8728 38.0946C44.9605 38.1331 45.283 38.4544 45.3307 38.3699C45.4638 38.4537 45.359 38.4414 45.3725 38.4558C45.3859 38.469 45.6516 38.6297 45.719 38.7079C45.7271 38.7173 45.6659 38.7343 45.6734 38.7452C45.6887 38.7652 45.9312 38.9405 45.9432 38.9451C45.9511 38.9475 45.9222 38.8684 45.952 38.8781C45.9869 38.8891 46.2069 39.0786 46.2272 39.0793C46.2571 39.0781 45.9692 38.8639 46.0466 38.8625C46.1686 38.9744 46.399 39.12 46.5093 39.1606C46.4813 39.1518 46.3555 39.05 46.3145 39.0116C46.3811 38.9711 46.6491 39.1954 46.5204 39.1631C46.5984 39.1881 46.5692 39.1423 46.6207 39.1475C46.6341 39.149 46.7177 39.2178 46.7418 39.2218C46.7455 39.2217 46.6779 39.1284 46.7045 39.1316C46.753 39.1367 46.9996 39.3573 47.015 39.3811C47.0593 39.4461 46.8404 39.2866 46.8034 39.2958C46.7981 39.2971 46.931 39.4922 46.9299 39.4987C46.9024 39.5499 46.7383 39.3528 46.7266 39.4108C46.7669 39.4597 46.8069 39.5089 46.8468 39.5583C46.6319 39.4371 46.3101 39.1341 46.1846 39.1096C46.4688 39.3167 46.7489 39.5638 46.6606 39.6633C46.6236 39.7052 46.4873 39.6307 46.4824 39.6455C46.4662 39.6983 46.6613 39.7947 46.6653 39.8022C46.6681 39.8088 46.6683 39.813 46.6664 39.8152C46.6664 39.8152 46.6664 39.8152 46.6664 39.8152C46.6468 39.837 46.4064 39.6569 46.3861 39.6581C46.3515 39.6603 46.3873 39.822 46.3725 39.8386C46.3662 39.8386 46.1906 39.7198 46.2198 39.7952C46.2494 39.871 46.3879 39.9921 46.3901 39.9996C46.4014 40.0396 46.1443 39.8458 46.128 39.8508C46.1198 39.8528 46.2228 39.9967 46.2185 40.0094C46.2137 40.0214 46.0973 39.9568 46.0332 39.9535C45.9856 39.9509 46.0557 40.0394 46.038 40.0303C46.0256 40.023 45.797 39.8309 45.7823 39.826C45.7607 39.818 45.7925 39.8889 45.7792 39.889C45.7603 39.8894 45.6942 39.819 45.6957 39.8368C45.6977 39.8496 45.9064 40.1786 45.8833 40.2016C45.8451 40.2395 45.6265 39.8934 45.7667 40.2903C45.7678 40.293 45.8448 40.3387 45.8458 40.3414C45.8615 40.4066 45.608 40.2686 45.8768 40.4856C45.345 40.1215 45.7637 40.4951 45.6323 40.5029C45.582 40.5055 45.385 40.3595 45.3806 40.3632C45.3706 40.4125 45.4525 40.4357 45.4588 40.4695C45.4621 40.4878 45.2644 40.3849 45.2828 40.4398C45.2925 40.4676 45.4731 40.6115 45.4783 40.6204C45.5294 40.7017 45.4237 40.6527 45.4258 40.6814C45.4271 40.7004 45.5322 40.7917 45.5333 40.7961C45.5343 40.8036 45.3547 40.7232 45.3123 40.7134C45.2799 40.7058 45.3499 40.7956 45.3298 40.7873C45.2094 40.7363 45.07 40.4918 45.1762 40.7618C45.1826 40.7783 45.2584 40.8375 45.2595 40.8407C45.2792 40.9093 45.1417 40.7978 45.0967 40.803C45.0195 40.8115 45.2333 40.9493 45.0468 40.845C45.1443 40.9739 45.212 41.0291 45.3587 41.143C44.9509 40.8299 44.7227 40.832 45.1538 41.1905C45.0191 41.0722 44.9813 41.1483 44.9399 41.1151C44.9144 41.0942 44.7679 40.8681 44.7427 41.0839C44.7395 41.1107 44.8773 41.1877 44.8101 41.1924C44.5313 40.9466 44.7853 41.21 44.7813 41.2152C44.7105 41.2897 44.0647 40.6635 43.932 40.5885C43.7812 40.4948 43.6051 40.474 43.5742 40.4523C43.4722 40.3805 43.5816 40.4049 43.5679 40.3759C43.5565 40.3475 43.2076 40.2086 43.195 40.1958C43.1464 40.1415 43.2343 40.1388 43.2297 40.1326C43.1745 40.0561 42.7414 39.8255 42.6311 39.7465C42.6178 39.7767 42.848 39.9227 42.6754 39.8781C42.4749 39.8273 42.5405 39.6976 42.5394 39.6892C41.7684 39.226 40.9394 38.8127 40.1016 38.4716C40.0833 38.5455 40.6501 38.7252 40.658 38.7425C40.7062 38.8245 39.7909 38.4345 39.6793 38.3703C39.7611 38.4195 39.8424 38.4694 39.9232 38.5198C39.7423 38.5427 39.4535 38.3084 39.2214 38.2688C39.1468 38.256 39.2703 38.3362 39.2666 38.3375C39.1763 38.3419 39.0584 38.2726 39.1686 38.2618C38.9607 38.2367 39.0051 38.2002 38.8571 38.1467C38.8495 38.1441 38.9021 38.1993 38.7796 38.1747C38.7225 38.1625 38.4269 38.0695 38.3779 38.0882C38.3581 38.0959 38.4661 38.2752 38.5203 38.1664C38.8223 38.3239 38.6393 38.1467 38.7629 38.1895C38.7816 38.1968 38.7175 38.2441 39.0386 38.3202C38.9405 38.4133 38.6114 38.2094 38.5444 38.2047C38.409 38.1926 38.9112 38.4196 39.0365 38.3655C38.9611 38.4394 39.0692 38.3899 39.1835 38.4346C39.3084 38.4837 39.2438 38.4905 39.3119 38.5154C39.4976 38.5844 39.4441 38.4935 39.5759 38.6076C39.4922 38.3764 39.8489 38.6858 39.9454 38.7794C39.7512 38.7104 39.5524 38.6434 39.3546 38.5807C39.3624 38.5939 39.3701 38.6072 39.3778 38.6205C39.3271 38.6002 39.2763 38.5802 39.2254 38.5603C39.2368 38.5545 39.2482 38.5487 39.2596 38.5429C38.974 38.5048 38.9312 38.4198 38.9095 38.4113C38.6317 38.3083 38.3047 38.2069 38.0162 38.1245C37.9726 38.1125 37.9868 38.1776 37.6818 38.0458C37.5842 38.0042 37.6923 37.9837 37.575 37.9603C37.3985 38.0475 37.4269 37.9493 37.3837 37.9382C37.2601 37.9073 37.1769 37.9204 37.1654 37.918C37.0115 37.8861 36.7878 37.8301 36.6173 37.7993C36.6141 37.7991 36.6939 37.8563 36.5864 37.8217C36.5497 37.8095 36.2337 37.5719 35.9163 37.5726C35.9941 37.5979 36.0717 37.6236 36.149 37.6496C36.0591 37.6138 35.3937 37.5467 35.5476 37.6183C35.6416 37.6608 35.9001 37.5946 35.9082 37.7026C35.6984 37.6245 34.476 37.504 34.3815 37.477C34.3687 37.4721 34.4536 37.4473 34.4359 37.4409C34.4221 37.4357 34.1401 37.4142 34.1042 37.3981C34.0828 37.3881 34.209 37.3797 34.2001 37.3666C34.1924 37.3565 33.8417 37.309 33.8179 37.3503C33.906 37.3404 34.147 37.3783 34.0165 37.4019C33.9998 37.4048 33.9176 37.3697 33.8972 37.3736C33.7086 37.4087 34.2592 37.4465 34.3445 37.4577C33.9945 37.4737 33.4655 37.3652 33.0586 37.3783C32.8973 37.3336 33.3039 37.3385 33.1208 37.2983C32.7398 37.2162 33.0161 37.3414 33.0038 37.3452C32.9073 37.3751 32.5897 37.1693 32.5834 37.3153C32.4446 37.2881 32.4904 37.2711 32.2922 37.284C32.3179 37.2949 32.3436 37.3057 32.3693 37.3167C32.149 37.3929 31.6902 37.1737 31.7241 37.1583C31.8186 37.1155 32.0598 37.1877 32.0802 37.1867C32.1107 37.1853 32.1992 37.0378 32.531 37.1821C32.6724 37.0871 32.0005 37.0984 32.3076 37.04C32.1026 37.0415 31.2522 36.9663 31.1289 37.0139C31.1143 37.0198 31.1835 37.1176 30.9724 37.07C30.872 37.0474 31.1132 37.043 31.0672 37.0211C30.9256 36.9401 29.0046 37.0669 28.6387 37.1146C28.6149 37.1167 28.6212 37.0854 28.5978 37.0876C28.5261 37.0941 28.2685 37.1624 28.1392 37.1606C28.4098 37.1924 27.895 37.2447 27.7633 37.253C27.5634 37.2643 27.5699 37.2096 27.4825 37.2076C27.1451 37.1996 26.6473 37.3911 26.3739 37.308C26.4044 37.4235 25.9195 37.3119 25.709 37.3432C25.5444 37.3669 25.3187 37.4819 25.5472 37.4949C25.2635 37.533 24.9697 37.6034 24.7065 37.6558C24.663 37.6645 24.7173 37.6195 24.6432 37.6354C24.6365 37.6371 24.633 37.6727 24.5696 37.6873C24.0468 37.8098 24.291 37.6928 24.1883 37.6892C24.1307 37.6873 24.0883 37.689 24.0579 37.6925C24.366 37.629 24.7187 37.5549 24.8141 37.538C24.7194 37.4759 24.1339 37.6706 23.9517 37.6845C23.9454 37.6849 23.9592 37.6397 23.9529 37.6406C23.9528 37.6406 23.9527 37.6406 23.9525 37.6406C23.8853 37.6494 23.4653 37.7451 23.5618 37.7776C23.5877 37.7863 23.7819 37.7488 24.0121 37.7019C23.9513 37.7226 24.0065 37.7602 23.9958 37.7642C23.8664 37.8115 23.531 37.8285 23.414 37.8453C23.3873 37.8491 23.3949 37.8783 23.3906 37.8792C23.284 37.8931 23.3105 37.8003 23.2198 37.9086C23.0083 37.8412 23.5741 37.8227 23.5223 37.7624C23.4814 37.7126 22.2706 37.9889 22.2935 38.0731C22.2874 38.0651 22.2685 38.0577 22.2317 38.0526C22.1512 38.0407 21.8111 38.1241 21.7563 38.1524C21.7471 38.1576 21.7688 38.2366 21.7567 38.2401C21.7264 38.2484 21.298 38.2791 21.155 38.3622C21.2408 38.3542 21.3266 38.3463 21.4125 38.3385C20.9098 38.4544 20.9936 38.4609 21.1661 38.4458C21.1745 38.4441 21.1834 38.4453 21.1914 38.4437C21.3251 38.4314 21.4955 38.4106 21.4995 38.4164C21.5136 38.4372 20.6671 38.6484 20.8132 38.5366C20.8334 38.5209 21.2345 38.4621 21.0274 38.4547C20.991 38.4533 20.7422 38.5278 20.7277 38.5252C20.6295 38.5073 21.1693 38.3264 21.0893 38.2874C20.9671 38.3709 20.7887 38.3837 20.6386 38.4337C20.5703 38.4564 20.5628 38.5005 20.5544 38.5033C20.4285 38.5445 20.4905 38.4854 20.4479 38.4967C20.4249 38.5029 20.1943 38.6532 20.2121 38.5189C19.3881 38.818 20.0064 38.6633 20.5125 38.5344C20.3627 38.6175 20.0389 38.6737 19.8967 38.7202C19.8461 38.7368 19.8868 38.77 19.8018 38.7999C19.6257 38.8606 18.7644 39.0316 18.5433 39.0792C18.6743 39.0293 18.6232 38.9953 18.5199 39.0258C18.4168 39.0563 18.5198 39.0925 18.5012 39.1042C18.4833 39.1157 17.981 39.2197 17.8996 39.2503C18.2685 39.128 18.172 39.1065 17.8528 39.1875C17.8953 39.1624 17.9378 39.1373 17.9804 39.1122C17.7983 39.1801 17.3902 39.2191 17.2893 39.2686C17.2734 39.2765 17.3438 39.297 17.3349 39.3014C17.2453 39.3429 16.9179 39.3929 16.9068 39.4097C16.8973 39.4237 17.0409 39.4173 16.995 39.4465C16.9855 39.4526 16.8414 39.4386 16.7172 39.4867C16.6712 39.5044 16.7095 39.5315 16.6981 39.5369C16.6036 39.5816 16.6455 39.5061 16.4672 39.5665C16.339 39.6102 16.2489 39.6979 16.0561 39.732C16.697 39.6299 16.1659 39.7468 15.915 39.8426C15.8748 39.8579 15.9279 39.9113 15.6735 39.9507C16.164 39.6861 15.5062 39.9328 15.3704 39.9708C15.3628 39.9726 15.3481 39.9314 15.2811 39.9501C15.2754 39.9517 15.2917 39.9777 15.2303 39.9977C14.6497 40.1879 15.0156 40.0474 14.8961 40.0518C14.8442 40.0539 14.5773 40.1749 14.4956 40.1998C14.4774 40.2052 14.4772 40.1734 14.4071 40.1951C14.283 40.2335 14.181 40.2973 14.1001 40.3236C14.0907 40.3265 14.0765 40.2804 13.9266 40.3405C13.8845 40.3574 13.8408 40.3881 13.9061 40.3834C14.1199 40.3684 14.4995 40.1752 14.7317 40.1552C14.9509 40.1346 14.2964 40.3292 14.258 40.3408C14.2453 40.3447 14.3692 40.2835 14.2352 40.3177C14.1208 40.347 13.9382 40.4873 13.7665 40.5187C13.7534 40.5211 13.6006 40.4922 13.6056 40.4864C13.6102 40.4819 13.8102 40.4074 13.7749 40.3964C13.7706 40.3952 13.6408 40.4337 13.6197 40.424C13.5938 40.4123 13.4868 40.254 13.4579 40.2577C13.3839 40.2677 13.4417 40.294 13.3951 40.3046C13.2949 40.3277 12.9424 40.3749 12.9495 40.4385C13.0061 40.4258 13.0628 40.4131 13.1196 40.4004C12.8118 40.4973 12.9516 40.4843 12.911 40.5085C12.8676 40.5346 12.8654 40.4774 12.7599 40.5029C12.735 40.509 12.2832 40.653 12.2986 40.6727C12.5387 40.5641 12.4653 40.6569 12.4771 40.6547C12.5224 40.6461 12.568 40.5928 12.6275 40.5762C13.0432 40.4609 12.6441 40.6408 12.7458 40.6273C12.7824 40.6221 12.8372 40.5719 12.8513 40.5695C12.8973 40.5617 12.9101 40.6027 12.9388 40.5907C13.0059 40.5626 12.9078 40.528 12.9125 40.5234C12.9635 40.4688 13.2209 40.4427 13.0876 40.5507C13.1855 40.5469 13.1736 40.4666 13.2552 40.4761C13.4176 40.4949 13.1965 40.5426 13.1412 40.5698C12.941 40.6682 12.879 40.6542 12.569 40.7558C12.4588 40.7919 12.3388 40.8675 12.2883 40.8845C12.256 40.8953 11.9159 40.8526 11.9666 41.0593C11.8437 41.0735 11.6225 40.9915 11.5057 41.0317C11.4007 41.068 11.4554 41.1305 11.4462 41.1362C11.4322 41.145 11.3022 41.1761 11.262 41.1986C11.2144 41.2252 11.2493 41.2451 11.1696 41.28C10.9638 41.3688 10.9491 41.293 10.9258 41.2944C10.6575 41.3102 10.7979 41.384 10.7443 41.4082C10.6922 41.4319 9.96369 41.5901 9.82601 41.6549C9.88215 41.6238 9.93848 41.5926 9.995 41.5612C9.87404 41.5446 9.78061 41.6506 9.75629 41.5682C9.77175 41.7077 9.52264 41.6784 9.44816 41.7016C9.42034 41.7104 9.42857 41.7327 9.39357 41.743C9.25637 41.7836 8.94581 41.8438 8.87635 41.8735C8.57241 42.0037 9.40375 41.8812 9.47435 41.8664C9.34045 41.9014 8.6254 42.1146 8.97397 42.0951C9.02791 42.0921 9.10408 42.0086 9.13256 41.9987C9.32572 41.9324 9.18454 42.0263 9.2013 42.0274C9.22968 42.0289 9.34655 41.943 9.38278 41.9401C9.39494 41.939 9.33296 42.0075 9.52376 41.9584C9.44067 42.0315 8.90214 42.1289 8.83821 42.156C8.81552 42.1655 8.99056 42.2307 8.52448 42.2406C8.53186 42.2487 8.53924 42.2569 8.54664 42.2651C8.30862 42.327 8.04814 42.3922 7.78354 42.4546C7.80733 42.4265 7.94521 42.35 7.76143 42.4004C7.65597 42.4292 7.74547 42.4605 7.73606 42.464C7.68765 42.4815 7.24741 42.5782 6.78059 42.66C6.26213 42.7533 5.73965 42.8149 5.57204 42.8341C5.45413 42.8501 5.0797 42.9194 5.05453 42.9202C4.88011 42.9393 4.32562 42.922 4.17179 42.9168C4.08614 42.9169 4.16577 42.9619 4.08915 42.9565C4.01795 42.951 4.09383 42.9147 4.07277 42.9119C3.98571 42.9001 3.61203 42.8904 3.21747 42.8192C2.80703 42.7555 2.27124 42.5558 2.10432 42.4436C2.21465 42.5073 2.56591 42.6398 2.88133 42.698C3.21481 42.7634 3.40431 42.7578 3.4076 42.7456C3.40375 42.7422 3.18129 42.6707 3.13135 42.6735C3.06085 42.6252 2.70577 42.6423 2.53801 42.5557C2.51978 42.5444 2.61444 42.5254 2.3148 42.3884C2.21058 42.338 1.92525 42.2608 1.65549 42.002C1.44179 41.8847 0.803051 41.2785 0.552552 40.6059C0.262293 39.8738 0.279839 39.4318 0.230547 39.3441C0.225243 39.3399 0.233753 39.6278 0.187191 39.4373C0.131269 39.1822 0.262775 39.4033 0.258229 39.1069C0.257746 39.0892 0.24971 38.8521 0.256109 38.664C0.25986 38.4946 0.272429 38.3244 0.269943 38.3132C0.222774 38.1056 0.144795 38.6828 0.143348 38.6743C0.120475 38.6544 0.149935 38.1681 0.161119 38.1477C0.167761 38.1303 0.208046 38.5351 0.232238 38.056C0.214513 38.1094 0.19738 38.1627 0.180864 38.2161C0.187296 37.9889 0.252938 37.975 0.264264 37.9212C0.301249 37.7573 0.246757 37.5387 0.41597 37.3013C0.458434 37.2496 0.469131 37.3537 0.475255 37.3473C0.530039 37.2869 0.445434 37.1725 0.550298 37.0848C0.558859 37.0781 0.541358 37.3381 0.653096 36.9041C0.637594 36.9322 0.622229 36.9603 0.607 36.9883C0.603225 36.9248 0.721549 36.4706 0.747401 36.4076C0.81551 36.2291 0.818235 36.405 0.870581 36.2192C0.756181 36.3201 0.943099 35.7307 0.986758 35.8107C0.930509 35.7194 1.13776 35.336 1.21854 35.1382C1.2673 35.0152 1.33935 34.7422 1.3607 34.7023C1.38606 34.6544 1.43146 34.6912 1.48068 34.6056C1.49092 34.5896 1.58203 34.2682 1.7225 34.0949C1.75005 34.0601 1.87379 34.016 1.86308 34.0988C1.85128 34.2247 1.65589 34.4845 1.71037 34.501C1.76886 34.5156 1.89204 34.1416 1.93296 34.0707C2.14522 33.6864 2.10025 33.9432 2.12222 33.9411C2.1767 33.9342 2.27637 33.7129 2.28493 33.7049C2.31964 33.6744 2.28103 33.8473 2.3063 33.8613C2.33867 33.8799 2.49844 33.6946 2.4875 33.7485C2.47106 33.8261 2.33137 33.9968 2.32855 34.0099C2.28996 34.1834 2.46658 34.0018 2.53312 33.9588C2.55334 33.946 2.53958 34.0277 2.55 34.0141C2.70905 33.8064 2.4617 33.915 2.54449 33.7643C2.61917 33.6289 2.58698 33.8328 2.59249 33.8285C2.59855 33.8234 2.67922 33.6574 2.71007 33.6392C2.72359 33.6325 2.62472 34.1095 2.6795 34.1103C2.7309 33.9709 2.78444 33.8292 2.84015 33.685C2.90339 33.7019 2.76735 33.8809 2.76431 33.9037C2.75741 33.9504 2.8401 33.8495 2.85639 33.863C2.86681 33.8713 2.84669 34.0249 2.92019 33.9117C2.94561 33.8727 2.94517 33.766 3.06067 33.6303C2.8624 34.1909 3.06949 33.8353 3.09718 33.8298C3.12501 33.8243 3.0548 34.1008 3.19085 33.7885C3.31082 33.8285 3.2234 33.8123 3.20238 33.9091C3.17761 34.0267 3.3278 33.8005 3.12102 34.1727C3.18354 34.1764 3.32489 33.8632 3.33795 33.8474C3.34859 33.8348 3.3417 33.9173 3.36234 33.8965C3.60554 33.6483 3.46209 33.83 3.56854 33.775C3.57757 33.7706 3.73899 33.4974 3.64419 33.7187C3.47396 34.119 3.3301 34.2367 3.46261 34.3743C3.65769 34.1329 3.72139 33.7336 3.76353 33.6425C3.82723 33.5046 3.79127 33.6621 3.80864 33.6497C3.81429 33.6454 3.869 33.5259 3.87249 33.5255C4.0339 33.5027 3.62149 34.0493 3.56241 34.2371C3.60346 34.1969 3.64475 34.1565 3.68628 34.1158C3.65566 34.183 3.62556 34.2497 3.59597 34.3157C3.77943 34.0178 3.61421 34.3123 3.67928 34.4348C3.69374 34.4625 3.74888 34.2411 3.70466 34.502C3.79761 34.3375 3.79263 34.4019 3.83785 34.2314C3.87485 34.2555 3.7577 34.6271 3.72006 34.768C3.98202 34.3108 3.70839 34.519 3.986 34.1275C3.97455 34.0239 3.88671 34.2349 3.88671 34.214C3.88555 34.1402 3.99819 34.0215 3.98055 33.7967C3.97767 33.7599 3.86713 33.8566 3.95671 33.6778C3.96664 33.6581 4.06722 33.5637 4.06971 33.5667C4.09654 33.5992 4.02797 33.7072 4.04023 33.7187C4.05161 33.7299 4.10544 33.5985 4.10958 33.5997C4.15463 33.617 4.07419 33.7143 4.09557 33.7048C4.1418 33.6845 4.45847 33.2718 4.14038 33.8554C4.33266 33.3361 4.12082 33.7718 4.05013 33.9688C4.03187 34.0192 4.05195 34.0438 4.02879 34.1159C3.99909 34.2087 3.93961 34.3033 3.92389 34.3496C3.90749 34.399 4.09283 34.1601 3.89548 34.5386C4.04521 34.3731 4.1488 33.9856 4.29247 33.7996C4.58125 33.4262 4.25589 34.14 4.2351 34.2096C4.22843 34.2295 4.29347 34.183 4.28966 34.1966C4.28178 34.2203 4.08853 34.5913 4.1025 34.6395C4.11479 34.6894 4.16378 34.5028 4.19983 34.5049C4.22211 34.5087 4.05647 34.968 4.17959 34.735C4.26331 34.5759 4.33047 34.2209 4.44493 34.2078C4.33031 34.4669 4.22351 34.7168 4.12441 34.9576C4.21647 34.8428 4.31059 34.7257 4.40683 34.6064C4.28673 34.8936 4.15705 35.08 4.08392 35.3825C4.28272 35.0742 4.27351 35.1566 4.23142 35.2782C4.18254 35.4153 4.07803 35.6561 4.08415 35.6607C4.09 35.6681 4.29447 35.4337 4.331 35.3951C4.25041 35.6653 3.99248 36.3573 4.26521 35.999C4.20972 36.0634 4.20244 36.2616 4.20837 36.2606C4.26365 36.2607 4.38907 35.8616 4.40792 35.9419C4.42822 36.037 4.31723 36.1113 4.27929 36.2232C4.09111 36.7983 4.42213 36.6863 4.18424 37.2503C4.19729 37.2418 4.21037 37.2332 4.22346 37.2247C4.11161 37.539 4.02481 37.8195 3.96064 38.0638C3.88723 38.3442 3.83864 38.6208 3.82172 38.8036C3.85803 38.8759 3.89264 39.0432 3.92584 39.1019C3.9584 39.1705 3.97486 39.157 3.95095 39.1235C3.947 39.1134 3.85165 39.0614 3.84123 39.0662C3.82308 39.0677 3.86291 39.1204 3.82249 39.1165C3.80509 39.1011 3.73573 39.0742 3.77483 39.0452C3.77368 39.0379 3.7796 39.0694 3.79256 39.0662C3.84749 39.0513 3.72585 38.9844 3.84192 39.0338C3.95488 39.0783 4.28753 39.1097 4.32672 39.0924C4.29778 39.0761 4.27031 39.0596 4.2444 39.0428C4.32145 39.055 4.40544 39.0643 4.48076 39.0717ZM0.486532 36.8062C0.461705 36.7167 0.551541 36.53 0.575179 36.4081C0.605601 36.2416 0.528651 35.8985 0.660539 36.0781C0.593715 36.3278 0.535687 36.5702 0.486532 36.8062ZM0.877254 41.4323C0.711639 41.1628 0.927084 41.3038 1.06317 41.5252C1.07917 41.5471 1.13068 41.7919 0.877254 41.4323ZM0.144113 38.808C0.144381 38.8178 0.141253 39.0177 0.140657 39.0247C0.0996922 39.2056 0.110703 38.5992 0.144113 38.808ZM8.2769 42.2501C8.12469 42.2904 8.25645 42.3542 8.34362 42.2945C8.34907 42.2908 8.28691 42.2476 8.2769 42.2501ZM8.16474 42.2739C8.01438 42.2245 7.78958 42.4463 7.99456 42.3828C8.01439 42.3766 8.17166 42.2765 8.16474 42.2739ZM0.392839 40.475C0.43141 40.4957 0.53339 40.7808 0.59195 40.8997C0.561681 40.9111 0.435332 40.5936 0.392839 40.475ZM5.59782 42.791C5.62666 42.7666 4.97466 42.8236 4.93926 42.8533C5.03165 42.839 5.61704 42.8143 5.59782 42.791ZM7.0318 42.5353C7.01755 42.5339 6.83936 42.5739 6.84867 42.5943C6.9411 42.6068 7.09518 42.5429 7.0318 42.5353ZM9.70248 41.9077C9.71042 41.8998 9.54736 41.7992 9.8713 41.8073C9.91896 41.8084 9.77074 41.886 9.78776 41.8866C9.82308 41.8873 9.85025 41.8847 9.87135 41.8798C9.7367 41.9281 9.58444 41.9741 9.56583 41.9702C9.48347 41.9507 9.70375 41.9098 9.70248 41.9077ZM11.0138 41.438C11.0365 41.4079 11.2379 41.3633 11.277 41.3619C11.2846 41.3615 11.2701 41.4279 11.3506 41.4003C11.4153 41.3779 11.3002 41.3471 11.431 41.3199C11.5634 41.2922 11.4021 41.3838 11.4144 41.3836C11.4305 41.3832 11.624 41.299 11.6277 41.335C11.6302 41.3618 11.4098 41.4065 11.3586 41.4269C11.2928 41.4532 11.387 41.4721 11.2713 41.4953C11.1963 41.5105 11.2154 41.4246 11.1988 41.4253C11.1842 41.4263 10.9319 41.544 11.0143 41.4381C11.0141 41.4381 11.0139 41.438 11.0138 41.438ZM9.90843 41.8663C9.89854 41.8717 9.8865 41.8763 9.87135 41.8798C9.88381 41.8754 9.89617 41.8708 9.90843 41.8663ZM0.408517 37.257C0.367117 37.3304 0.390969 37.0898 0.444954 37.0071C0.469047 37.0122 0.414217 37.2458 0.408517 37.257ZM10.0225 41.7701C10.2377 41.7315 10.0895 41.7998 9.90843 41.8663C9.96355 41.8363 9.95048 41.783 10.0225 41.7701ZM3.13135 42.6735C3.14302 42.682 3.14936 42.6925 3.14732 42.7072C3.11657 42.6841 3.11551 42.6748 3.13135 42.6735ZM3.84368 42.8059C4.09273 42.7819 3.59514 42.7403 3.59419 42.7683C3.59403 42.7817 3.83363 42.808 3.84368 42.8059ZM8.47574 42.2071C8.45926 42.2065 8.66954 42.0161 8.34176 42.1999C8.53293 42.1706 8.33853 42.2324 8.34427 42.2432C8.35935 42.2751 8.66834 42.1665 8.74341 42.1627C8.78397 42.0897 8.53041 42.2091 8.47614 42.207C8.47601 42.2071 8.47588 42.2071 8.47574 42.2071ZM13.4024 40.78C13.3711 40.8266 13.2372 40.8538 13.1489 40.8775C13.1798 40.831 13.3133 40.8039 13.4024 40.78ZM36.4773 37.8109C35.8931 37.7294 35.843 37.5742 36.3641 37.7318C36.3743 37.7349 36.5154 37.8035 36.4773 37.8109ZM31.3942 37.2931C31.3371 37.2295 31.5258 37.2189 31.6492 37.2463C31.6772 37.2524 31.7797 37.3179 31.6619 37.3294C31.6664 37.2522 31.4836 37.2216 31.3942 37.2931ZM10.1304 41.6984C10.1803 41.6408 10.3778 41.6178 10.4805 41.5958C10.4282 41.6467 10.2216 41.6873 10.1304 41.6984ZM34.5668 37.43C34.5048 37.418 34.4564 37.4683 34.4667 37.4741C34.5125 37.5005 34.6343 37.4697 34.5668 37.43ZM9.51627 41.8568C9.50305 41.8342 9.75393 41.7421 9.78426 41.7988C9.73352 41.8079 9.52839 41.8702 9.51627 41.8568ZM13.2307 40.8105C13.1892 40.8092 13.3786 40.7296 13.4419 40.7244C13.4446 40.7518 13.2577 40.8113 13.2307 40.8105ZM33.5565 37.3522C33.5007 37.343 33.3599 37.3316 33.3427 37.353C33.3216 37.3795 33.5283 37.3845 33.5565 37.3522ZM43.2463 40.5151C43.2462 40.527 43.0282 40.4662 42.9592 40.399C42.8279 40.2697 43.2443 40.5033 43.2463 40.5151ZM35.1605 37.4777C35.3284 37.555 35.1409 37.4766 35.1409 37.5327C35.2585 37.5508 35.5503 37.5985 35.3574 37.5139C35.3197 37.4975 35.2151 37.489 35.1605 37.4777ZM35.0009 37.437C34.9796 37.4522 34.8456 37.4917 34.9556 37.5021C35.0063 37.5068 35.0965 37.4556 35.0009 37.437ZM42.1172 39.8308C42.0089 39.7089 42.6058 40.0938 42.6172 40.1153C42.6239 40.1249 42.6277 40.1323 42.6292 40.1375C42.6596 40.138 42.7751 40.208 42.7669 40.2497C42.7347 40.225 42.6398 40.1691 42.6312 40.1587C42.6276 40.1542 42.625 40.1505 42.6236 40.1475C42.5659 40.1493 42.139 39.852 42.1172 39.8308ZM41.1026 39.231C41.2953 39.2454 41.2681 39.3705 41.2525 39.3669C41.0565 39.3248 41.2102 39.3004 41.2068 39.2939C41.1978 39.2813 41.0554 39.258 41.1031 39.2313C41.103 39.2312 41.1028 39.2311 41.1026 39.231ZM41.919 39.6945C41.9261 39.6965 42.0529 39.7728 42.0572 39.7776C42.1418 39.8733 41.7837 39.6581 41.919 39.6945ZM11.9841 41.07C12.1007 41.0489 12.0022 41.1247 11.9228 41.1307C11.9162 41.1309 11.8815 41.0884 11.9841 41.07ZM34.9127 37.4376C34.8895 37.4237 34.2457 37.3168 34.2772 37.3907C34.334 37.3856 35.062 37.5107 34.9127 37.4376ZM30.0217 37.2339C30.1382 37.2295 30.014 37.2993 29.9509 37.2781C29.9274 37.2702 29.9923 37.2351 30.0217 37.2339ZM9.14629 41.8928C9.02635 41.9602 9.02342 41.8382 9.14514 41.849C9.14992 41.8494 9.15101 41.8902 9.14629 41.8928ZM30.954 37.2438C30.5533 37.2909 30.644 37.0819 31.1685 37.1449C31.1522 37.1542 31.1359 37.1634 31.1197 37.1727C31.722 37.2004 31.1612 37.1857 31.0136 37.1998C30.9576 37.2049 31.0051 37.2384 30.9544 37.2441C30.9542 37.244 30.9541 37.2439 30.954 37.2438ZM29.4079 37.2619C29.0103 37.1411 29.7584 37.1889 29.9694 37.1627C29.7661 37.2318 29.4984 37.237 29.8653 37.2799C29.3341 37.319 29.5521 37.2507 29.5307 37.2466C29.5051 37.2427 29.4248 37.2671 29.4079 37.2619ZM30.4299 37.2139C30.4522 37.2089 30.6219 37.2337 30.6825 37.2275C30.5989 37.2787 30.2821 37.2474 30.4299 37.2139ZM39.9606 38.755C39.9876 38.7241 40.0293 38.7099 40.1414 38.7725C40.0975 38.7752 40.016 38.7596 39.9606 38.755ZM0.72429 36.7146C0.755957 36.6113 0.834711 36.4034 0.775852 36.4565C0.76958 36.4632 0.701552 36.7086 0.72429 36.7146ZM33.0308 37.2323C33.012 37.2253 32.5118 37.1994 32.6828 37.25C32.7345 37.2642 33.1883 37.2832 33.0308 37.2323ZM35.5864 37.5087C35.5458 37.5016 35.3787 37.4832 35.3738 37.4919C35.3579 37.5215 35.5638 37.5357 35.5864 37.5087ZM0.926809 36.1883C0.933423 36.1779 1.04361 35.8317 1.01057 35.8713C0.954029 35.9227 0.896357 36.2354 0.926809 36.1883ZM12.3724 40.8622C12.3961 40.8539 12.4397 40.8851 12.4482 40.8831C12.4672 40.8783 12.9066 40.7329 12.7522 40.8346C12.7249 40.8521 12.0857 41.0168 12.0046 41.0345C11.9568 40.9881 12.2399 40.9633 12.3042 40.9383C12.3155 40.9339 12.3093 40.8852 12.3723 40.8625C12.3724 40.8624 12.3724 40.8623 12.3724 40.8622ZM40.5865 38.9794C40.6184 38.9516 41.0686 39.1363 41.0435 39.1754C40.8918 39.1078 40.7394 39.0425 40.5865 38.9794ZM40.3646 38.8743C40.2804 38.8092 40.5055 38.8977 40.5658 38.9379C40.5563 38.9606 40.3769 38.8835 40.3646 38.8743ZM34.674 37.2421C34.6233 37.245 34.7696 37.3169 34.7341 37.3231C34.7115 37.3269 34.603 37.2936 34.5656 37.3063C34.555 37.3104 34.6621 37.3738 34.6949 37.3757C34.7416 37.3784 34.7015 37.3334 34.7521 37.3394C34.9204 37.3593 35.0651 37.4074 35.2217 37.4293C35.2358 37.4312 35.1301 37.3876 35.2507 37.4053C35.2694 37.4081 35.3752 37.4656 35.5197 37.4821C35.8581 37.4048 36.0688 37.57 36.4763 37.6039C36.464 37.5884 36.1707 37.4981 36.1532 37.4942C35.8225 37.4091 35.2166 37.3117 34.8591 37.2677C34.7674 37.2559 34.8085 37.2888 34.7689 37.2849C34.7376 37.2818 34.781 37.2358 34.674 37.2421ZM0.735739 36.7775C0.79806 36.742 0.817412 36.5588 0.855368 36.4453C0.798915 36.4723 0.776205 36.6728 0.735739 36.7775ZM38.329 38.0869C38.2831 38.0749 38.1459 38.0186 38.1299 38.03C38.1094 38.0445 38.3095 38.1167 38.329 38.0869ZM14.8134 40.1637C14.8177 40.1611 14.9352 40.1298 14.9401 40.13C15.0557 40.1389 14.7034 40.2324 14.8134 40.1637ZM17.6393 39.3748C17.7275 39.3442 17.8144 39.3043 17.8555 39.3358C17.7963 39.3452 17.6362 39.4053 17.6393 39.3748ZM21.5387 38.3943C21.5082 38.3458 21.7869 38.319 21.8392 38.3126C21.8253 38.34 21.5608 38.4289 21.5387 38.3943ZM40.0072 38.5913C40.1528 38.6543 40.1532 38.5664 40.2322 38.6396C40.245 38.6519 40.2277 38.8286 40.092 38.703C40.0674 38.6805 40.1965 38.6897 40.0072 38.5913ZM31.2536 37.1461C31.2953 37.1101 31.4262 37.1203 31.5145 37.1235C31.4946 37.1498 31.3165 37.143 31.2536 37.1461ZM1.15577 35.6504C1.22937 35.5921 1.33296 35.2149 1.26781 35.2929C1.2579 35.3051 1.17466 35.6021 1.15577 35.6504ZM10.5168 41.423C10.658 41.3425 10.3401 41.4184 10.2528 41.4825C10.2963 41.4679 10.5071 41.4285 10.5168 41.423ZM20.5958 38.5835C20.6024 38.5802 20.7586 38.547 20.766 38.5473C20.9027 38.5573 20.4612 38.6515 20.5958 38.5835ZM16.6956 39.5678C16.742 39.5208 17.1158 39.444 17.2073 39.4528C17.14 39.5206 16.6374 39.6262 16.6956 39.5678ZM39.3845 38.3758C39.4923 38.4134 39.5902 38.461 39.683 38.5119C39.6527 38.5291 39.3891 38.3987 39.3845 38.3758ZM21.1661 38.4458C21.1745 38.4441 21.1834 38.4453 21.1914 38.4437C21.1828 38.4445 21.1744 38.4451 21.1661 38.4458ZM36.9313 37.639C36.8395 37.6073 36.8482 37.6609 36.8537 37.6637C36.9208 37.6952 37.0351 37.6749 36.9313 37.639ZM0.843952 36.6703C0.89842 36.6444 0.921211 36.4448 0.96747 36.3361C0.922457 36.358 0.86393 36.5823 0.843952 36.6703ZM28.9855 37.1968C28.8572 37.1563 29.3605 37.0638 29.4692 37.0902C29.4787 37.1194 29.0041 37.2014 28.9855 37.1968ZM10.0318 41.4862C10.0122 41.4547 9.81024 41.554 9.85994 41.5579C9.89123 41.5606 10.0435 41.5059 10.0318 41.4862ZM29.7249 37.0969C29.7719 37.0836 29.8843 37.1133 29.8464 37.1366C29.7978 37.1664 29.7128 37.1007 29.7249 37.0969ZM33.9655 37.1356C33.9455 37.128 33.6677 37.1412 33.7781 37.1869C33.8546 37.2186 33.8715 37.1686 33.89 37.17C33.9109 37.1715 34.3445 37.2759 33.9655 37.1356ZM26.1442 37.4722C26.2482 37.4437 26.3779 37.4419 26.4883 37.4261C26.4461 37.4538 26.1935 37.4946 26.1442 37.4722ZM10.8694 41.2434C10.8367 41.2382 10.1175 41.4297 10.5365 41.3589C10.5602 41.3551 10.9619 41.2626 10.8694 41.2434ZM40.0072 38.5913C39.9888 38.5834 39.968 38.5731 39.9445 38.5599C39.9686 38.5711 39.9892 38.582 40.0072 38.5913ZM38.2927 37.9839C38.3355 37.9696 38.1589 37.91 38.1022 37.9084C38.0774 37.9339 38.2868 37.9857 38.2927 37.9839ZM26.4919 37.3892C26.5537 37.366 26.6715 37.3665 26.7502 37.3547C26.7399 37.3802 26.5228 37.4096 26.4919 37.3892ZM22.0162 38.1599C22.1469 38.146 22.2995 38.1066 22.2958 38.0773C22.2994 38.0813 22.3065 38.0847 22.3177 38.0874C22.3289 38.0899 22.4607 38.0479 22.5213 38.0455C22.8864 38.027 21.1681 38.3742 22.1456 38.0764C22.1024 38.1042 22.0593 38.132 22.0162 38.1599ZM16.1784 39.6415C16.0959 39.6276 15.9058 39.7284 15.9623 39.727C16.0013 39.7259 16.2608 39.6556 16.1784 39.6415ZM18.9172 38.8731C18.8943 38.8724 18.7063 38.9474 18.7062 38.967C18.8226 38.957 19.0216 38.8768 18.9172 38.8731ZM15.6122 39.7593C15.5657 39.767 15.5243 39.839 15.5303 39.8399C15.5817 39.8471 15.6968 39.7685 15.6122 39.7593ZM39.7551 38.3239C39.7001 38.2845 39.4901 38.2505 39.4346 38.2712C39.4293 38.2613 39.4113 38.2445 39.3761 38.2194C39.3762 38.2195 39.3763 38.2195 39.3765 38.2196C39.3333 38.1721 37.7363 37.6519 38.7877 38.0607C38.8204 38.0739 38.7854 38.0261 38.9196 38.077C38.9285 38.0804 38.9241 38.1084 38.9513 38.119C39.0145 38.1424 39.3464 38.2774 39.4214 38.2819C39.4202 38.287 39.4229 38.2932 39.4306 38.3009C39.4993 38.3684 39.7975 38.3537 39.7551 38.3239ZM19.3028 38.7687C19.2608 38.7687 19.1388 38.8101 19.1321 38.8373C19.1967 38.8332 19.4001 38.7688 19.3028 38.7687ZM10.8193 41.1522C10.73 41.1564 10.5302 41.2518 10.5991 41.2535C10.641 41.2547 10.922 41.1475 10.8193 41.1522ZM18.0636 39.1068C18.5341 39.0113 18.1743 39.0747 18.2359 39.0208C18.1785 39.0494 18.1209 39.0781 18.0636 39.1068ZM41.5992 39.2615C41.5397 39.221 41.6475 39.1965 41.6992 39.268C41.7153 39.2904 41.6325 39.2841 41.5992 39.2615ZM44.2906 40.9777C44.2821 40.89 44.4922 41.104 44.3743 41.0659C44.3692 41.0636 44.2926 40.9822 44.2906 40.9777ZM42.4608 39.689C42.3973 39.7015 42.3681 39.6897 42.2568 39.6126C42.4355 39.7031 42.2949 39.576 42.4608 39.689ZM22.2935 38.0731C22.2947 38.0746 22.2956 38.0757 22.2958 38.0773C22.2946 38.076 22.2939 38.0746 22.2935 38.0731ZM15.1837 39.8943C15.1162 39.8757 14.9572 39.9246 15.015 39.9461C15.0205 39.9481 15.1677 39.927 15.1837 39.8943ZM39.4346 38.2712C39.4394 38.2799 39.4344 38.2825 39.4214 38.2819C39.4225 38.2771 39.4271 38.2739 39.4346 38.2712ZM16.0444 39.6166C16.0459 39.6445 16.2978 39.5841 16.3071 39.5782C16.4376 39.4922 16.1463 39.5858 16.0444 39.6166ZM9.13816 41.5699C9.12541 41.5761 9.22971 41.6218 9.27622 41.5811C9.31211 41.5496 9.18557 41.5465 9.13816 41.5699ZM42.8636 39.9161C42.9276 39.9566 43.0175 40.0146 43.0158 40.0534C42.976 40.0212 42.8492 39.9359 42.8636 39.9161ZM44.2273 40.8701C44.1328 40.8464 43.9719 40.7239 43.872 40.6426C43.901 40.5989 44.1542 40.8276 44.2273 40.8701ZM39.9403 38.4172C39.9354 38.4127 39.7633 38.3287 39.775 38.3706C39.7921 38.4314 39.9832 38.4545 39.9403 38.4172ZM9.55258 41.4996C9.63865 41.452 9.40571 41.4383 9.32157 41.5188C9.27821 41.5602 9.53735 41.508 9.55258 41.4996ZM14.6724 39.9927C14.5649 40.0448 14.8552 39.9976 14.8847 39.9514C14.8315 39.9638 14.7106 39.9742 14.6724 39.9927ZM18.5723 38.8661C18.1865 38.8598 18.4308 38.9924 18.4901 38.9594C18.4984 38.9547 18.5816 38.8661 18.5723 38.8661ZM1.71108 34.8005C1.72017 34.7404 1.58766 34.9239 1.60961 34.9625C1.623 34.9868 1.70488 34.8393 1.71108 34.8005ZM24.0579 37.6925C24.0425 37.6957 24.0272 37.6988 24.0121 37.7019C24.0232 37.6981 24.038 37.6948 24.0579 37.6925ZM13.5789 40.1663C13.8766 40.2328 13.8183 40.1315 13.8407 40.1255C13.8895 40.1129 14.0133 40.1182 14.1033 40.0851C14.0028 40.1318 13.9028 40.1783 13.8033 40.2248C13.8852 40.2117 14.6312 40.0505 14.6309 40.0259C14.6432 39.9868 14.4236 40.0619 14.4145 40.0614C14.4037 40.0601 14.3415 39.9796 14.3193 39.9823C14.2818 39.9872 13.6796 40.1613 13.5789 40.1663ZM17.8179 39.0842C17.8796 39.0792 17.9061 39.1109 17.9311 39.0949C17.9396 39.0894 17.9318 39.0544 17.9612 39.0369C17.9134 39.0527 17.8656 39.0684 17.8179 39.0842ZM13.1608 40.427C13.0768 40.406 13.4029 40.3278 13.415 40.3293C13.4785 40.3416 13.229 40.4442 13.1608 40.427ZM15.9118 39.6213C15.899 39.6223 15.6447 39.6808 15.6535 39.7035C15.7244 39.7023 16.0617 39.6118 15.9118 39.6213ZM17.9999 39.024C18.0891 39.0043 18.2664 38.9943 18.2324 38.9477C18.2323 38.9477 18.2322 38.9477 18.2321 38.9478C18.1554 38.9729 18.0771 38.9985 17.9999 39.024ZM9.82121 41.3097C9.63701 41.2705 9.74151 41.3547 9.89274 41.3424C9.9263 41.2933 9.85141 41.316 9.82121 41.3097ZM9.2714 41.3901C9.218 41.3888 8.73502 41.5299 8.82088 41.5546C8.85066 41.564 9.12126 41.4524 9.13547 41.4518C9.15644 41.4511 9.07861 41.5233 9.22729 41.4743C9.21412 41.4602 9.28914 41.3908 9.2714 41.3901ZM9.67305 41.2927C9.49628 41.2726 9.49183 41.3982 9.61181 41.3666C9.65881 41.3542 9.69836 41.2957 9.67305 41.2927ZM10.3394 41.1211C10.2769 41.1266 10.1154 41.154 10.0187 41.222C10.1633 41.1859 10.3093 41.1491 10.4565 41.1116C10.4673 41.085 10.3939 41.1164 10.339 41.1212C10.3391 41.1212 10.3392 41.1212 10.3394 41.1211ZM45.1625 41.2366C45.0871 41.1264 45.3208 41.311 45.3246 41.3262C45.3343 41.3718 45.1962 41.2855 45.1625 41.2366ZM3.1416 34.2556C3.16896 34.2285 3.21931 34.2259 3.2315 34.1435C3.16775 34.2027 3.10453 34.2615 3.04183 34.3198C3.0855 34.4069 3.11149 34.2852 3.1416 34.2556ZM3.52147 34.093C3.51836 34.1041 3.64997 34.0971 3.51746 34.1976C3.42659 34.2673 3.61249 33.7501 3.70614 33.6772C3.67823 33.79 3.54931 33.9977 3.52147 34.093ZM4.40559 33.4206C4.4166 33.419 4.33093 33.623 4.31432 33.6424C4.22476 33.7465 4.34393 33.4322 4.40559 33.4206ZM4.08341 34.0311C4.14619 33.952 4.06542 34.1551 4.02688 34.2068C4.00442 34.2034 4.07364 34.0437 4.08341 34.0311ZM45.1679 39.0799C45.1275 38.9511 44.9481 39.0306 45.1029 39.1024C45.1102 39.1058 45.1693 39.0858 45.1679 39.0799ZM4.41541 33.6658C4.35003 33.7477 4.43678 33.5378 4.47942 33.4816C4.50143 33.4857 4.42499 33.6536 4.41541 33.6658ZM45.2185 38.8826C45.1346 38.75 45.0631 38.9349 45.0731 38.9517C45.1151 39.0197 45.3652 39.1137 45.4185 39.1315C45.0939 38.9215 45.2575 38.9456 45.2185 38.8826ZM44.6068 38.5866C44.4832 38.5261 44.7458 38.7548 44.8283 38.749C44.7722 38.7121 44.6441 38.605 44.6068 38.5866ZM43.944 38.077C43.8855 38.0317 43.7078 37.9034 43.6609 37.9105C43.7323 37.9469 43.9013 38.0864 43.944 38.077ZM43.85 37.9124C43.773 37.8171 43.6876 37.9045 43.819 37.9435C43.8241 37.945 43.8524 37.9165 43.85 37.9124ZM43.3162 37.5453C43.2742 37.4668 43.143 37.5251 43.2471 37.5877C43.278 37.6061 43.3205 37.554 43.3162 37.5453ZM45.192 38.6083C45.1165 38.5285 44.9563 38.5151 45.1368 38.6563C45.0642 38.6193 44.9916 38.5828 44.9189 38.5469C45.1354 38.7576 45.1842 38.6535 45.2514 38.7082C45.3448 38.7853 45.2806 38.8556 45.2436 38.865C45.3575 38.8763 45.6941 39.1307 45.8923 39.2772C45.7393 39.1225 45.4882 38.8759 45.327 38.7382C45.2811 38.6986 45.2186 38.6849 45.1788 38.6524C45.1151 38.6003 45.1961 38.613 45.1924 38.6086C45.1923 38.6085 45.1922 38.6084 45.192 38.6083ZM42.5707 37.1378C42.3958 36.9879 42.4694 37.1552 42.5908 37.195C42.5964 37.1961 42.575 37.1415 42.5707 37.1378ZM4.86192 33.5569C4.68729 33.8008 4.71838 33.5877 4.54515 34.1697C4.59133 33.9146 4.50631 34.1359 4.50243 34.0798C4.49942 34.0352 4.58067 33.9094 4.50312 33.9678C4.5938 33.8892 4.80793 33.4271 4.8271 33.4078C4.827 33.408 4.8269 33.4082 4.8268 33.4084C4.83725 33.398 4.91855 33.478 4.86192 33.5569ZM44.1041 37.82C44.1148 37.661 43.9722 37.8345 43.9077 37.6585C43.6527 37.6991 44.3692 37.9444 44.3653 38.117C43.7019 37.6679 44.7315 38.5249 44.3798 38.0401C44.7236 38.3603 44.5213 38.1019 44.5962 38.1187C44.6764 38.1369 44.877 38.3128 44.8953 38.2622C44.8951 38.2621 44.895 38.262 44.8949 38.2619C44.7598 38.1727 44.6235 38.0851 44.4869 37.9997C44.556 38.1804 44.3014 37.9718 44.2566 37.8351C44.2057 37.8298 44.1548 37.8248 44.1041 37.82ZM44.8025 38.4082C44.792 38.3968 44.4938 38.2135 44.4999 38.2456C44.532 38.2826 44.945 38.5469 44.8025 38.4082ZM46.022 39.2929C45.9256 39.2141 45.7886 39.0778 45.7092 39.0701C45.8067 39.1462 45.9426 39.2831 46.022 39.2929ZM40.5288 36.1213C40.3691 36.0971 40.8186 36.282 40.7026 36.1927C40.6969 36.1882 40.5367 36.1223 40.5288 36.1213ZM43.7857 37.649C43.6699 37.5295 43.6651 37.6856 43.785 37.7165C43.792 37.7182 43.7911 37.6545 43.7857 37.649ZM4.76972 33.7802C4.79384 33.8059 4.5894 34.1723 4.56001 34.2359C4.54777 34.1876 4.73915 33.7541 4.76972 33.7802ZM46.2717 39.3357C46.1554 39.0819 45.8026 38.9815 45.7759 38.9574C45.7489 38.9324 45.8266 38.9262 45.8209 38.92C45.808 38.905 45.4954 38.6721 45.4778 38.6647C45.4654 38.659 45.4772 38.7601 45.3993 38.731C45.5505 38.7868 46.0952 39.2491 46.128 39.269C46.1544 39.2824 46.035 39.0836 46.2713 39.3354C46.2714 39.3355 46.2715 39.3356 46.2717 39.3357ZM45.7131 38.8883C45.7711 38.9721 45.5529 38.8089 45.5071 38.7608C45.4057 38.6523 45.7057 38.8769 45.7131 38.8883ZM45.2062 38.4745C45.1855 38.4504 44.9618 38.2842 44.9226 38.2996C45.0048 38.4106 45.2535 38.5284 45.2062 38.4745ZM42.5211 36.847C42.4534 36.8175 42.2835 36.7041 42.2598 36.7263C42.3281 36.7543 42.4972 36.8685 42.5211 36.847ZM4.42884 35.1213C4.49398 35.0375 4.40576 35.2599 4.36798 35.3166C4.34771 35.3123 4.42288 35.1289 4.42884 35.1213ZM43.9109 37.3878C43.8791 37.3525 43.0964 36.9326 42.9774 36.8913C43.0771 36.9643 43.8383 37.4 43.8774 37.4158C43.8891 37.419 43.915 37.3919 43.9109 37.3878ZM45.5279 38.4519C45.6198 38.4647 45.6306 38.5394 45.6384 38.5461C45.715 38.6117 45.8873 38.7317 45.8247 38.7376C45.6943 38.6138 45.3455 38.4268 45.5279 38.4519ZM42.5546 36.639C42.2747 36.5172 42.7769 36.8217 42.7292 36.7465C42.7261 36.7416 42.5837 36.6514 42.5546 36.639ZM44.0032 37.4285C44.0808 37.4279 44.8237 37.9416 44.9418 38.0294C44.7967 38.0103 44.7382 37.9099 44.5904 37.8167C44.5505 37.7917 44.546 37.8217 44.5417 37.819C44.4729 37.7756 44.5413 37.7822 44.4994 37.7544C44.4736 37.7342 43.8969 37.4208 44.0032 37.4285ZM45.5836 38.4549C45.6392 38.4621 46.0893 38.7944 46.1021 38.8156C46.2038 38.9578 45.6143 38.4844 45.5836 38.4549ZM43.9633 37.3355C44.0862 37.3185 44.4396 37.5998 44.1592 37.4703C44.1326 37.4579 44.0446 37.3647 43.9633 37.3355ZM42.6167 36.5882C42.6045 36.5788 42.325 36.4239 42.3091 36.4441C42.3468 36.4713 42.7588 36.6872 42.6167 36.5882ZM42.8023 36.5897C42.7952 36.5868 42.8405 36.6628 42.7095 36.5892C42.6985 36.5832 42.7018 36.5245 42.524 36.4578C42.4879 36.4444 42.4192 36.4498 42.4221 36.4537C42.5611 36.6119 43.16 36.7445 42.8023 36.5897ZM45.6174 38.4265C45.6066 38.3906 45.7046 38.3805 45.7368 38.4469C45.7505 38.4754 45.6847 38.4756 45.6174 38.4265ZM41.7138 36.1371C41.8991 36.1745 41.3716 35.9347 41.3399 35.9348C41.3477 35.9643 41.6957 36.1324 41.7138 36.1371ZM4.61743 35.4639C4.61748 35.4638 4.61752 35.4637 4.61757 35.4636C4.55344 35.5878 4.55696 35.4959 4.55385 35.5004C4.38255 35.7729 4.48738 35.7234 4.47617 35.7721C4.45425 35.8744 4.37465 35.8246 4.34558 35.996C4.40064 35.7143 4.32448 35.9606 4.29131 35.9552C4.15418 35.9347 4.49411 35.6301 4.5302 35.4794C4.53481 35.4589 4.43468 35.5826 4.4446 35.529C4.47939 35.3479 4.84385 35.0386 4.61743 35.4639ZM45.7807 38.4727C45.8627 38.4828 46.2716 38.8523 46.1367 38.7878C46.1157 38.7754 45.6624 38.4537 45.7807 38.4727ZM21.721 35.169C21.8358 35.1097 21.5453 35.1307 21.4979 35.1682C21.475 35.1866 21.6706 35.195 21.721 35.169ZM19.7064 35.4777C19.5645 35.5189 19.4478 35.6937 19.6202 35.6291C19.6385 35.6221 19.7274 35.4929 19.7064 35.4777ZM29.4364 34.0101C29.2753 33.9683 29.2903 34.062 29.4061 34.0541C29.4471 34.0514 29.4415 34.0115 29.4364 34.0101ZM23.4844 34.757C23.4683 34.7565 23.2914 34.7955 23.3019 34.8156C23.3699 34.816 23.5882 34.7609 23.4844 34.757ZM29.486 33.994C29.3931 34.0161 29.558 34.0753 29.6693 34.0032C29.6113 34.0114 29.4955 33.9917 29.486 33.994ZM43.7785 36.9841C43.6888 36.9765 43.4951 36.8528 43.3766 36.7954C43.3885 36.744 43.6926 36.9437 43.7785 36.9841ZM20.3305 35.3885C20.2018 35.4548 20.5013 35.4148 20.464 35.3756C20.4597 35.3739 20.3356 35.3857 20.3305 35.3885ZM34.5868 34.0937C34.4782 34.1124 34.8095 34.1878 34.7228 34.1257C34.7185 34.123 34.5928 34.0925 34.5868 34.0937ZM36.0497 34.3018C35.9714 34.2785 35.6296 34.2312 35.7581 34.2797C35.7782 34.2869 36.0394 34.3276 36.0497 34.3018ZM4.50614 35.7941C4.56908 35.777 4.46725 35.9886 4.44716 36.0147C4.43842 36.0257 4.42307 35.8179 4.50614 35.7941ZM28.4098 34.0718C28.3288 34.0847 28.1162 34.0906 28.0814 34.1209C28.1806 34.1063 28.441 34.1232 28.4098 34.0718ZM20.9567 35.2451C20.8243 35.2173 20.6208 35.2694 20.6877 35.3292C20.9126 35.2731 20.645 35.2712 20.9567 35.2451ZM30.0114 33.9091C29.9453 33.9075 29.8979 33.9799 29.9055 33.9829C29.9779 34.0113 30.0779 33.9339 30.0114 33.9091ZM25.1267 34.4516C25.1184 34.4224 24.9142 34.4679 24.9447 34.4827C24.9548 34.4877 25.1333 34.4751 25.1267 34.4516ZM41.2156 35.707C41.1336 35.6437 41.426 35.7346 41.4966 35.8C41.519 35.8592 41.2263 35.7141 41.2156 35.707ZM31.8477 33.9011C31.8582 33.8563 31.5256 33.8789 31.6563 33.9168C31.6889 33.9262 31.844 33.9159 31.8477 33.9011ZM35.0467 34.0532C34.8166 34.077 35.7519 34.2354 35.5138 34.138C35.4969 34.13 35.0669 34.0502 35.0467 34.0532ZM36.5773 34.3147C36.5398 34.3021 36.5854 34.1576 36.735 34.2439C36.7546 34.2551 36.6494 34.276 36.6649 34.2881C36.6741 34.2944 37.0168 34.381 37.0333 34.3814C37.0513 34.3809 37.0404 34.3298 37.0589 34.3279C37.0798 34.3258 37.2849 34.4104 37.3962 34.4349C37.6062 34.4809 37.6375 34.4478 37.6548 34.4513C37.7051 34.4624 37.7831 34.5091 37.8846 34.533C38.3964 34.6497 39.1855 34.8354 39.557 35.045C39.2128 34.9005 38.8625 34.8367 38.5029 34.753C38.6287 34.6987 37.9614 34.6803 38.354 34.6812C38.1805 34.6452 36.701 34.3438 36.5777 34.3147C36.5776 34.3147 36.5774 34.3147 36.5773 34.3147ZM19.1267 35.5762C19.2033 35.5043 18.7494 35.6294 18.7258 35.6967C18.7875 35.6894 19.1168 35.5844 19.1267 35.5762ZM21.2056 34.9608C21.2464 34.9429 21.2665 34.8358 21.5022 34.8369C21.5024 34.8368 21.5026 34.8368 21.5028 34.8367C21.5711 34.8372 21.5019 34.877 21.5157 34.8829C21.5208 34.8854 21.7346 34.8905 21.5674 34.9345C21.3116 35.0021 21.5279 34.8668 21.389 34.8958C21.3718 34.8993 21.1209 35.0097 21.1389 35.018C21.1407 35.019 21.2171 34.9905 21.2312 34.9924C21.2844 34.9998 21.2672 35.0355 21.2744 35.0355C21.2985 35.0338 21.7001 34.8927 21.7692 34.9259C21.7926 34.9355 21.1215 35.116 21.0932 35.1152C21.0754 35.1141 21.0636 35.0279 21.0445 35.0234C21.0345 35.0212 20.7688 35.114 20.7319 35.1144C20.7212 35.1144 20.7128 35.1138 20.7066 35.1131C20.7536 35.1298 20.5071 35.1841 20.508 35.153C20.5095 35.1403 20.6804 35.1083 20.687 35.109C20.6899 35.1093 20.6924 35.1099 20.6948 35.1103C20.6519 35.086 21.2285 34.9586 21.0937 34.939C21.2555 34.876 21.0852 35.0139 21.2056 34.9608ZM21.997 34.737C21.9816 34.7495 21.9662 34.762 21.9508 34.7746C22.2385 34.6918 22.586 34.6664 22.9259 34.6007C23.0122 34.5841 22.9023 34.5484 23.0184 34.5417C23.1115 34.5364 23.2215 34.5683 23.1743 34.5889C23.1628 34.594 22.9718 34.5959 22.8803 34.6172C22.61 34.6801 22.6882 34.7139 22.6725 34.7182C22.6552 34.7229 22.4779 34.7238 22.3851 34.7441C22.1519 34.7953 22.0512 34.8457 21.7257 34.8752C21.9025 34.8057 21.7879 34.7598 21.997 34.737ZM33.2628 33.8147C33.2763 33.7852 33.477 33.824 33.5507 33.8247C33.5372 33.8539 33.3367 33.8143 33.2628 33.8147ZM5.21016 39.1052C5.16615 39.1608 5.52605 39.1293 5.42642 39.1C5.40327 39.0941 5.25262 39.1012 5.21016 39.1052ZM6.94943 38.8347C7.00088 38.8096 6.77417 38.8225 6.78319 38.8594C6.78571 38.8715 6.9424 38.8382 6.94943 38.8347ZM25.8377 34.117C25.8488 34.1138 26.0164 34.1022 26.0219 34.104C26.1387 34.1408 25.5888 34.1857 25.8377 34.117ZM9.16825 38.2157C8.98614 38.2992 9.56453 38.1549 9.37776 38.1634C9.36815 38.1641 9.17669 38.2118 9.16825 38.2157ZM9.97863 37.9807C9.93111 37.996 9.71707 38.0395 9.71866 38.0546C9.72069 38.0794 9.96551 38.0278 9.97863 37.9807ZM30.0487 33.721C30.0215 33.6662 30.3256 33.6974 30.4309 33.6878C30.4576 33.7425 30.1528 33.7096 30.0487 33.721ZM28.1482 33.7994C29.4109 33.6574 29.1393 33.7943 28.0753 33.833C28.0707 33.7976 28.0687 33.8091 28.1482 33.7994ZM29.7719 33.6982C29.7273 33.7359 29.5827 33.7322 29.4851 33.7346C29.5013 33.7088 29.7018 33.7077 29.7719 33.6982ZM4.7708 39.0651C4.82283 39.0187 5.11159 39.05 5.06387 39.0724C5.04794 39.0793 4.74658 39.0925 4.7708 39.0651ZM25.9355 34.0556C25.8991 34.0056 26.277 33.9777 26.3074 33.9864C26.4292 34.0192 25.9641 34.0391 25.9355 34.0556ZM31.8634 33.6496C31.932 33.608 32.125 33.6331 32.2492 33.6368C32.1917 33.6715 31.9688 33.6515 31.8634 33.6496ZM30.9671 33.6165C30.9749 33.6146 31.1481 33.6167 31.1559 33.6187C31.2979 33.6586 30.8085 33.6532 30.9671 33.6165ZM5.05995 35.4691C5.05915 35.4742 5.01349 35.5707 5.01066 35.5733C4.93483 35.6442 5.07242 35.3538 5.05995 35.4691Z" fill="url(#paint0_linear_246_188)"/>
<path d="M9.65204 28.1984L9.51479 28.208L4.34936 32.4084L4.33684 32.5191L4.46801 32.55L14.2504 29.0751L14.3085 29.0246L15.9619 25.2774L15.9363 25.1859L12.8067 22.6401L12.6875 22.6217L8.32901 24.1683L8.27307 24.2138L4 32.1689L4.03789 32.276L4.17453 32.2656L9.33904 28.0655L9.35035 27.9536C9.01102 27.5608 9.05511 27.0164 9.48578 26.6655C9.96996 26.2731 10.7516 26.2731 11.2358 26.6655C11.7176 27.0593 11.7176 27.6948 11.2358 28.0883C10.8045 28.4395 10.1351 28.4747 9.65204 28.1984Z" fill="url(#paint1_linear_246_188)"/>
<path d="M20.541 13.6499L27.2391 19.0968C35.3969 12.2587 44.952 2.12782 43.1784 0.686042C41.4064 -0.755542 28.9495 7.0151 20.541 13.6499Z" fill="url(#paint2_linear_246_188)"/>
<path d="M14.9488 23.6449C16.48 24.8905 17.3913 26.2501 22.3733 22.8554L15.9203 17.6068C11.7459 21.6588 13.4177 22.3994 14.9488 23.6449Z" fill="#65309E"/>
<path d="M22.3749 22.8553C22.9361 22.473 23.5493 22.03 24.22 21.5201L17.5637 16.1059C16.9365 16.6519 16.3911 17.1508 15.9219 17.6068L22.3749 22.8553Z" fill="#D01BCE"/>
<path d="M17.5625 16.1059L24.2187 21.5201C24.8056 21.0741 25.4326 20.5818 26.1143 20.0275C26.4851 19.7264 26.8608 19.4139 27.2395 19.0968L20.5414 13.6499C20.1516 13.9572 19.7677 14.2632 19.3966 14.5646C18.7158 15.1185 18.1103 15.6288 17.5625 16.1059Z" fill="#40388D"/>
<defs>
<linearGradient id="paint0_linear_246_188" x1="2" y1="37" x2="46" y2="37" gradientUnits="userSpaceOnUse">
<stop stop-color="#3A3A8A" stop-opacity="0.68"/>
<stop offset="1" stop-color="#F814E1" stop-opacity="0.66"/>
</linearGradient>
<linearGradient id="paint1_linear_246_188" x1="9.98097" y1="22.6217" x2="9.98097" y2="32.55" gradientUnits="userSpaceOnUse">
<stop stop-color="#3F398C"/>
<stop offset="1" stop-color="#E616D9"/>
</linearGradient>
<linearGradient id="paint2_linear_246_188" x1="31.9671" y1="0.511536" x2="31.9671" y2="19.0968" gradientUnits="userSpaceOnUse">
<stop stop-color="#F813E1"/>
<stop offset="1" stop-color="#7E2CA9"/>
</linearGradient>
</defs>
</svg>
